<?xml version="1.0" standalone="no"?>
<!DOCTYPE svg PUBLIC "-//W3C//DTD SVG 1.1//EN" "http://www.w3.org/Graphics/SVG/1.1/DTD/svg11.dtd" >
<svg xmlns="http://www.w3.org/2000/svg" xmlns:xlink="http://www.w3.org/1999/xlink" version="1.1">
<metadata>
Created by FontForge 20190801 at Thu Oct 25 13:32:23 2018
 By root
Copyright (c) 2016 by Zetafonts. All rights reserved.
</metadata>
<defs>
<font id="AristotelicaDisplayTrial-DmBd" horiz-adv-x="1076" >
  <font-face 
    font-family="Aristotelica Display Trial DmBd"
    font-weight="600"
    font-stretch="normal"
    units-per-em="2000"
    panose-1="0 0 0 0 0 0 0 0 0 0"
    ascent="1600"
    descent="-400"
    x-height="930"
    cap-height="1280"
    bbox="-216 -669 2420 1795"
    underline-thickness="100"
    underline-position="-200"
    unicode-range="U+000D-FB06"
  />
<missing-glyph horiz-adv-x="450" 
 />
    <glyph glyph-name=".notdef" horiz-adv-x="450" 
 />
    <glyph glyph-name="uni0000" horiz-adv-x="0" 
 />
    <glyph glyph-name="uni0000" horiz-adv-x="0" 
 />
    <glyph glyph-name="uni000D" unicode="&#xd;" horiz-adv-x="450" 
 />
    <glyph glyph-name="space" unicode=" " horiz-adv-x="450" 
 />
    <glyph glyph-name="A" unicode="A" horiz-adv-x="1154" 
d="M864 245h-572l-75 -180q-14 -32 -40.5 -48.5t-58.5 -16.5q-22 0 -47 10q-22 9 -36 24.5t-20.5 34.5t-5 41t10.5 43l457 1061q14 32 40 49t60 17q32 0 58 -17t40 -48l460 -1062q18 -42 5.5 -83t-54.5 -60q-21 -10 -46 -10q-32 0 -59 17t-41 48zM379 462h395l-196 471z" />
    <glyph glyph-name="AE" unicode="&#xc6;" horiz-adv-x="1743" 
d="M1593 1280q23 0 43.5 -9t35.5 -24t24 -35.5t9 -43.5t-9 -43.5t-24 -35.5t-35.5 -24t-43.5 -9h-490v-332h359q24 0 44 -8t35 -23t23.5 -35t8.5 -44q0 -23 -8.5 -43.5t-23.5 -35.5t-35 -24t-43 -9l-360 -2v-277l488 -1q23 0 43.5 -9t35.5 -24t24 -35.5t9 -43.5
q0 -24 -8.5 -44t-23.5 -35t-35.5 -23t-44.5 -8h-601q-23 0 -43 8.5t-35 23.5t-24 35t-9 43v131h-474l-158 -201q-17 -21 -40.5 -32t-48.5 -11q-38 0 -68 24q-18 15 -29 34t-13 40t3.5 42t20.5 39l829 1059q15 20 38.5 32.5t50.5 12.5h603zM879 464v379l-298 -379h298z" />
    <glyph glyph-name="AEacute" unicode="&#x1fc;" horiz-adv-x="1743" 
d="M1593 1280q23 0 43.5 -9t35.5 -24t24 -35.5t9 -43.5t-9 -43.5t-24 -35.5t-35.5 -24t-43.5 -9h-490v-332h359q24 0 44 -8t35 -23t23.5 -35t8.5 -44q0 -23 -8.5 -43.5t-23.5 -35.5t-35 -24t-43 -9l-360 -2v-277l488 -1q23 0 43.5 -9t35.5 -24t24 -35.5t9 -43.5
q0 -24 -8.5 -44t-23.5 -35t-35.5 -23t-44.5 -8h-601q-23 0 -43 8.5t-35 23.5t-24 35t-9 43v131h-474l-158 -201q-17 -21 -40.5 -32t-48.5 -11q-38 0 -68 24q-18 15 -29 34t-13 40t3.5 42t20.5 39l829 1059q15 20 38.5 32.5t50.5 12.5h603zM879 464v379l-298 -379h298z
M1343 1422q-17 -17 -37.5 -25t-40.5 -8q-44 0 -76 32q-16 16 -24.5 36t-8.5 41t8.5 41.5t24.5 36.5l126 127q16 17 36 24.5t41 7.5t41.5 -8t36.5 -24q17 -16 25 -36t8 -40.5t-8.5 -40.5t-24.5 -36z" />
    <glyph glyph-name="Aacute" unicode="&#xc1;" horiz-adv-x="1154" 
d="M864 245h-572l-75 -180q-14 -32 -40.5 -48.5t-58.5 -16.5q-22 0 -47 10q-22 9 -36 24.5t-20.5 34.5t-5 41t10.5 43l457 1061q14 32 40 49t60 17q32 0 58 -17t40 -48l460 -1062q18 -42 5.5 -83t-54.5 -60q-21 -10 -46 -10q-32 0 -59 17t-41 48zM379 462h395l-196 471z
M700 1403q-17 -17 -37.5 -25t-40.5 -8q-44 0 -76 32q-16 16 -24.5 36t-8.5 41t8.5 41.5t24.5 36.5l126 127q16 17 36 24.5t41 7.5t41.5 -8t36.5 -24q17 -16 25 -36t8 -40.5t-8.5 -40.5t-24.5 -36z" />
    <glyph glyph-name="uniF7E1" unicode="&#xf7e1;" horiz-adv-x="880" 
d="M558 1101q-17 -17 -37.5 -25t-40.5 -8q-44 0 -76 32q-16 16 -24.5 36t-8.5 41t8.5 41.5t24.5 36.5l126 127q16 17 36 24.5t41 7.5t41.5 -8t36.5 -24q17 -16 25 -36t8 -40.5t-8.5 -40.5t-24.5 -36zM622 166h-365l-39 -102q-14 -32 -41 -50t-59 -18q-22 0 -43 9t-36.5 24.5
t-23.5 35t-8 41.5t9 43l323 727q17 38 54 55l3 2q8 3 15 4.5t15 3.5h5h10q18 0 31 -4l13 -4q5 -2 9 -5l8 -6q26 -17 38 -46l324 -727q9 -21 8.5 -43t-8.5 -41.5t-23 -35t-35 -24.5q-21 -9 -43 -9q-32 0 -59.5 18t-41.5 50zM337 371h206l-103 267z" />
    <glyph glyph-name="Abreve" unicode="&#x102;" horiz-adv-x="1154" 
d="M864 245h-572l-75 -180q-14 -32 -40.5 -48.5t-58.5 -16.5q-22 0 -47 10q-22 9 -36 24.5t-20.5 34.5t-5 41t10.5 43l457 1061q14 32 40 49t60 17q32 0 58 -17t40 -48l460 -1062q18 -42 5.5 -83t-54.5 -60q-21 -10 -46 -10q-32 0 -59 17t-41 48zM379 462h395l-196 471z
M661 1600q0 32 21 54t53 22t53 -22t21 -54q0 -47 -18 -89t-49.5 -73t-73 -49t-89.5 -18t-90 18t-73.5 49t-49.5 73t-18 89q0 32 22 54t52 22q32 0 54 -22t22 -54v-3q1 -32 24 -55.5t57 -23.5q17 0 31.5 6.5t25.5 17t17.5 24.5t7.5 30v4z" />
    <glyph glyph-name="Abreve.small" horiz-adv-x="880" 
d="M532 1294q0 32 21 54t53 22t53 -22t21 -54q0 -47 -18 -89t-49.5 -73t-73 -49t-89.5 -18t-90 18t-73.5 49t-49.5 73t-18 89q0 32 22 54t52 22q32 0 54 -22t22 -54v-3q1 -32 24 -55.5t57 -23.5q17 0 31.5 6.5t25.5 17t17.5 24.5t7.5 30v4zM622 166h-365l-39 -102
q-14 -32 -41 -50t-59 -18q-22 0 -43 9t-36.5 24.5t-23.5 35t-8 41.5t9 43l323 727q17 38 54 55l3 2q8 3 15 4.5t15 3.5h5h10q18 0 31 -4l13 -4q5 -2 9 -5l8 -6q26 -17 38 -46l324 -727q9 -21 8.5 -43t-8.5 -41.5t-23 -35t-35 -24.5q-21 -9 -43 -9q-32 0 -59.5 18t-41.5 50z
M337 371h206l-103 267z" />
    <glyph glyph-name="Acircumflex" unicode="&#xc2;" horiz-adv-x="1154" 
d="M864 245h-572l-75 -180q-14 -32 -40.5 -48.5t-58.5 -16.5q-22 0 -47 10q-22 9 -36 24.5t-20.5 34.5t-5 41t10.5 43l457 1061q14 32 40 49t60 17q32 0 58 -17t40 -48l460 -1062q18 -42 5.5 -83t-54.5 -60q-21 -10 -46 -10q-32 0 -59 17t-41 48zM379 462h395l-196 471z
M725 1391.09q14 -13.999 29.5 -19.999t30.5 -6q26 0 47.5 14.499t33 36.998t9 48.4971t-25.5 49.9971l-208 208.987l-2 2q-28 25.998 -62 25.998q-37 0 -64 -26.998l-208 -209.987q-24 -23.999 -26.5 -49.9971t9 -48.4971t33.5 -36.998t47 -14.499q15 0 30.5 6t29.5 19.999
l148 147.99z" />
    <glyph glyph-name="Adieresis" unicode="&#xc4;" horiz-adv-x="1154" 
d="M864 245h-572l-75 -180q-14 -32 -40.5 -48.5t-58.5 -16.5q-22 0 -47 10q-22 9 -36 24.5t-20.5 34.5t-5 41t10.5 43l457 1061q14 32 40 49t60 17q32 0 58 -17t40 -48l460 -1062q18 -42 5.5 -83t-54.5 -60q-21 -10 -46 -10q-32 0 -59 17t-41 48zM379 462h395l-196 471z
M642 1501q0 24 9.5 46t26 38.5t38.5 26t46 9.5q25 0 47 -9.5t38 -26t25.5 -38.5t9.5 -46q0 -25 -9.5 -47t-25.5 -38t-38 -25.5t-47 -9.5q-24 0 -46 9.5t-38.5 25.5t-26 38t-9.5 47zM264 1501q0 24 9.5 46t25.5 38.5t38 26t47 9.5q24 0 46 -9.5t38.5 -26t26 -38.5t9.5 -46
q0 -25 -9.5 -47t-26 -38t-38.5 -25.5t-46 -9.5q-25 0 -47 9.5t-38 25.5t-25.5 38t-9.5 47z" />
    <glyph glyph-name="Agrave" unicode="&#xc0;" horiz-adv-x="1154" 
d="M864 245h-572l-75 -180q-14 -32 -40.5 -48.5t-58.5 -16.5q-22 0 -47 10q-22 9 -36 24.5t-20.5 34.5t-5 41t10.5 43l457 1061q14 32 40 49t60 17q32 0 58 -17t40 -48l460 -1062q18 -42 5.5 -83t-54.5 -60q-21 -10 -46 -10q-32 0 -59 17t-41 48zM379 462h395l-196 471z
M505.015 1417q16.999 -17 37.4971 -25q20.499 -8 40.498 -8q43.9971 0 75.9951 32q15.999 16 24.499 36q8.49902 20 8.49902 41t-8.49902 41.5q-8.5 20.5 -24.499 36.5l-125.992 127q-15.999 17 -35.998 24.5q-19.998 7.5 -40.9971 7.5t-41.498 -8q-20.498 -8 -36.4971 -24
q-16.999 -16 -24.999 -36q-7.99902 -20 -7.99902 -40.5t8.49902 -40.5q8.5 -20 24.499 -36z" />
    <glyph glyph-name="Alpha" unicode="&#x391;" horiz-adv-x="1154" 
d="M864 245h-572l-75 -180q-14 -32 -40.5 -48.5t-58.5 -16.5q-22 0 -47 10q-22 9 -36 24.5t-20.5 34.5t-5 41t10.5 43l457 1061q14 32 40 49t60 17q32 0 58 -17t40 -48l460 -1062q18 -42 5.5 -83t-54.5 -60q-21 -10 -46 -10q-32 0 -59 17t-41 48zM379 462h395l-196 471z" />
    <glyph glyph-name="Alphatonos" unicode="&#x386;" horiz-adv-x="1154" 
d="M864 245h-572l-75 -180q-14 -32 -40.5 -48.5t-58.5 -16.5q-22 0 -47 10q-22 9 -36 24.5t-20.5 34.5t-5 41t10.5 43l457 1061q14 32 40 49t60 17q32 0 58 -17t40 -48l460 -1062q18 -42 5.5 -83t-54.5 -60q-21 -10 -46 -10q-32 0 -59 17t-41 48zM379 462h395l-196 471z
M234 973q0 -22 -8.5 -42t-23 -34t-34 -22.5t-41.5 -8.5t-42 8.5t-34.5 22.5t-23 34t-8.5 42v198q0 23 8.5 42.5t23 34.5t34.5 23.5t42 8.5q23 0 42.5 -8.5t33.5 -23.5t22.5 -34.5t8.5 -42.5v-198z" />
    <glyph glyph-name="Amacron" unicode="&#x100;" horiz-adv-x="1154" 
d="M864 245h-572l-75 -180q-14 -32 -40.5 -48.5t-58.5 -16.5q-22 0 -47 10q-22 9 -36 24.5t-20.5 34.5t-5 41t10.5 43l457 1061q14 32 40 49t60 17q32 0 58 -17t40 -48l460 -1062q18 -42 5.5 -83t-54.5 -60q-21 -10 -46 -10q-32 0 -59 17t-41 48zM379 462h395l-196 471z
M774 1552q40 0 67 -27t27 -65q0 -40 -27 -68.5t-67 -28.5h-388q-40 0 -66.5 28.5t-26.5 68.5q0 39 26.5 65.5t66.5 26.5h388z" />
    <glyph glyph-name="Aogonek" unicode="&#x104;" horiz-adv-x="1154" 
d="M864 245h-572l-75 -180q-14 -32 -40.5 -48.5t-58.5 -16.5q-22 0 -47 10q-22 9 -36 24.5t-20.5 34.5t-5 41t10.5 43l457 1061q14 32 40 49t60 17q32 0 58 -17t40 -48l460 -1062q18 -42 5.5 -83t-54.5 -60q-21 -10 -46 -10q-32 0 -59 17t-41 48zM379 462h395l-196 471z
M1256 -180q-1 -45 -19.5 -84.5t-48.5 -69t-70 -46.5t-85 -17q-46 0 -86 17.5t-70 48t-47 71t-17 86.5q0 48 18 89.5t48 70.5q1 0 1 0.5t1 0.5l138 137q10 11 30 11q18 0 36.5 -8t29.5 -19q17 -17 17 -40t-17 -41l-138 -136l-9 -7q-21 -24 -21 -57q0 -17 6.5 -32t18 -26.5
t26.5 -18t33 -6.5q35 0 58.5 24t24.5 58q0 29 20.5 49t51.5 20q29 0 49.5 -20t20.5 -49v-6z" />
    <glyph glyph-name="Aring" unicode="&#xc5;" horiz-adv-x="1154" 
d="M864 245h-572l-75 -180q-14 -32 -40.5 -48.5t-58.5 -16.5q-22 0 -47 10q-22 9 -36 24.5t-20.5 34.5t-5 41t10.5 43l457 1061q14 32 40 49t60 17q32 0 58 -17t40 -48l460 -1062q18 -42 5.5 -83t-54.5 -60q-21 -10 -46 -10q-32 0 -59 17t-41 48zM379 462h395l-196 471z
M505 1548q0 -30 21.5 -52t52.5 -22q32 0 53.5 22t21.5 52q0 32 -21.5 54t-53.5 22q-31 0 -52.5 -22t-21.5 -54zM356 1549q0 47 17.5 87.5t48 70.5t71 47.5t86.5 17.5q47 0 88 -17.5t71 -47.5t47.5 -70.5t17.5 -87.5q0 -46 -17.5 -87t-47.5 -72t-71 -49t-88 -18
q-46 0 -86.5 18t-71 49t-48 72t-17.5 87z" />
    <glyph glyph-name="uniF761" unicode="&#xf761;" horiz-adv-x="880" 
d="M622 166h-365l-39 -102q-14 -32 -41 -50t-59 -18q-22 0 -43 9t-36.5 24.5t-23.5 35t-8 41.5t9 43l323 727q17 38 54 55l3 2q8 3 15 4.5t15 3.5h5h10q18 0 31 -4l13 -4q5 -2 9 -5l8 -6q26 -17 38 -46l324 -727q9 -21 8.5 -43t-8.5 -41.5t-23 -35t-35 -24.5q-21 -9 -43 -9
q-32 0 -59.5 18t-41.5 50zM337 371h206l-103 267z" />
    <glyph glyph-name="Atilde" unicode="&#xc3;" horiz-adv-x="1154" 
d="M864 245h-572l-75 -180q-14 -32 -40.5 -48.5t-58.5 -16.5q-22 0 -47 10q-22 9 -36 24.5t-20.5 34.5t-5 41t10.5 43l457 1061q14 32 40 49t60 17q32 0 58 -17t40 -48l460 -1062q18 -42 5.5 -83t-54.5 -60q-21 -10 -46 -10q-32 0 -59 17t-41 48zM379 462h395l-196 471z
M231 1534q7 10 26 30t47 40.5t64.5 35.5t78.5 15q44 0 78.5 -15t67.5 -41q7 -6 17.5 -14t22.5 -15.5t25.5 -12.5t25.5 -5q47 0 98 68q0 -1 2 -1l1 1q25 23 58 23q17 0 32.5 -6t27.5 -19q23 -25 24 -57t-20 -58q0 -4 -1 -5q-7 -10 -25.5 -30t-46.5 -40.5t-65 -36t-80 -15.5
q-42 0 -78.5 17.5t-68.5 41.5q-7 5 -17 12.5t-21.5 14.5t-24.5 12t-25 5q-43 0 -87 -52q-10 -20 -31.5 -30.5t-42.5 -10.5q-35 0 -61 24q-13 12 -19.5 28.5t-6.5 33.5t6 33t19 29z" />
    <glyph glyph-name="B" unicode="B" horiz-adv-x="1141" 
d="M229 0q-22 0 -42 8.5t-34.5 22.5t-23 34t-8.5 42v1066q0 23 8.5 42.5t23 34t34.5 22.5t42 8h459q74 0 138.5 -28t112.5 -76t75.5 -112.5t27.5 -138.5q0 -69 -24.5 -132t-67.5 -114q64 -55 101.5 -132.5t37.5 -167.5q0 -80 -30.5 -149t-83 -120t-123 -80.5t-151.5 -29.5
h-472zM338 554v-337h355q37 0 69.5 14.5t57 39.5t38.5 57t14 67q0 36 -14.5 65.5t-39 50t-57 32t-68.5 11.5h-355zM338 1063v-292h342q30 1 56.5 13.5t46 32.5t30.5 46.5t11 54.5q0 30 -12 56t-32.5 46t-47.5 31.5t-57 11.5h-337z" />
    <glyph glyph-name="B.alt" horiz-adv-x="1111" 
d="M109 1166q0 8 1 17.5t4 17.5l2 4q11 32 38 52t62 21h467q76 0 143 -29.5t117 -80.5t79 -118.5t29 -143.5q0 -73 -26.5 -137t-73.5 -113q54 -53 85.5 -123.5t31.5 -151.5q0 -79 -30 -148t-81.5 -121t-121 -82t-147.5 -30h-472q-31 0 -57 18.5t-40 45.5v1q-5 13 -8 23v4
q-2 5 -2 10v11v1053zM667 540q-23 0 -43.5 8.5t-35.5 23.5t-23.5 35.5t-8.5 43.5t8.5 43.5t23.5 35.5t35.5 24t43.5 9h16q30 0 57 11t46.5 30.5t31 45.5t11.5 56q0 34 -12.5 61t-34 46t-50 29.5t-60.5 11.5h-339v-830h355q31 0 58.5 12.5t47.5 34.5t32 50.5t12 59.5
q0 32 -12 60.5t-32 50.5t-47.5 35t-58.5 13h-21z" />
    <glyph glyph-name="uniF762" unicode="&#xf762;" horiz-adv-x="895" 
d="M222 0q-22 0 -42 8.5t-34 22.5t-22.5 33.5t-8.5 41.5v718q0 23 8.5 42.5t23 33.5t34 22t41.5 8h319q54 0 104.5 -17t89.5 -50t63 -81.5t24 -111.5q0 -54 -24 -98.5t-63 -76.5q60 -34 96 -90.5t36 -125.5q0 -63 -23.5 -114.5t-64.5 -88t-96 -56.5t-119 -20h-342zM332 392
v-184h237q46 0 73.5 23t27.5 64q0 42 -27 69.5t-74 27.5h-237zM332 728v-176h203q17 0 33 5t29 16t20.5 27.5t7.5 38.5q0 45 -26 67t-63 22h-204z" />
    <glyph glyph-name="C" unicode="C" horiz-adv-x="1256" 
d="M1159 1097q32 -32 32 -75.5t-32 -75.5q-16 -16 -36.5 -24t-41.5 -8t-40.5 7.5t-34.5 22.5q-65 65 -144.5 96.5t-164.5 31.5q-88 0 -166.5 -33.5t-137 -92t-93 -137.5t-34.5 -170q0 -87 32.5 -165.5t90 -138t136 -95t169.5 -36.5q92 0 168 31.5t142 95.5q15 15 35 22.5
t42 7.5q20 0 40 -7.5t35 -21.5q16 -16 24 -36t8 -41t-8 -41t-23 -35q-97 -97 -216.5 -144.5t-247.5 -47.5q-88 0 -170.5 23.5t-154 65.5t-130.5 101.5t-101 132t-65 155.5t-23 172q0 86 22 167.5t62.5 153.5t98.5 133t130 105t157 68.5t179 24.5q126 0 245 -48t216 -144z
" />
    <glyph glyph-name="Cacute" unicode="&#x106;" horiz-adv-x="1256" 
d="M1159 1097q32 -32 32 -75.5t-32 -75.5q-16 -16 -36.5 -24t-41.5 -8t-40.5 7.5t-34.5 22.5q-65 65 -144.5 96.5t-164.5 31.5q-88 0 -166.5 -33.5t-137 -92t-93 -137.5t-34.5 -170q0 -87 32.5 -165.5t90 -138t136 -95t169.5 -36.5q92 0 168 31.5t142 95.5q15 15 35 22.5
t42 7.5q20 0 40 -7.5t35 -21.5q16 -16 24 -36t8 -41t-8 -41t-23 -35q-97 -97 -216.5 -144.5t-247.5 -47.5q-88 0 -170.5 23.5t-154 65.5t-130.5 101.5t-101 132t-65 155.5t-23 172q0 86 22 167.5t62.5 153.5t98.5 133t130 105t157 68.5t179 24.5q126 0 245 -48t216 -144z
M859 1430q-17 -17 -37.5 -25t-40.5 -8q-44 0 -76 32q-16 16 -24.5 36t-8.5 41t8.5 41.5t24.5 36.5l126 127q16 17 36 24.5t41 7.5t41.5 -8t36.5 -24q17 -16 25 -36t8 -40.5t-8.5 -40.5t-24.5 -36z" />
    <glyph glyph-name="Ccaron" unicode="&#x10c;" horiz-adv-x="1256" 
d="M1159 1097q32 -32 32 -75.5t-32 -75.5q-16 -16 -36.5 -24t-41.5 -8t-40.5 7.5t-34.5 22.5q-65 65 -144.5 96.5t-164.5 31.5q-88 0 -166.5 -33.5t-137 -92t-93 -137.5t-34.5 -170q0 -87 32.5 -165.5t90 -138t136 -95t169.5 -36.5q92 0 168 31.5t142 95.5q15 15 35 22.5
t42 7.5q20 0 40 -7.5t35 -21.5q16 -16 24 -36t8 -41t-8 -41t-23 -35q-97 -97 -216.5 -144.5t-247.5 -47.5q-88 0 -170.5 23.5t-154 65.5t-130.5 101.5t-101 132t-65 155.5t-23 172q0 86 22 167.5t62.5 153.5t98.5 133t130 105t157 68.5t179 24.5q126 0 245 -48t216 -144z
M858 1750q14 14 29.5 20t30.5 6q26 0 47.5 -14.5t33 -37t9 -48.5t-25.5 -50l-208 -209l-2 -2q-28 -26 -62 -26q-37 0 -64 27l-208 210q-24 24 -26.5 50t9 48.5t33.5 37t47 14.5q15 0 30.5 -6t29.5 -20l148 -148z" />
    <glyph glyph-name="Ccedilla" unicode="&#xc7;" horiz-adv-x="1256" 
d="M1159 1097q32 -32 32 -75.5t-32 -75.5q-16 -16 -36.5 -24t-41.5 -8t-40.5 7.5t-34.5 22.5q-65 65 -144.5 96.5t-164.5 31.5q-88 0 -166.5 -33.5t-137 -92t-93 -137.5t-34.5 -170q0 -87 32.5 -165.5t90 -138t136 -95t169.5 -36.5q92 0 168 31.5t142 95.5q15 15 35 22.5
t42 7.5q20 0 40 -7.5t35 -21.5q16 -16 24 -36t8 -41t-8 -41t-23 -35q-97 -97 -216.5 -144.5t-247.5 -47.5q-88 0 -170.5 23.5t-154 65.5t-130.5 101.5t-101 132t-65 155.5t-23 172q0 86 22 167.5t62.5 153.5t98.5 133t130 105t157 68.5t179 24.5q126 0 245 -48t216 -144z
M772 -93q38 -7 70 -26.5t55 -48.5t36 -65.5t13 -77.5q0 -45 -17.5 -85t-47.5 -70t-70 -47t-85 -17q-46 0 -86 17t-70 47t-47.5 70t-17.5 85q0 30 20.5 50.5t50.5 20.5q28 0 48 -20.5t20 -50.5v-1q2 -34 25.5 -57.5t57.5 -23.5q18 0 33 6.5t26.5 18t18 27t6.5 32.5
q0 37 -24.5 60t-72.5 24h-5q-42 0 -59.5 16.5t-17.5 40.5v197q0 12 6.5 22.5t16 18.5t22 12.5t24.5 4.5t24.5 -4.5t23 -12.5t17 -18.5t6.5 -22.5v-122z" />
    <glyph glyph-name="Ccircumflex" unicode="&#x108;" horiz-adv-x="1256" 
d="M1159 1097q32 -32 32 -75.5t-32 -75.5q-16 -16 -36.5 -24t-41.5 -8t-40.5 7.5t-34.5 22.5q-65 65 -144.5 96.5t-164.5 31.5q-88 0 -166.5 -33.5t-137 -92t-93 -137.5t-34.5 -170q0 -87 32.5 -165.5t90 -138t136 -95t169.5 -36.5q92 0 168 31.5t142 95.5q15 15 35 22.5
t42 7.5q20 0 40 -7.5t35 -21.5q16 -16 24 -36t8 -41t-8 -41t-23 -35q-97 -97 -216.5 -144.5t-247.5 -47.5q-88 0 -170.5 23.5t-154 65.5t-130.5 101.5t-101 132t-65 155.5t-23 172q0 86 22 167.5t62.5 153.5t98.5 133t130 105t157 68.5t179 24.5q126 0 245 -48t216 -144z
M850 1411.09q14 -13.999 29.5 -19.999t30.5 -6q26 0 47.5 14.499t33 36.998t9 48.4971t-25.5 49.9971l-208 208.987l-2 2q-28 25.998 -62 25.998q-37 0 -64 -26.998l-208 -209.987q-24 -23.999 -26.5 -49.9971t9 -48.4971t33.5 -36.998t47 -14.499q15 0 30.5 6t29.5 19.999
l148 147.99z" />
    <glyph glyph-name="Cdotaccent" unicode="&#x10a;" horiz-adv-x="1256" 
d="M1159 1097q32 -32 32 -75.5t-32 -75.5q-16 -16 -36.5 -24t-41.5 -8t-40.5 7.5t-34.5 22.5q-65 65 -144.5 96.5t-164.5 31.5q-88 0 -166.5 -33.5t-137 -92t-93 -137.5t-34.5 -170q0 -87 32.5 -165.5t90 -138t136 -95t169.5 -36.5q92 0 168 31.5t142 95.5q15 15 35 22.5
t42 7.5q20 0 40 -7.5t35 -21.5q16 -16 24 -36t8 -41t-8 -41t-23 -35q-97 -97 -216.5 -144.5t-247.5 -47.5q-88 0 -170.5 23.5t-154 65.5t-130.5 101.5t-101 132t-65 155.5t-23 172q0 86 22 167.5t62.5 153.5t98.5 133t130 105t157 68.5t179 24.5q126 0 245 -48t216 -144z
M570 1509q0 26 10 49.5t27.5 41t41 27.5t49.5 10t49.5 -10t41 -27.5t27.5 -41t10 -49.5t-10 -49.5t-27.5 -41t-41 -27.5t-49.5 -10t-49.5 10t-41 27.5t-27.5 41t-10 49.5z" />
    <glyph glyph-name="uniF763" unicode="&#xf763;" horiz-adv-x="934" 
d="M510 724q-54 0 -102 -20t-84 -54.5t-57 -82t-21 -102.5q0 -50 19.5 -96.5t54.5 -82.5t83.5 -57.5t106.5 -21.5q49 0 89 12.5t86 46.5q14 11 29.5 21.5t30.5 19.5q26 13 51 13q17 0 35.5 -7t38.5 -24q18 -16 27 -36.5t8.5 -43t-10.5 -44.5t-29 -42q-65 -65 -158 -100
t-192 -35q-103 0 -192 37t-155 102.5t-103.5 156t-37.5 197.5q0 96 40.5 180t108 146.5t155.5 98.5t184 36q49 0 98 -9t94.5 -26t86 -42.5t71.5 -57.5q38 -40 39 -87t-34 -78q-20 -17 -39 -24.5t-37 -7.5q-14 0 -26 3.5t-24 9.5q-15 8 -30.5 19t-29.5 22q-22 17 -42.5 28.5
t-41 18.5t-43 10t-48.5 3z" />
    <glyph glyph-name="D" unicode="D" horiz-adv-x="1278" 
d="M229 0q-22 0 -42 8.5t-34.5 22.5t-23 34t-8.5 42v1066q0 23 8.5 42.5t23 34t34.5 22.5t42 8h351q88 0 170.5 -23t154.5 -65t132 -101t103 -130t66.5 -153t23.5 -170q0 -132 -52 -248t-141 -203t-207 -137t-250 -50h-350h-1zM338 1063v-846h247q89 0 166.5 34.5t136 92
t92 133.5t33.5 159q0 84 -33.5 161t-92 136t-136 94.5t-166.5 35.5h-247z" />
    <glyph glyph-name="Dcaron" unicode="&#x10e;" horiz-adv-x="1278" 
d="M229 0q-22 0 -42 8.5t-34.5 22.5t-23 34t-8.5 42v1066q0 23 8.5 42.5t23 34t34.5 22.5t42 8h351q88 0 170.5 -23t154.5 -65t132 -101t103 -130t66.5 -153t23.5 -170q0 -132 -52 -248t-141 -203t-207 -137t-250 -50h-350h-1zM338 1063v-846h247q89 0 166.5 34.5t136 92
t92 133.5t33.5 159q0 84 -33.5 161t-92 136t-136 94.5t-166.5 35.5h-247zM654 1742q14 14 29.5 20t30.5 6q26 0 47.5 -14.5t33 -37t9 -48.5t-25.5 -50l-208 -209l-2 -2q-28 -26 -62 -26q-37 0 -64 27l-208 210q-24 24 -26.5 50t9 48.5t33.5 37t47 14.5q15 0 30.5 -6
t29.5 -20l148 -148z" />
    <glyph glyph-name="Dcroat" unicode="&#x110;" horiz-adv-x="1244" 
d="M-46 642q0 39 26.5 65t64.5 26h76v440q0 23 8.5 42.5t23 34t34.5 22.5t42 8h345q88 0 169.5 -23t152.5 -65t130 -101t100.5 -130t64.5 -153t23 -170q0 -132 -50.5 -248t-137.5 -203t-203.5 -137t-248.5 -50h-345q-22 0 -42 8.5t-34.5 22.5t-23 34t-8.5 42v440h-76
q-19 0 -35.5 7.5t-29 20.5t-19.5 30.5t-7 36.5zM447 733q20 0 36.5 -7t29.5 -19.5t20 -29t7 -34.5q0 -19 -7 -36.5t-20 -31t-29.5 -21t-36.5 -7.5h-109v-327h241q89 0 166 34t134 91t89.5 132.5t32.5 158.5q0 84 -32.5 160.5t-89.5 135.5t-134 94t-166 35h-241v-328h109z
" />
    <glyph glyph-name="uni0394" unicode="&#x394;" horiz-adv-x="1154" 
d="M1138 111q0 -23 -8 -43.5t-23 -35.5t-34.5 -23.5t-42.5 -8.5h-4h-902q-30 0 -55 14l-5 3q-34 22 -45.5 61.5t4.5 78.5l451 1058q8 20 23.5 34t34.5 22l2 1q13 5 23 6q8 2 13 2h9q7 0 15 -2q27 -4 50 -20t34 -43l451 -1058q8 -21 9 -42v-4zM870 217l-294 688l-294 -688
h588z" />
    <glyph glyph-name="E" unicode="E" horiz-adv-x="1097" 
d="M221 0q-43 4 -71.5 33.5t-28.5 74.5v1063q0 23 8.5 43t23 34.5t34.5 23t43 8.5h700q23 0 42.5 -8.5t33.5 -23t22.5 -34.5t8.5 -43q0 -22 -8.5 -42t-22.5 -34.5t-33.5 -23t-42.5 -8.5h-592v-298h463q23 0 42.5 -8.5t34 -23.5t23 -35t8.5 -43q0 -22 -8.5 -41.5t-23 -34
t-34 -22.5t-42.5 -8h-463v-332h592q23 0 42.5 -8.5t33.5 -23.5t22.5 -35t8.5 -43q0 -47 -30.5 -77t-76.5 -30h-709z" />
    <glyph glyph-name="Eacute" unicode="&#xc9;" horiz-adv-x="1097" 
d="M221 0q-43 4 -71.5 33.5t-28.5 74.5v1063q0 23 8.5 43t23 34.5t34.5 23t43 8.5h700q23 0 42.5 -8.5t33.5 -23t22.5 -34.5t8.5 -43q0 -22 -8.5 -42t-22.5 -34.5t-33.5 -23t-42.5 -8.5h-592v-298h463q23 0 42.5 -8.5t34 -23.5t23 -35t8.5 -43q0 -22 -8.5 -41.5t-23 -34
t-34 -22.5t-42.5 -8h-463v-332h592q23 0 42.5 -8.5t33.5 -23.5t22.5 -35t8.5 -43q0 -47 -30.5 -77t-76.5 -30h-709zM651 1422q-17 -17 -37.5 -25t-40.5 -8q-44 0 -76 32q-16 16 -24.5 36t-8.5 41t8.5 41.5t24.5 36.5l126 127q16 17 36 24.5t41 7.5t41.5 -8t36.5 -24
q17 -16 25 -36t8 -40.5t-8.5 -40.5t-24.5 -36z" />
    <glyph glyph-name="Ebreve" unicode="&#x114;" horiz-adv-x="1097" 
d="M221 0q-43 4 -71.5 33.5t-28.5 74.5v1063q0 23 8.5 43t23 34.5t34.5 23t43 8.5h700q23 0 42.5 -8.5t33.5 -23t22.5 -34.5t8.5 -43q0 -22 -8.5 -42t-22.5 -34.5t-33.5 -23t-42.5 -8.5h-592v-298h463q23 0 42.5 -8.5t34 -23.5t23 -35t8.5 -43q0 -22 -8.5 -41.5t-23 -34
t-34 -22.5t-42.5 -8h-463v-332h592q23 0 42.5 -8.5t33.5 -23.5t22.5 -35t8.5 -43q0 -47 -30.5 -77t-76.5 -30h-709zM670 1612q0 32 21 54t53 22t53 -22t21 -54q0 -47 -18 -89t-49.5 -73t-73 -49t-89.5 -18t-90 18t-73.5 49t-49.5 73t-18 89q0 32 22 54t52 22q32 0 54 -22
t22 -54v-3q1 -32 24 -55.5t57 -23.5q17 0 31.5 6.5t25.5 17t17.5 24.5t7.5 30v4z" />
    <glyph glyph-name="Ecaron" unicode="&#x11a;" horiz-adv-x="1097" 
d="M221 0q-43 4 -71.5 33.5t-28.5 74.5v1063q0 23 8.5 43t23 34.5t34.5 23t43 8.5h700q23 0 42.5 -8.5t33.5 -23t22.5 -34.5t8.5 -43q0 -22 -8.5 -42t-22.5 -34.5t-33.5 -23t-42.5 -8.5h-592v-298h463q23 0 42.5 -8.5t34 -23.5t23 -35t8.5 -43q0 -22 -8.5 -41.5t-23 -34
t-34 -22.5t-42.5 -8h-463v-332h592q23 0 42.5 -8.5t33.5 -23.5t22.5 -35t8.5 -43q0 -47 -30.5 -77t-76.5 -30h-709zM753 1744q14 14 29.5 20t30.5 6q26 0 47.5 -14.5t33 -37t9 -48.5t-25.5 -50l-208 -209l-2 -2q-28 -26 -62 -26q-37 0 -64 27l-208 210q-24 24 -26.5 50
t9 48.5t33.5 37t47 14.5q15 0 30.5 -6t29.5 -20l148 -148z" />
    <glyph glyph-name="Ecircumflex" unicode="&#xca;" horiz-adv-x="1097" 
d="M221 0q-43 4 -71.5 33.5t-28.5 74.5v1063q0 23 8.5 43t23 34.5t34.5 23t43 8.5h700q23 0 42.5 -8.5t33.5 -23t22.5 -34.5t8.5 -43q0 -22 -8.5 -42t-22.5 -34.5t-33.5 -23t-42.5 -8.5h-592v-298h463q23 0 42.5 -8.5t34 -23.5t23 -35t8.5 -43q0 -22 -8.5 -41.5t-23 -34
t-34 -22.5t-42.5 -8h-463v-332h592q23 0 42.5 -8.5t33.5 -23.5t22.5 -35t8.5 -43q0 -47 -30.5 -77t-76.5 -30h-709zM733 1410.09q14 -13.999 29.5 -19.999t30.5 -6q26 0 47.5 14.499t33 36.998t9 48.4971t-25.5 49.9971l-208 208.987l-2 2q-28 25.998 -62 25.998
q-37 0 -64 -26.998l-208 -209.987q-24 -23.999 -26.5 -49.9971t9 -48.4971t33.5 -36.998t47 -14.499q15 0 30.5 6t29.5 19.999l148 147.99z" />
    <glyph glyph-name="Edieresis" unicode="&#xcb;" horiz-adv-x="1097" 
d="M221 0q-43 4 -71.5 33.5t-28.5 74.5v1063q0 23 8.5 43t23 34.5t34.5 23t43 8.5h700q23 0 42.5 -8.5t33.5 -23t22.5 -34.5t8.5 -43q0 -22 -8.5 -42t-22.5 -34.5t-33.5 -23t-42.5 -8.5h-592v-298h463q23 0 42.5 -8.5t34 -23.5t23 -35t8.5 -43q0 -22 -8.5 -41.5t-23 -34
t-34 -22.5t-42.5 -8h-463v-332h592q23 0 42.5 -8.5t33.5 -23.5t22.5 -35t8.5 -43q0 -47 -30.5 -77t-76.5 -30h-709zM638 1514q0 24 9.5 46t26 38.5t38.5 26t46 9.5q25 0 47 -9.5t38 -26t25.5 -38.5t9.5 -46q0 -25 -9.5 -47t-25.5 -38t-38 -25.5t-47 -9.5q-24 0 -46 9.5
t-38.5 25.5t-26 38t-9.5 47zM260 1514q0 24 9.5 46t25.5 38.5t38 26t47 9.5q24 0 46 -9.5t38.5 -26t26 -38.5t9.5 -46q0 -25 -9.5 -47t-26 -38t-38.5 -25.5t-46 -9.5q-25 0 -47 9.5t-38 25.5t-25.5 38t-9.5 47z" />
    <glyph glyph-name="Edotaccent" unicode="&#x116;" horiz-adv-x="1097" 
d="M221 0q-43 4 -71.5 33.5t-28.5 74.5v1063q0 23 8.5 43t23 34.5t34.5 23t43 8.5h700q23 0 42.5 -8.5t33.5 -23t22.5 -34.5t8.5 -43q0 -22 -8.5 -42t-22.5 -34.5t-33.5 -23t-42.5 -8.5h-592v-298h463q23 0 42.5 -8.5t34 -23.5t23 -35t8.5 -43q0 -22 -8.5 -41.5t-23 -34
t-34 -22.5t-42.5 -8h-463v-332h592q23 0 42.5 -8.5t33.5 -23.5t22.5 -35t8.5 -43q0 -47 -30.5 -77t-76.5 -30h-709zM462 1523q0 26 10 49.5t27.5 41t41 27.5t49.5 10t49.5 -10t41 -27.5t27.5 -41t10 -49.5t-10 -49.5t-27.5 -41t-41 -27.5t-49.5 -10t-49.5 10t-41 27.5
t-27.5 41t-10 49.5z" />
    <glyph glyph-name="Egrave" unicode="&#xc8;" horiz-adv-x="1097" 
d="M221 0q-43 4 -71.5 33.5t-28.5 74.5v1063q0 23 8.5 43t23 34.5t34.5 23t43 8.5h700q23 0 42.5 -8.5t33.5 -23t22.5 -34.5t8.5 -43q0 -22 -8.5 -42t-22.5 -34.5t-33.5 -23t-42.5 -8.5h-592v-298h463q23 0 42.5 -8.5t34 -23.5t23 -35t8.5 -43q0 -22 -8.5 -41.5t-23 -34
t-34 -22.5t-42.5 -8h-463v-332h592q23 0 42.5 -8.5t33.5 -23.5t22.5 -35t8.5 -43q0 -47 -30.5 -77t-76.5 -30h-709zM538.015 1422q16.999 -17 37.4971 -25q20.499 -8 40.498 -8q43.9971 0 75.9951 32q15.999 16 24.499 36q8.49902 20 8.49902 41t-8.49902 41.5
q-8.5 20.5 -24.499 36.5l-125.992 127q-15.999 17 -35.998 24.5q-19.998 7.5 -40.9971 7.5t-41.498 -8q-20.498 -8 -36.4971 -24q-16.999 -16 -24.999 -36q-7.99902 -20 -7.99902 -40.5t8.49902 -40.5q8.5 -20 24.499 -36z" />
    <glyph glyph-name="Emacron" unicode="&#x112;" horiz-adv-x="1097" 
d="M221 0q-43 4 -71.5 33.5t-28.5 74.5v1063q0 23 8.5 43t23 34.5t34.5 23t43 8.5h700q23 0 42.5 -8.5t33.5 -23t22.5 -34.5t8.5 -43q0 -22 -8.5 -42t-22.5 -34.5t-33.5 -23t-42.5 -8.5h-592v-298h463q23 0 42.5 -8.5t34 -23.5t23 -35t8.5 -43q0 -22 -8.5 -41.5t-23 -34
t-34 -22.5t-42.5 -8h-463v-332h592q23 0 42.5 -8.5t33.5 -23.5t22.5 -35t8.5 -43q0 -47 -30.5 -77t-76.5 -30h-709zM756 1565q40 0 67 -27t27 -65q0 -40 -27 -68.5t-67 -28.5h-388q-40 0 -66.5 28.5t-26.5 68.5q0 39 26.5 65.5t66.5 26.5h388z" />
    <glyph glyph-name="Eng" unicode="&#x14a;" horiz-adv-x="1352" 
d="M703 -195q0 22 8 41.5t22.5 34t34 23t42.5 8.5h4q30 0 55.5 8.5t44.5 23.5t29 37t10 49v39l-615 793v-752q0 -47 -29.5 -78.5t-76.5 -31.5q-23 0 -43 8.5t-35 23.5t-24 35t-9 43v1056q0 35 20 63q14 24 39 37.5t53 13.5q25 0 48 -11t40 -32l632 -812v741q0 47 30 78.5
t77 31.5t78.5 -31.5t31.5 -78.5v-1138q0 -68 -27 -128t-74 -105t-108.5 -71t-130.5 -26h-20q-47 0 -77 30t-30 77z" />
    <glyph glyph-name="Eogonek" unicode="&#x118;" horiz-adv-x="1097" 
d="M221 0q-43 4 -71.5 33.5t-28.5 74.5v1063q0 23 8.5 43t23 34.5t34.5 23t43 8.5h700q23 0 42.5 -8.5t33.5 -23t22.5 -34.5t8.5 -43q0 -22 -8.5 -42t-22.5 -34.5t-33.5 -23t-42.5 -8.5h-592v-298h463q23 0 42.5 -8.5t34 -23.5t23 -35t8.5 -43q0 -22 -8.5 -41.5t-23 -34
t-34 -22.5t-42.5 -8h-463v-332h592q23 0 42.5 -8.5t33.5 -23.5t22.5 -35t8.5 -43q0 -47 -30.5 -77t-76.5 -30h-709zM1144 -180q-1 -45 -19.5 -84.5t-48.5 -69t-70 -46.5t-85 -17q-46 0 -86 17.5t-70 48t-47 71t-17 86.5q0 48 18 89.5t48 70.5q1 0 1 0.5t1 0.5l138 137
q10 11 30 11q18 0 36.5 -8t29.5 -19q17 -17 17 -40t-17 -41l-138 -136l-9 -7q-21 -24 -21 -57q0 -17 6.5 -32t18 -26.5t26.5 -18t33 -6.5q35 0 58.5 24t24.5 58q0 29 20.5 49t51.5 20q29 0 49.5 -20t20.5 -49v-6z" />
    <glyph glyph-name="Epsilon" unicode="&#x395;" horiz-adv-x="1097" 
d="M221 0q-43 4 -71.5 33.5t-28.5 74.5v1063q0 23 8.5 43t23 34.5t34.5 23t43 8.5h700q23 0 42.5 -8.5t33.5 -23t22.5 -34.5t8.5 -43q0 -22 -8.5 -42t-22.5 -34.5t-33.5 -23t-42.5 -8.5h-592v-298h463q23 0 42.5 -8.5t34 -23.5t23 -35t8.5 -43q0 -22 -8.5 -41.5t-23 -34
t-34 -22.5t-42.5 -8h-463v-332h592q23 0 42.5 -8.5t33.5 -23.5t22.5 -35t8.5 -43q0 -47 -30.5 -77t-76.5 -30h-709z" />
    <glyph glyph-name="Epsilontonos" unicode="&#x388;" horiz-adv-x="1097" 
d="M221 0q-43 4 -71.5 33.5t-28.5 74.5v1063q0 23 8.5 43t23 34.5t34.5 23t43 8.5h700q23 0 42.5 -8.5t33.5 -23t22.5 -34.5t8.5 -43q0 -22 -8.5 -42t-22.5 -34.5t-33.5 -23t-42.5 -8.5h-592v-298h463q23 0 42.5 -8.5t34 -23.5t23 -35t8.5 -43q0 -22 -8.5 -41.5t-23 -34
t-34 -22.5t-42.5 -8h-463v-332h592q23 0 42.5 -8.5t33.5 -23.5t22.5 -35t8.5 -43q0 -47 -30.5 -77t-76.5 -30h-709zM33 973q0 -22 -8.5 -42t-23 -34t-34 -22.5t-41.5 -8.5t-42 8.5t-34.5 22.5t-23 34t-8.5 42v198q0 23 8.5 42.5t23 34.5t34.5 23.5t42 8.5q23 0 42.5 -8.5
t33.5 -23.5t22.5 -34.5t8.5 -42.5v-198z" />
    <glyph glyph-name="Eta" unicode="&#x397;" horiz-adv-x="1352" 
d="M338 747h676v426q0 23 9 42.5t24 33.5t35 22.5t43 8.5t42 -8.5t33.5 -22.5t22.5 -33.5t8 -42.5v-1066q0 -22 -8.5 -42t-23 -34t-34 -22.5t-42.5 -8.5q-22 0 -42 8.5t-35 22.5t-23.5 34t-8.5 42v422h-676v-422q0 -22 -8.5 -42t-23.5 -34t-34.5 -22.5t-42.5 -8.5
q-22 0 -42 8.5t-34.5 22.5t-23 34t-8.5 42v1066q0 23 8.5 42.5t23 33.5t34.5 22.5t42 8.5q23 0 42.5 -8.5t34.5 -22.5t23.5 -33.5t8.5 -42.5v-426z" />
    <glyph glyph-name="Etatonos" unicode="&#x389;" horiz-adv-x="1352" 
d="M338 747h676v426q0 23 9 42.5t24 33.5t35 22.5t43 8.5t42 -8.5t33.5 -22.5t22.5 -33.5t8 -42.5v-1066q0 -22 -8.5 -42t-23 -34t-34 -22.5t-42.5 -8.5q-22 0 -42 8.5t-35 22.5t-23.5 34t-8.5 42v422h-676v-422q0 -22 -8.5 -42t-23.5 -34t-34.5 -22.5t-42.5 -8.5
q-22 0 -42 8.5t-34.5 22.5t-23 34t-8.5 42v1066q0 23 8.5 42.5t23 33.5t34.5 22.5t42 8.5q23 0 42.5 -8.5t34.5 -22.5t23.5 -33.5t8.5 -42.5v-426zM39 973q0 -22 -8.5 -42t-23 -34t-34 -22.5t-41.5 -8.5t-42 8.5t-34.5 22.5t-23 34t-8.5 42v198q0 23 8.5 42.5t23 34.5
t34.5 23.5t42 8.5q23 0 42.5 -8.5t33.5 -23.5t22.5 -34.5t8.5 -42.5v-198z" />
    <glyph glyph-name="Eth" unicode="&#xd0;" horiz-adv-x="1244" 
d="M-51 642q0 39 26 65t65 26h75v440q0 23 8.5 42.5t23.5 34t35 22.5t42 8h350q88 0 169.5 -23t152.5 -65t130 -101t100.5 -130t64.5 -153t23 -170q0 -132 -50.5 -248t-137.5 -203t-203.5 -137t-248.5 -50h-350q-22 0 -42 8.5t-35 22.5t-23.5 34t-8.5 42v440h-75
q-19 0 -36 7.5t-29 20.5t-19 30.5t-7 36.5zM447 733q20 0 36.5 -7t29.5 -19.5t20 -29t7 -34.5q0 -19 -7 -36.5t-20 -31t-29.5 -21t-36.5 -7.5h-115v-327h247q89 0 166 34t134 91t89.5 132.5t32.5 158.5q0 84 -32.5 160.5t-89.5 135.5t-134 94t-166 35h-247v-328h115z" />
    <glyph glyph-name="Euro" unicode="&#x20ac;" horiz-adv-x="1044" 
d="M135 830q8 97 51 180.5t111.5 145t157 96.5t187.5 35q56 0 107.5 -12t96 -34t81.5 -53.5t64 -70.5q28 -42 23.5 -88.5t-43.5 -77.5q-31 -24 -67 -24q-55 0 -91 48q-21 23 -39.5 39.5t-39 28t-46.5 17t-62 5.5q-49 0 -94.5 -18t-81.5 -49.5t-61 -74.5t-33 -93h263
q18 0 32 -8t24.5 -20t16 -26.5t5.5 -28.5t-5.5 -28.5t-16 -26t-25 -19t-32.5 -7.5h-525q-16 0 -29.5 8t-23.5 20t-15 26.5t-5 28.5q0 13 5 27.5t14.5 26.5t22.5 19.5t29 7.5h44zM621 587q17 0 31 -8t24 -20t15.5 -26.5t5.5 -28.5t-5.5 -28.5t-15.5 -26t-24.5 -19t-31.5 -7.5
h-259q11 -46 36.5 -85t60.5 -67.5t78 -44.5t90 -16q36 0 62 6t46.5 17t38.5 28.5t39 39.5q17 24 41 36.5t50 12.5q35 0 68 -24q39 -31 42.5 -77.5t-23.5 -88.5q-27 -39 -64 -70.5t-81.5 -54t-95.5 -35t-107 -12.5q-96 0 -182.5 33t-153.5 91.5t-111.5 138t-56.5 172.5h-43
q-17 0 -31 8t-23.5 20t-15 26.5t-5.5 28.5q0 13 5.5 27.5t15 26.5t23.5 19.5t31 7.5h526z" />
    <glyph glyph-name="F" unicode="F" horiz-adv-x="1025" 
d="M900 1280q23 0 42.5 -8.5t33.5 -23t22.5 -34.5t8.5 -43q0 -22 -8.5 -42t-22.5 -34.5t-33.5 -23t-42.5 -8.5h-562v-357h427q23 0 42.5 -9t34 -24.5t23 -35.5t8.5 -43q0 -22 -8.5 -41.5t-23 -33.5t-34 -22t-42.5 -8h-427v-382q0 -23 -8.5 -42.5t-23.5 -34t-34.5 -22.5
t-42.5 -8t-42.5 8.5t-34 22.5t-23 34t-8.5 42v1069q0 17 6 35.5t19 33.5t33 25t50 10h671z" />
    <glyph glyph-name="G" unicode="G" horiz-adv-x="1302" 
d="M1159 1096q16 -15 24 -35t8 -40t-8 -40t-24 -35q-33 -33 -79 -33q-42 0 -74 30q-66 65 -145.5 97t-164.5 32q-87 0 -165 -33.5t-137 -92t-93.5 -137.5t-34.5 -171q0 -87 32.5 -165t90 -137.5t135.5 -95t169 -35.5q82 0 153 21t135 75v141h-151q-22 0 -42 9t-34 24
t-22.5 35t-8.5 42t8.5 41.5t22.5 34t34 23t42 8.5h259q23 0 43 -8.5t35 -22.5t23.5 -33.5t8.5 -42.5v-299q0 -26 -10 -45t-26 -36q-111 -99 -230 -142t-246 -42q-86 0 -166.5 23.5t-151.5 65.5t-130 101t-101 131t-65.5 155t-23.5 173q0 133 49.5 251.5t136.5 207.5
t204.5 141t253.5 52t252.5 -48.5t213.5 -144.5z" />
    <glyph glyph-name="G.alt" horiz-adv-x="1252" 
d="M1149 1096q16 -15 24 -35t8 -40t-8 -40t-24 -35q-33 -33 -79 -33q-42 0 -74 30q-66 65 -145.5 97t-164.5 32q-87 0 -165 -33.5t-137 -92t-93.5 -137.5t-34.5 -171q0 -87 32.5 -165t90 -137.5t136 -95t169.5 -35.5q81 0 152.5 21.5t134.5 74.5v246q0 19 6 39t19 36
t33.5 26.5t50.5 10.5q23 0 42.5 -8t34.5 -22.5t23.5 -34t8.5 -42.5v-299q0 -26 -10 -45t-26 -36q-111 -99 -230 -142t-246 -42q-86 0 -166.5 23.5t-151.5 65.5t-130 101t-101 131t-65.5 155t-23.5 173q0 133 49.5 251.5t136.5 207.5t205 141t254 52q135 0 251.5 -48.5
t213.5 -144.5z" />
    <glyph glyph-name="Gamma" unicode="&#x393;" horiz-adv-x="1002" 
d="M888 1280q23 0 43.5 -9t35.5 -24t23.5 -35.5t8.5 -43.5q0 -47 -32 -76t-79 -29h-556v-953q0 -47 -29 -79.5t-76 -32.5q-23 0 -43.5 9t-35.5 24t-24 35.5t-9 43.5v1058q0 23 8.5 42.5t22.5 34.5t34 24.5t42 10.5h5h661z" />
    <glyph glyph-name="Gbreve" unicode="&#x11e;" horiz-adv-x="1302" 
d="M1159 1096q16 -15 24 -35t8 -40t-8 -40t-24 -35q-33 -33 -79 -33q-42 0 -74 30q-66 65 -145.5 97t-164.5 32q-87 0 -165 -33.5t-137 -92t-93.5 -137.5t-34.5 -171q0 -87 32.5 -165t90 -137.5t135.5 -95t169 -35.5q82 0 153 21t135 75v141h-151q-22 0 -42 9t-34 24
t-22.5 35t-8.5 42t8.5 41.5t22.5 34t34 23t42 8.5h259q23 0 43 -8.5t35 -22.5t23.5 -33.5t8.5 -42.5v-299q0 -26 -10 -45t-26 -36q-111 -99 -230 -142t-246 -42q-86 0 -166.5 23.5t-151.5 65.5t-130 101t-101 131t-65.5 155t-23.5 173q0 133 49.5 251.5t136.5 207.5
t204.5 141t253.5 52t252.5 -48.5t213.5 -144.5zM791 1610q0 32 21 54t53 22t53 -22t21 -54q0 -47 -18 -89t-49.5 -73t-73 -49t-89.5 -18t-90 18t-73.5 49t-49.5 73t-18 89q0 32 22 54t52 22q32 0 54 -22t22 -54v-3q1 -32 24 -55.5t57 -23.5q17 0 31.5 6.5t25.5 17t17.5 24.5
t7.5 30v4z" />
    <glyph glyph-name="Gcircumflex" unicode="&#x11c;" horiz-adv-x="1302" 
d="M1159 1096q16 -15 24 -35t8 -40t-8 -40t-24 -35q-33 -33 -79 -33q-42 0 -74 30q-66 65 -145.5 97t-164.5 32q-87 0 -165 -33.5t-137 -92t-93.5 -137.5t-34.5 -171q0 -87 32.5 -165t90 -137.5t135.5 -95t169 -35.5q82 0 153 21t135 75v141h-151q-22 0 -42 9t-34 24
t-22.5 35t-8.5 42t8.5 41.5t22.5 34t34 23t42 8.5h259q23 0 43 -8.5t35 -22.5t23.5 -33.5t8.5 -42.5v-299q0 -26 -10 -45t-26 -36q-111 -99 -230 -142t-246 -42q-86 0 -166.5 23.5t-151.5 65.5t-130 101t-101 131t-65.5 155t-23.5 173q0 133 49.5 251.5t136.5 207.5
t204.5 141t253.5 52t252.5 -48.5t213.5 -144.5zM844 1411.09q14 -13.999 29.5 -19.999t30.5 -6q26 0 47.5 14.499t33 36.998t9 48.4971t-25.5 49.9971l-208 208.987l-2 2q-28 25.998 -62 25.998q-37 0 -64 -26.998l-208 -209.987q-24 -23.999 -26.5 -49.9971t9 -48.4971
t33.5 -36.998t47 -14.499q15 0 30.5 6t29.5 19.999l148 147.99z" />
    <glyph glyph-name="uni0122" unicode="&#x122;" horiz-adv-x="1302" 
d="M1159 1096q16 -15 24 -35t8 -40t-8 -40t-24 -35q-33 -33 -79 -33q-42 0 -74 30q-66 65 -145.5 97t-164.5 32q-87 0 -165 -33.5t-137 -92t-93.5 -137.5t-34.5 -171q0 -87 32.5 -165t90 -137.5t135.5 -95t169 -35.5q82 0 153 21t135 75v141h-151q-22 0 -42 9t-34 24
t-22.5 35t-8.5 42t8.5 41.5t22.5 34t34 23t42 8.5h259q23 0 43 -8.5t35 -22.5t23.5 -33.5t8.5 -42.5v-299q0 -26 -10 -45t-26 -36q-111 -99 -230 -142t-246 -42q-86 0 -166.5 23.5t-151.5 65.5t-130 101t-101 131t-65.5 155t-23.5 173q0 133 49.5 251.5t136.5 207.5
t204.5 141t253.5 52t252.5 -48.5t213.5 -144.5zM783 -487q0 -23 -8.5 -42.5t-22.5 -34t-33.5 -23t-42.5 -8.5q-22 0 -42 8.5t-35 23t-23.5 34t-8.5 42.5v272q0 22 9 42t24 34t35 22.5t43 8.5q22 0 41 -8.5t33.5 -22.5t22.5 -34t8 -42v-272z" />
    <glyph glyph-name="Gdotaccent" unicode="&#x120;" horiz-adv-x="1302" 
d="M1159 1096q16 -15 24 -35t8 -40t-8 -40t-24 -35q-33 -33 -79 -33q-42 0 -74 30q-66 65 -145.5 97t-164.5 32q-87 0 -165 -33.5t-137 -92t-93.5 -137.5t-34.5 -171q0 -87 32.5 -165t90 -137.5t135.5 -95t169 -35.5q82 0 153 21t135 75v141h-151q-22 0 -42 9t-34 24
t-22.5 35t-8.5 42t8.5 41.5t22.5 34t34 23t42 8.5h259q23 0 43 -8.5t35 -22.5t23.5 -33.5t8.5 -42.5v-299q0 -26 -10 -45t-26 -36q-111 -99 -230 -142t-246 -42q-86 0 -166.5 23.5t-151.5 65.5t-130 101t-101 131t-65.5 155t-23.5 173q0 133 49.5 251.5t136.5 207.5
t204.5 141t253.5 52t252.5 -48.5t213.5 -144.5zM576 1526q0 26 10 49.5t27.5 41t41 27.5t49.5 10t49.5 -10t41 -27.5t27.5 -41t10 -49.5t-10 -49.5t-27.5 -41t-41 -27.5t-49.5 -10t-49.5 10t-41 27.5t-27.5 41t-10 49.5z" />
    <glyph glyph-name="H" unicode="H" horiz-adv-x="1352" 
d="M338 747h676v426q0 23 9 42.5t24 33.5t35 22.5t43 8.5t42 -8.5t33.5 -22.5t22.5 -33.5t8 -42.5v-1066q0 -22 -8.5 -42t-23 -34t-34 -22.5t-42.5 -8.5q-22 0 -42 8.5t-35 22.5t-23.5 34t-8.5 42v422h-676v-422q0 -22 -8.5 -42t-23.5 -34t-34.5 -22.5t-42.5 -8.5
q-22 0 -42 8.5t-34.5 22.5t-23 34t-8.5 42v1066q0 23 8.5 42.5t23 33.5t34.5 22.5t42 8.5q23 0 42.5 -8.5t34.5 -22.5t23.5 -33.5t8.5 -42.5v-426z" />
    <glyph glyph-name="Hbar" unicode="&#x126;" horiz-adv-x="1352" 
d="M229 1280q23 0 42.5 -8.5t34.5 -22.5t23.5 -33.5t8.5 -42.5v-94l676 -2v96q0 23 9 42.5t24 33.5t35 22.5t43 8.5t42 -8.5t33.5 -22.5t22.5 -33.5t8 -42.5v-1066q0 -22 -8.5 -42t-23 -34t-34 -22.5t-42.5 -8.5q-22 0 -42 8.5t-35 22.5t-23.5 34t-8.5 42v422h-676v-422
q0 -22 -8.5 -42t-23.5 -34t-34.5 -22.5t-42.5 -8.5q-22 0 -42 8.5t-34.5 22.5t-23 34t-8.5 42v1066q0 23 8.5 42.5t23 33.5t34.5 22.5t42 8.5zM338 884v-137h676v137h-676z" />
    <glyph glyph-name="Hcircumflex" unicode="&#x124;" horiz-adv-x="1352" 
d="M338 747h676v426q0 23 9 42.5t24 33.5t35 22.5t43 8.5t42 -8.5t33.5 -22.5t22.5 -33.5t8 -42.5v-1066q0 -22 -8.5 -42t-23 -34t-34 -22.5t-42.5 -8.5q-22 0 -42 8.5t-35 22.5t-23.5 34t-8.5 42v422h-676v-422q0 -22 -8.5 -42t-23.5 -34t-34.5 -22.5t-42.5 -8.5
q-22 0 -42 8.5t-34.5 22.5t-23 34t-8.5 42v1066q0 23 8.5 42.5t23 33.5t34.5 22.5t42 8.5q23 0 42.5 -8.5t34.5 -22.5t23.5 -33.5t8.5 -42.5v-426zM844 1408.09q14 -13.999 29.5 -19.999t30.5 -6q26 0 47.5 14.499t33 36.998t9 48.4971t-25.5 49.9971l-208 208.987l-2 2
q-28 25.998 -62 25.998q-37 0 -64 -26.998l-208 -209.987q-24 -23.999 -26.5 -49.9971t9 -48.4971t33.5 -36.998t47 -14.499q15 0 30.5 6t29.5 19.999l148 147.99z" />
    <glyph glyph-name="I" unicode="I" horiz-adv-x="458" 
d="M338 107q0 -22 -8.5 -42t-23.5 -34t-34.5 -22.5t-42.5 -8.5q-22 0 -42 8.5t-34.5 22.5t-23 34t-8.5 42v1066q0 23 8.5 42.5t23 34t34.5 22.5t42 8q23 0 42.5 -8t34.5 -22.5t23.5 -34t8.5 -42.5v-1066z" />
    <glyph glyph-name="IJ" unicode="&#x132;" horiz-adv-x="951" 
d="M338 107q0 -22 -8.5 -42t-23.5 -34t-34.5 -22.5t-42.5 -8.5q-22 0 -42 8.5t-34.5 22.5t-23 34t-8.5 42v1066q0 23 8.5 42.5t23 34t34.5 22.5t42 8q23 0 42.5 -8t34.5 -22.5t23.5 -34t8.5 -42.5v-1066zM396 -354q-38 0 -63 15.5t-38 39t-13.5 51.5t11.5 52t36.5 40.5
t61.5 18.5q46 1 87 19.5t71 48.5t47 70.5t17 86.5v1080q0 23 8 43.5t22.5 35.5t34.5 24t43 9q48 0 78.5 -32.5t30.5 -79.5v-1088q0 -90 -34 -169t-92.5 -138t-138 -93t-169.5 -34z" />
    <glyph glyph-name="Iacute" unicode="&#xcd;" horiz-adv-x="458" 
d="M338 107q0 -22 -8.5 -42t-23.5 -34t-34.5 -22.5t-42.5 -8.5q-22 0 -42 8.5t-34.5 22.5t-23 34t-8.5 42v1066q0 23 8.5 42.5t23 34t34.5 22.5t42 8q23 0 42.5 -8t34.5 -22.5t23.5 -34t8.5 -42.5v-1066zM321 1419q-17 -17 -37.5 -25t-40.5 -8q-44 0 -76 32q-16 16 -24.5 36
t-8.5 41t8.5 41.5t24.5 36.5l126 127q16 17 36 24.5t41 7.5t41.5 -8t36.5 -24q17 -16 25 -36t8 -40.5t-8.5 -40.5t-24.5 -36z" />
    <glyph glyph-name="Ibreve" unicode="&#x12c;" horiz-adv-x="458" 
d="M338 107q0 -22 -8.5 -42t-23.5 -34t-34.5 -22.5t-42.5 -8.5q-22 0 -42 8.5t-34.5 22.5t-23 34t-8.5 42v1066q0 23 8.5 42.5t23 34t34.5 22.5t42 8q23 0 42.5 -8t34.5 -22.5t23.5 -34t8.5 -42.5v-1066zM311 1614q0 32 21 54t53 22t53 -22t21 -54q0 -47 -18 -89t-49.5 -73
t-73 -49t-89.5 -18t-90 18t-73.5 49t-49.5 73t-18 89q0 32 22 54t52 22q32 0 54 -22t22 -54v-3q1 -32 24 -55.5t57 -23.5q17 0 31.5 6.5t25.5 17t17.5 24.5t7.5 30v4z" />
    <glyph glyph-name="Icircumflex" unicode="&#xce;" horiz-adv-x="458" 
d="M338 107q0 -22 -8.5 -42t-23.5 -34t-34.5 -22.5t-42.5 -8.5q-22 0 -42 8.5t-34.5 22.5t-23 34t-8.5 42v1066q0 23 8.5 42.5t23 34t34.5 22.5t42 8q23 0 42.5 -8t34.5 -22.5t23.5 -34t8.5 -42.5v-1066zM381 1400.09q14 -13.999 29.5 -19.999t30.5 -6q26 0 47.5 14.499
t33 36.998t9 48.4971t-25.5 49.9971l-208 208.987l-2 2q-28 25.998 -62 25.998q-37 0 -64 -26.998l-208 -209.987q-24 -23.999 -26.5 -49.9971t9 -48.4971t33.5 -36.998t47 -14.499q15 0 30.5 6t29.5 19.999l148 147.99z" />
    <glyph glyph-name="Idieresis" unicode="&#xcf;" horiz-adv-x="458" 
d="M338 107q0 -22 -8.5 -42t-23.5 -34t-34.5 -22.5t-42.5 -8.5q-22 0 -42 8.5t-34.5 22.5t-23 34t-8.5 42v1066q0 23 8.5 42.5t23 34t34.5 22.5t42 8q23 0 42.5 -8t34.5 -22.5t23.5 -34t8.5 -42.5v-1066zM303 1507q0 24 9.5 46t26 38.5t38.5 26t46 9.5q25 0 47 -9.5t38 -26
t25.5 -38.5t9.5 -46q0 -25 -9.5 -47t-25.5 -38t-38 -25.5t-47 -9.5q-24 0 -46 9.5t-38.5 25.5t-26 38t-9.5 47zM-75 1507q0 24 9.5 46t25.5 38.5t38 26t47 9.5q24 0 46 -9.5t38.5 -26t26 -38.5t9.5 -46q0 -25 -9.5 -47t-26 -38t-38.5 -25.5t-46 -9.5q-25 0 -47 9.5t-38 25.5
t-25.5 38t-9.5 47z" />
    <glyph glyph-name="Idotaccent" unicode="&#x130;" horiz-adv-x="458" 
d="M338 107q0 -22 -8.5 -42t-23.5 -34t-34.5 -22.5t-42.5 -8.5q-22 0 -42 8.5t-34.5 22.5t-23 34t-8.5 42v1066q0 23 8.5 42.5t23 34t34.5 22.5t42 8q23 0 42.5 -8t34.5 -22.5t23.5 -34t8.5 -42.5v-1066zM102 1514q0 26 10 49.5t27.5 41t41 27.5t49.5 10t49.5 -10t41 -27.5
t27.5 -41t10 -49.5t-10 -49.5t-27.5 -41t-41 -27.5t-49.5 -10t-49.5 10t-41 27.5t-27.5 41t-10 49.5z" />
    <glyph glyph-name="Igrave" unicode="&#xcc;" horiz-adv-x="458" 
d="M338 107q0 -22 -8.5 -42t-23.5 -34t-34.5 -22.5t-42.5 -8.5q-22 0 -42 8.5t-34.5 22.5t-23 34t-8.5 42v1066q0 23 8.5 42.5t23 34t34.5 22.5t42 8q23 0 42.5 -8t34.5 -22.5t23.5 -34t8.5 -42.5v-1066zM178.015 1414q16.999 -17 37.4971 -25q20.499 -8 40.498 -8
q43.9971 0 75.9951 32q15.999 16 24.499 36q8.49902 20 8.49902 41t-8.49902 41.5q-8.5 20.5 -24.499 36.5l-125.992 127q-15.999 17 -35.998 24.5q-19.998 7.5 -40.9971 7.5t-41.498 -8q-20.498 -8 -36.4971 -24q-16.999 -16 -24.999 -36q-7.99902 -20 -7.99902 -40.5
t8.49902 -40.5q8.5 -20 24.499 -36z" />
    <glyph glyph-name="Imacron" unicode="&#x12a;" horiz-adv-x="458" 
d="M338 107q0 -22 -8.5 -42t-23.5 -34t-34.5 -22.5t-42.5 -8.5q-22 0 -42 8.5t-34.5 22.5t-23 34t-8.5 42v1066q0 23 8.5 42.5t23 34t34.5 22.5t42 8q23 0 42.5 -8t34.5 -22.5t23.5 -34t8.5 -42.5v-1066zM424 1562q40 0 67 -27t27 -65q0 -40 -27 -68.5t-67 -28.5h-388
q-40 0 -66.5 28.5t-26.5 68.5q0 39 26.5 65.5t66.5 26.5h388z" />
    <glyph glyph-name="Iogonek" unicode="&#x12e;" horiz-adv-x="458" 
d="M338 107q0 -22 -8.5 -42t-23.5 -34t-34.5 -22.5t-42.5 -8.5q-22 0 -42 8.5t-34.5 22.5t-23 34t-8.5 42v1066q0 23 8.5 42.5t23 34t34.5 22.5t42 8q23 0 42.5 -8t34.5 -22.5t23.5 -34t8.5 -42.5v-1066zM447 -175q-1 -45 -19.5 -84.5t-48.5 -69t-70 -46.5t-85 -17
q-46 0 -86 17.5t-70 48t-47 71t-17 86.5q0 48 18 89.5t48 70.5q1 0 1 0.5t1 0.5l138 137q10 11 30 11q18 0 36.5 -8t29.5 -19q17 -17 17 -40t-17 -41l-138 -136l-9 -7q-21 -24 -21 -57q0 -17 6.5 -32t18 -26.5t26.5 -18t33 -6.5q35 0 58.5 24t24.5 58q0 29 20.5 49t51.5 20
q29 0 49.5 -20t20.5 -49v-6z" />
    <glyph glyph-name="Iotatonos" unicode="&#x38a;" horiz-adv-x="458" 
d="M338 107q0 -22 -8.5 -42t-23.5 -34t-34.5 -22.5t-42.5 -8.5q-22 0 -42 8.5t-34.5 22.5t-23 34t-8.5 42v1066q0 23 8.5 42.5t23 34t34.5 22.5t42 8q23 0 42.5 -8t34.5 -22.5t23.5 -34t8.5 -42.5v-1066zM60 974q0 -22 -8.5 -42t-23 -34t-34 -22.5t-41.5 -8.5t-42 8.5
t-34.5 22.5t-23 34t-8.5 42v198q0 23 8.5 42.5t23 34.5t34.5 23.5t42 8.5q23 0 42.5 -8.5t33.5 -23.5t22.5 -34.5t8.5 -42.5v-198z" />
    <glyph glyph-name="Itilde" unicode="&#x128;" horiz-adv-x="458" 
d="M338 107q0 -22 -8.5 -42t-23.5 -34t-34.5 -22.5t-42.5 -8.5q-22 0 -42 8.5t-34.5 22.5t-23 34t-8.5 42v1066q0 23 8.5 42.5t23 34t34.5 22.5t42 8q23 0 42.5 -8t34.5 -22.5t23.5 -34t8.5 -42.5v-1066zM-110 1536q7 10 26 30t47 40.5t64.5 35.5t78.5 15q44 0 78.5 -15
t67.5 -41q7 -6 17.5 -14t22.5 -15.5t25.5 -12.5t25.5 -5q47 0 98 68q0 -1 2 -1l1 1q25 23 58 23q17 0 32.5 -6t27.5 -19q23 -25 24 -57t-20 -58q0 -4 -1 -5q-7 -10 -25.5 -30t-46.5 -40.5t-65 -36t-80 -15.5q-42 0 -78.5 17.5t-68.5 41.5q-7 5 -17 12.5t-21.5 14.5t-24.5 12
t-25 5q-43 0 -87 -52q-10 -20 -31.5 -30.5t-42.5 -10.5q-35 0 -61 24q-13 12 -19.5 28.5t-6.5 33.5t6 33t19 29z" />
    <glyph glyph-name="J" unicode="J" horiz-adv-x="459" 
d="M-96 -354q-38 0 -63 15.5t-38 39t-13.5 51.5t11.5 52t36.5 40.5t61.5 18.5q46 1 87 19.5t71 48.5t47 70.5t17 86.5v1080q0 23 8 43.5t22.5 35.5t34.5 24t43 9q48 0 78.5 -32.5t30.5 -79.5v-1088q0 -90 -34 -169t-92.5 -138t-138 -93t-169.5 -34z" />
    <glyph glyph-name="Jcircumflex" unicode="&#x134;" horiz-adv-x="459" 
d="M-96 -354q-38 0 -63 15.5t-38 39t-13.5 51.5t11.5 52t36.5 40.5t61.5 18.5q46 1 87 19.5t71 48.5t47 70.5t17 86.5v1080q0 23 8 43.5t22.5 35.5t34.5 24t43 9q48 0 78.5 -32.5t30.5 -79.5v-1088q0 -90 -34 -169t-92.5 -138t-138 -93t-169.5 -34zM373 1404.09
q14 -13.999 29.5 -19.999t30.5 -6q26 0 47.5 14.499t33 36.998t9 48.4971t-25.5 49.9971l-208 208.987l-2 2q-28 25.998 -62 25.998q-37 0 -64 -26.998l-208 -209.987q-24 -23.999 -26.5 -49.9971t9 -48.4971t33.5 -36.998t47 -14.499q15 0 30.5 6t29.5 19.999l148 147.99z
" />
    <glyph glyph-name="K" unicode="K" horiz-adv-x="1206" 
d="M338 648l633 602q16 15 35 22.5t39 7.5q22 0 42.5 -9t37.5 -26q15 -16 22 -35.5t5.5 -40.5t-10.5 -41t-26 -36l-456 -431l466 -475q17 -17 24.5 -37.5t7.5 -41.5t-8.5 -40.5t-24.5 -35.5t-34.5 -23.5t-38.5 -7.5t-39 8t-35 25l-474 481l-166 -158v-249q0 -22 -8.5 -42
t-23.5 -34t-34.5 -22.5t-42.5 -8.5q-22 0 -42 8.5t-34.5 22.5t-23 34t-8.5 42v1066q0 23 8.5 42.5t23 33.5t34.5 22.5t42 8.5q23 0 42.5 -8.5t34.5 -22.5t23.5 -33.5t8.5 -42.5v-525z" />
    <glyph glyph-name="uni0136" unicode="&#x136;" horiz-adv-x="1210" 
d="M338 648l633 602q16 15 35 22.5t39 7.5q22 0 42.5 -9t37.5 -26q15 -16 22 -35.5t5.5 -40.5t-10.5 -41t-26 -36l-456 -431l466 -475q17 -17 24.5 -37.5t7.5 -41.5t-8.5 -40.5t-24.5 -35.5t-34.5 -23.5t-38.5 -7.5t-39 8t-35 25l-474 481l-166 -158v-249q0 -22 -8.5 -42
t-23.5 -34t-34.5 -22.5t-42.5 -8.5q-22 0 -42 8.5t-34.5 22.5t-23 34t-8.5 42v1066q0 23 8.5 42.5t23 33.5t34.5 22.5t42 8.5q23 0 42.5 -8.5t34.5 -22.5t23.5 -33.5t8.5 -42.5v-525zM711 -406q0 -23 -8.5 -42.5t-22.5 -34t-33.5 -23t-42.5 -8.5q-22 0 -42 8.5t-35 23
t-23.5 34t-8.5 42.5v272q0 22 9 42t24 34t35 22.5t43 8.5q22 0 41 -8.5t33.5 -22.5t22.5 -34t8 -42v-272z" />
    <glyph glyph-name="L" unicode="L" horiz-adv-x="1037" 
d="M338 217l555 -1q23 0 42.5 -8.5t34 -23.5t23 -34.5t8.5 -42.5q0 -47 -31 -77t-77 -30h-664h-11.5t-10.5 2q-4 0 -8 2q-34 9 -56 37t-22 66v1066q0 23 8.5 42.5t23 33.5t34.5 22.5t42 8.5q23 0 42.5 -8.5t34.5 -22.5t23.5 -33.5t8.5 -42.5v-956z" />
    <glyph glyph-name="Lacute" unicode="&#x139;" horiz-adv-x="1045" 
d="M338 217l555 -1q23 0 42.5 -8.5t34 -23.5t23 -34.5t8.5 -42.5q0 -47 -31 -77t-77 -30h-664h-11.5t-10.5 2q-4 0 -8 2q-34 9 -56 37t-22 66v1066q0 23 8.5 42.5t23 33.5t34.5 22.5t42 8.5q23 0 42.5 -8.5t34.5 -22.5t23.5 -33.5t8.5 -42.5v-956zM347 1418
q-17 -17 -37.5 -25t-40.5 -8q-44 0 -76 32q-16 16 -24.5 36t-8.5 41t8.5 41.5t24.5 36.5l126 127q16 17 36 24.5t41 7.5t41.5 -8t36.5 -24q17 -16 25 -36t8 -40.5t-8.5 -40.5t-24.5 -36z" />
    <glyph glyph-name="Lambda" unicode="&#x39b;" horiz-adv-x="1144" 
d="M574 905l-357 -838q-14 -32 -39.5 -49.5t-55.5 -17.5q-23 0 -44 10q-22 9 -37 25.5t-22.5 36t-7 42t9.5 43.5l451 1058q11 27 34 43t50 20q3 1 10 1.5t11 0.5h4q3 0 5.5 -0.5t5.5 -1.5q11 -1 24 -6q1 -1 3 -1q18 -8 33.5 -22t23.5 -34l451 -1058q9 -21 9 -43.5t-7.5 -42
t-22.5 -36t-36 -25.5q-21 -10 -44 -10q-30 0 -55 17.5t-39 49.5z" />
    <glyph glyph-name="Lcaron" unicode="&#x13d;" horiz-adv-x="1045" 
d="M338 217l555 -1q23 0 42.5 -8.5t34 -23.5t23 -34.5t8.5 -42.5q0 -47 -31 -77t-77 -30h-664h-11.5t-10.5 2q-4 0 -8 2q-34 9 -56 37t-22 66v1066q0 23 8.5 42.5t23 33.5t34.5 22.5t42 8.5q23 0 42.5 -8.5t34.5 -22.5t23.5 -33.5t8.5 -42.5v-956zM392 1748q14 14 29.5 20
t30.5 6q26 0 47.5 -14.5t33 -37t9 -48.5t-25.5 -50l-208 -209l-2 -2q-28 -26 -62 -26q-37 0 -64 27l-208 210q-24 24 -26.5 50t9 48.5t33.5 37t47 14.5q15 0 30.5 -6t29.5 -20l148 -148z" />
    <glyph glyph-name="uni013B" unicode="&#x13b;" horiz-adv-x="1045" 
d="M338 217l555 -1q23 0 42.5 -8.5t34 -23.5t23 -34.5t8.5 -42.5q0 -47 -31 -77t-77 -30h-664h-11.5t-10.5 2q-4 0 -8 2q-34 9 -56 37t-22 66v1066q0 23 8.5 42.5t23 33.5t34.5 22.5t42 8.5q23 0 42.5 -8.5t34.5 -22.5t23.5 -33.5t8.5 -42.5v-956zM624 -453
q0 -23 -8.5 -42.5t-22.5 -34t-33.5 -23t-42.5 -8.5q-22 0 -42 8.5t-35 23t-23.5 34t-8.5 42.5v272q0 22 9 42t24 34t35 22.5t43 8.5q22 0 41 -8.5t33.5 -22.5t22.5 -34t8 -42v-272z" />
    <glyph glyph-name="Ldot" unicode="&#x13f;" horiz-adv-x="1045" 
d="M338 217l555 -1q23 0 42.5 -8.5t34 -23.5t23 -34.5t8.5 -42.5q0 -47 -31 -77t-77 -30h-664h-11.5t-10.5 2q-4 0 -8 2q-34 9 -56 37t-22 66v1066q0 23 8.5 42.5t23 33.5t34.5 22.5t42 8.5q23 0 42.5 -8.5t34.5 -22.5t23.5 -33.5t8.5 -42.5v-956zM519 634q0 26 10 49.5
t27.5 41t41 27.5t49.5 10t49.5 -10t41 -27.5t27.5 -41t10 -49.5t-10 -49.5t-27.5 -41t-41 -27.5t-49.5 -10t-49.5 10t-41 27.5t-27.5 41t-10 49.5z" />
    <glyph glyph-name="Lslash" unicode="&#x141;" horiz-adv-x="1051" 
d="M344 743l73 28q15 5 26 5q23 0 41.5 -12.5t27.5 -34.5q10 -28 -3 -55t-40 -37l-125 -47v-367l548 -1q23 0 43.5 -9t35.5 -24t23.5 -35t8.5 -43q0 -48 -31.5 -79.5t-79.5 -31.5h-665q-22 1 -41.5 9.5t-33.5 23.5t-22.5 34.5t-8.5 42.5v397l-53 -19q-11 -5 -27 -5
q-22 0 -40.5 12.5t-26.5 33.5q-11 28 1.5 54t40.5 37l105 39v510q0 24 9 44t24 35t35 23.5t43 8.5t43.5 -8.5t35.5 -23.5t24 -35t9 -44v-426z" />
    <glyph glyph-name="M" unicode="M" horiz-adv-x="1479" 
d="M338 884v-777q0 -22 -8.5 -42t-23.5 -34t-34.5 -22.5t-42.5 -8.5q-22 0 -42 8.5t-34.5 22.5t-23 34t-8.5 42v1066q0 23 8.5 42.5t23.5 34t35 22.5t42 8q43 0 77 -31l433 -514l431 514q14 13 34.5 22t39.5 9h8q22 -1 41 -10t33.5 -23t22.5 -33t8 -41v-1066q0 -22 -8.5 -42
t-23.5 -34t-34.5 -22.5t-42.5 -8.5q-22 0 -41.5 8.5t-34.5 22.5t-23.5 34t-8.5 42v778l-330 -392q-14 -14 -33 -23.5t-39 -9.5q-39 0 -69 32h-1v1z" />
    <glyph glyph-name="M.alt" horiz-adv-x="1550" 
d="M335 110q0 -23 -9 -43t-24 -35t-35 -23.5t-43 -8.5t-43.5 8.5t-35.5 23.5t-24 35t-9 43v768q0 80 30 150.5t82.5 123t123 83t151.5 30.5t152 -32t124 -86q53 54 123.5 86t151.5 32t152 -30.5t123.5 -83t83 -123t30.5 -150.5v-768q0 -23 -9 -43t-24 -35t-35.5 -23.5
t-43.5 -8.5t-43.5 8.5t-35.5 23.5t-24 35t-9 43v758q0 35 -13 65t-36 52t-53 35t-65 13q-34 0 -63 -13t-51 -35t-34.5 -51.5t-12.5 -62.5v-169q0 -23 -9 -43.5t-24 -35.5t-35.5 -24t-43.5 -9t-43.5 9t-35.5 24t-24 35.5t-9 43.5v169q-1 33 -13.5 62.5t-34 51.5t-51 35
t-64.5 13q-34 0 -64 -12.5t-52 -34t-35 -51t-14 -63.5v-762z" />
    <glyph glyph-name="N" unicode="N" horiz-adv-x="1349" 
d="M338 881v-774q0 -22 -8.5 -42t-23.5 -34t-34.5 -22.5t-42.5 -8.5q-22 0 -42 8.5t-34.5 22.5t-23 34t-8.5 42v1063q0 43 28 73q13 17 33 27t47 10q24 0 46.5 -10.5t39.5 -30.5l692 -831v765q0 23 9 42.5t24 33.5t35 22.5t43 8.5t42 -8.5t33.5 -22.5t22.5 -33.5t8 -42.5
v-1066q0 -26 -11 -48t-30 -36q-12 -11 -27.5 -17t-35.5 -6h-6q-24 1 -42 11.5t-34 30.5z" />
    <glyph glyph-name="N.alt" horiz-adv-x="1192" 
d="M1080 110q0 -23 -9 -43t-24 -35t-35 -23.5t-43 -8.5t-43.5 8.5t-35.5 23.5t-24 35t-9 43v674q0 54 -19.5 102t-53.5 83.5t-81 56t-103 20.5q-55 0 -103.5 -20.5t-84.5 -56t-56.5 -83.5t-20.5 -102v-674q0 -23 -9 -43t-24 -35t-35 -23.5t-43 -8.5t-43.5 8.5t-35.5 23.5
t-24 35t-9 43v677q0 100 38 188.5t103.5 154.5t154 104t189.5 38t189 -38t153 -104t103 -154.5t38 -188.5v-677z" />
    <glyph glyph-name="Nacute" unicode="&#x143;" horiz-adv-x="1352" 
d="M338 881v-774q0 -22 -8.5 -42t-23.5 -34t-34.5 -22.5t-42.5 -8.5q-22 0 -42 8.5t-34.5 22.5t-23 34t-8.5 42v1063q0 43 28 73q13 17 33 27t47 10q24 0 46.5 -10.5t39.5 -30.5l692 -831v765q0 23 9 42.5t24 33.5t35 22.5t43 8.5t42 -8.5t33.5 -22.5t22.5 -33.5t8 -42.5
v-1066q0 -26 -11 -48t-30 -36q-12 -11 -27.5 -17t-35.5 -6h-6q-24 1 -42 11.5t-34 30.5zM762 1415q-17 -17 -37.5 -25t-40.5 -8q-44 0 -76 32q-16 16 -24.5 36t-8.5 41t8.5 41.5t24.5 36.5l126 127q16 17 36 24.5t41 7.5t41.5 -8t36.5 -24q17 -16 25 -36t8 -40.5t-8.5 -40.5
t-24.5 -36z" />
    <glyph glyph-name="Ncaron" unicode="&#x147;" horiz-adv-x="1352" 
d="M338 881v-774q0 -22 -8.5 -42t-23.5 -34t-34.5 -22.5t-42.5 -8.5q-22 0 -42 8.5t-34.5 22.5t-23 34t-8.5 42v1063q0 43 28 73q13 17 33 27t47 10q24 0 46.5 -10.5t39.5 -30.5l692 -831v765q0 23 9 42.5t24 33.5t35 22.5t43 8.5t42 -8.5t33.5 -22.5t22.5 -33.5t8 -42.5
v-1066q0 -26 -11 -48t-30 -36q-12 -11 -27.5 -17t-35.5 -6h-6q-24 1 -42 11.5t-34 30.5zM828 1720q14 14 29.5 20t30.5 6q26 0 47.5 -14.5t33 -37t9 -48.5t-25.5 -50l-208 -209l-2 -2q-28 -26 -62 -26q-37 0 -64 27l-208 210q-24 24 -26.5 50t9 48.5t33.5 37t47 14.5
q15 0 30.5 -6t29.5 -20l148 -148z" />
    <glyph glyph-name="uni0145" unicode="&#x145;" horiz-adv-x="1352" 
d="M338 881v-774q0 -22 -8.5 -42t-23.5 -34t-34.5 -22.5t-42.5 -8.5q-22 0 -42 8.5t-34.5 22.5t-23 34t-8.5 42v1063q0 43 28 73q13 17 33 27t47 10q24 0 46.5 -10.5t39.5 -30.5l692 -831v765q0 23 9 42.5t24 33.5t35 22.5t43 8.5t42 -8.5t33.5 -22.5t22.5 -33.5t8 -42.5
v-1066q0 -26 -11 -48t-30 -36q-12 -11 -27.5 -17t-35.5 -6h-6q-24 1 -42 11.5t-34 30.5zM758 -383q0 -23 -8.5 -42.5t-22.5 -34t-33.5 -23t-42.5 -8.5q-22 0 -42 8.5t-35 23t-23.5 34t-8.5 42.5v272q0 22 9 42t24 34t35 22.5t43 8.5q22 0 41 -8.5t33.5 -22.5t22.5 -34t8 -42
v-272z" />
    <glyph glyph-name="Ntilde" unicode="&#xd1;" horiz-adv-x="1352" 
d="M338 881v-774q0 -22 -8.5 -42t-23.5 -34t-34.5 -22.5t-42.5 -8.5q-22 0 -42 8.5t-34.5 22.5t-23 34t-8.5 42v1063q0 43 28 73q13 17 33 27t47 10q24 0 46.5 -10.5t39.5 -30.5l692 -831v765q0 23 9 42.5t24 33.5t35 22.5t43 8.5t42 -8.5t33.5 -22.5t22.5 -33.5t8 -42.5
v-1066q0 -26 -11 -48t-30 -36q-12 -11 -27.5 -17t-35.5 -6h-6q-24 1 -42 11.5t-34 30.5zM323 1532q7 10 26 30t47 40.5t64.5 35.5t78.5 15q44 0 78.5 -15t67.5 -41q7 -6 17.5 -14t22.5 -15.5t25.5 -12.5t25.5 -5q47 0 98 68q0 -1 2 -1l1 1q25 23 58 23q17 0 32.5 -6
t27.5 -19q23 -25 24 -57t-20 -58q0 -4 -1 -5q-7 -10 -25.5 -30t-46.5 -40.5t-65 -36t-80 -15.5q-42 0 -78.5 17.5t-68.5 41.5q-7 5 -17 12.5t-21.5 14.5t-24.5 12t-25 5q-43 0 -87 -52q-10 -20 -31.5 -30.5t-42.5 -10.5q-35 0 -61 24q-13 12 -19.5 28.5t-6.5 33.5t6 33
t19 29z" />
    <glyph glyph-name="O" unicode="O" horiz-adv-x="1431" 
d="M713 1289q135 0 254 -51t207.5 -139.5t139.5 -207t51 -253.5q0 -90 -23.5 -173t-65.5 -155t-102 -131.5t-132 -102t-155.5 -65.5t-173.5 -23q-135 0 -253.5 51t-206 139.5t-138 206.5t-50.5 253q0 90 23 173t65 155.5t101 132t131 101.5t155 65.5t173 23.5zM714 1072
q-90 0 -168.5 -34t-137 -93t-92.5 -138t-34 -169q0 -91 34 -170t92.5 -137.5t137 -92t168.5 -33.5t169.5 33.5t138 92t92.5 137.5t34 170q0 90 -34 169t-92.5 138t-138 93t-169.5 34z" />
    <glyph glyph-name="OE" unicode="&#x152;" horiz-adv-x="2068" 
d="M1224 0q-43 4 -71.5 33.5t-28.5 74.5v1063q0 23 8.5 43t23 34.5t34.5 23t43 8.5h700q23 0 42.5 -8.5t33.5 -23t22.5 -34.5t8.5 -43q0 -22 -8.5 -42t-22.5 -34.5t-33.5 -23t-42.5 -8.5h-592v-298h463q23 0 42.5 -8.5t34 -23.5t23 -35t8.5 -43q0 -22 -8.5 -41.5t-23 -34
t-34 -22.5t-42.5 -8h-463v-332h592q23 0 42.5 -8.5t33.5 -23.5t22.5 -35t8.5 -43q0 -47 -30.5 -77t-76.5 -30h-709zM676 1289q135 0 254 -51t207.5 -139.5t139.5 -207t51 -253.5q0 -90 -23.5 -173t-65.5 -155t-102 -131.5t-132 -102t-155.5 -65.5t-173.5 -23
q-135 0 -253.5 51t-206 139.5t-138 206.5t-50.5 253q0 90 23 173t65 155.5t101 132t131 101.5t155 65.5t173 23.5zM677 1072q-90 0 -168.5 -34t-137 -93t-92.5 -138t-34 -169q0 -91 34 -170t92.5 -137.5t137 -92t168.5 -33.5t169.5 33.5t138 92t92.5 137.5t34 170
q0 90 -34 169t-92.5 138t-138 93t-169.5 34z" />
    <glyph glyph-name="Oacute" unicode="&#xd3;" horiz-adv-x="1431" 
d="M713 1289q135 0 254 -51t207.5 -139.5t139.5 -207t51 -253.5q0 -90 -23.5 -173t-65.5 -155t-102 -131.5t-132 -102t-155.5 -65.5t-173.5 -23q-135 0 -253.5 51t-206 139.5t-138 206.5t-50.5 253q0 90 23 173t65 155.5t101 132t131 101.5t155 65.5t173 23.5zM714 1072
q-90 0 -168.5 -34t-137 -93t-92.5 -138t-34 -169q0 -91 34 -170t92.5 -137.5t137 -92t168.5 -33.5t169.5 33.5t138 92t92.5 137.5t34 170q0 90 -34 169t-92.5 138t-138 93t-169.5 34zM868 1427q-17 -17 -37.5 -25t-40.5 -8q-44 0 -76 32q-16 16 -24.5 36t-8.5 41t8.5 41.5
t24.5 36.5l126 127q16 17 36 24.5t41 7.5t41.5 -8t36.5 -24q17 -16 25 -36t8 -40.5t-8.5 -40.5t-24.5 -36z" />
    <glyph glyph-name="Obreve" unicode="&#x14e;" horiz-adv-x="1431" 
d="M713 1289q135 0 254 -51t207.5 -139.5t139.5 -207t51 -253.5q0 -90 -23.5 -173t-65.5 -155t-102 -131.5t-132 -102t-155.5 -65.5t-173.5 -23q-135 0 -253.5 51t-206 139.5t-138 206.5t-50.5 253q0 90 23 173t65 155.5t101 132t131 101.5t155 65.5t173 23.5zM714 1072
q-90 0 -168.5 -34t-137 -93t-92.5 -138t-34 -169q0 -91 34 -170t92.5 -137.5t137 -92t168.5 -33.5t169.5 33.5t138 92t92.5 137.5t34 170q0 90 -34 169t-92.5 138t-138 93t-169.5 34zM802 1619q0 32 21 54t53 22t53 -22t21 -54q0 -47 -18 -89t-49.5 -73t-73 -49t-89.5 -18
t-90 18t-73.5 49t-49.5 73t-18 89q0 32 22 54t52 22q32 0 54 -22t22 -54v-3q1 -32 24 -55.5t57 -23.5q17 0 31.5 6.5t25.5 17t17.5 24.5t7.5 30v4z" />
    <glyph glyph-name="Ocircumflex" unicode="&#xd4;" horiz-adv-x="1431" 
d="M713 1289q135 0 254 -51t207.5 -139.5t139.5 -207t51 -253.5q0 -90 -23.5 -173t-65.5 -155t-102 -131.5t-132 -102t-155.5 -65.5t-173.5 -23q-135 0 -253.5 51t-206 139.5t-138 206.5t-50.5 253q0 90 23 173t65 155.5t101 132t131 101.5t155 65.5t173 23.5zM714 1072
q-90 0 -168.5 -34t-137 -93t-92.5 -138t-34 -169q0 -91 34 -170t92.5 -137.5t137 -92t168.5 -33.5t169.5 33.5t138 92t92.5 137.5t34 170q0 90 -34 169t-92.5 138t-138 93t-169.5 34zM865 1410.09q14 -13.999 29.5 -19.999t30.5 -6q26 0 47.5 14.499t33 36.998t9 48.4971
t-25.5 49.9971l-208 208.987l-2 2q-28 25.998 -62 25.998q-37 0 -64 -26.998l-208 -209.987q-24 -23.999 -26.5 -49.9971t9 -48.4971t33.5 -36.998t47 -14.499q15 0 30.5 6t29.5 19.999l148 147.99z" />
    <glyph glyph-name="Odieresis" unicode="&#xd6;" horiz-adv-x="1431" 
d="M713 1289q135 0 254 -51t207.5 -139.5t139.5 -207t51 -253.5q0 -90 -23.5 -173t-65.5 -155t-102 -131.5t-132 -102t-155.5 -65.5t-173.5 -23q-135 0 -253.5 51t-206 139.5t-138 206.5t-50.5 253q0 90 23 173t65 155.5t101 132t131 101.5t155 65.5t173 23.5zM714 1072
q-90 0 -168.5 -34t-137 -93t-92.5 -138t-34 -169q0 -91 34 -170t92.5 -137.5t137 -92t168.5 -33.5t169.5 33.5t138 92t92.5 137.5t34 170q0 90 -34 169t-92.5 138t-138 93t-169.5 34zM772 1506q0 24 9.5 46t26 38.5t38.5 26t46 9.5q25 0 47 -9.5t38 -26t25.5 -38.5t9.5 -46
q0 -25 -9.5 -47t-25.5 -38t-38 -25.5t-47 -9.5q-24 0 -46 9.5t-38.5 25.5t-26 38t-9.5 47zM394 1506q0 24 9.5 46t25.5 38.5t38 26t47 9.5q24 0 46 -9.5t38.5 -26t26 -38.5t9.5 -46q0 -25 -9.5 -47t-26 -38t-38.5 -25.5t-46 -9.5q-25 0 -47 9.5t-38 25.5t-25.5 38t-9.5 47z
" />
    <glyph glyph-name="Ograve" unicode="&#xd2;" horiz-adv-x="1431" 
d="M713 1289q135 0 254 -51t207.5 -139.5t139.5 -207t51 -253.5q0 -90 -23.5 -173t-65.5 -155t-102 -131.5t-132 -102t-155.5 -65.5t-173.5 -23q-135 0 -253.5 51t-206 139.5t-138 206.5t-50.5 253q0 90 23 173t65 155.5t101 132t131 101.5t155 65.5t173 23.5zM714 1072
q-90 0 -168.5 -34t-137 -93t-92.5 -138t-34 -169q0 -91 34 -170t92.5 -137.5t137 -92t168.5 -33.5t169.5 33.5t138 92t92.5 137.5t34 170q0 90 -34 169t-92.5 138t-138 93t-169.5 34zM642.015 1414q16.999 -17 37.4971 -25q20.499 -8 40.498 -8q43.9971 0 75.9951 32
q15.999 16 24.499 36q8.49902 20 8.49902 41t-8.49902 41.5q-8.5 20.5 -24.499 36.5l-125.992 127q-15.999 17 -35.998 24.5q-19.998 7.5 -40.9971 7.5t-41.498 -8q-20.498 -8 -36.4971 -24q-16.999 -16 -24.999 -36q-7.99902 -20 -7.99902 -40.5t8.49902 -40.5
q8.5 -20 24.499 -36z" />
    <glyph glyph-name="Ohungarumlaut" unicode="&#x150;" horiz-adv-x="1431" 
d="M713 1289q135 0 254 -51t207.5 -139.5t139.5 -207t51 -253.5q0 -90 -23.5 -173t-65.5 -155t-102 -131.5t-132 -102t-155.5 -65.5t-173.5 -23q-135 0 -253.5 51t-206 139.5t-138 206.5t-50.5 253q0 90 23 173t65 155.5t101 132t131 101.5t155 65.5t173 23.5zM714 1072
q-90 0 -168.5 -34t-137 -93t-92.5 -138t-34 -169q0 -91 34 -170t92.5 -137.5t137 -92t168.5 -33.5t169.5 33.5t138 92t92.5 137.5t34 170q0 90 -34 169t-92.5 138t-138 93t-169.5 34zM611 1391q-14 -14 -31.5 -21t-35.5 -7t-35 7t-31 21q-27 28 -27.5 66t27.5 67l114 114
q14 14 32 21t36 7q38 0 65 -27q29 -29 28.5 -67t-28.5 -65zM975 1391q-14 -14 -31 -21t-35 -7t-35 7t-31 21q-28 28 -28.5 66t28.5 67l114 114q14 14 31.5 21t35.5 7t35 -6.5t31 -20.5q14 -15 21 -32t7 -35t-7 -34.5t-21 -30.5z" />
    <glyph glyph-name="Omacron" unicode="&#x14c;" horiz-adv-x="1431" 
d="M713 1289q135 0 254 -51t207.5 -139.5t139.5 -207t51 -253.5q0 -90 -23.5 -173t-65.5 -155t-102 -131.5t-132 -102t-155.5 -65.5t-173.5 -23q-135 0 -253.5 51t-206 139.5t-138 206.5t-50.5 253q0 90 23 173t65 155.5t101 132t131 101.5t155 65.5t173 23.5zM714 1072
q-90 0 -168.5 -34t-137 -93t-92.5 -138t-34 -169q0 -91 34 -170t92.5 -137.5t137 -92t168.5 -33.5t169.5 33.5t138 92t92.5 137.5t34 170q0 90 -34 169t-92.5 138t-138 93t-169.5 34zM914 1566q40 0 67 -27t27 -65q0 -40 -27 -68.5t-67 -28.5h-388q-40 0 -66.5 28.5
t-26.5 68.5q0 39 26.5 65.5t66.5 26.5h388z" />
    <glyph glyph-name="uni03A9" unicode="&#x3a9;" horiz-adv-x="1187" 
d="M799 0l-13 2l-19 6q-31 13 -50 40t-19 62v232q0 37 16.5 61.5t42.5 37.5v1q2 0 3 1l4 2q81 36 130.5 108t49.5 184q0 62 -26.5 122t-73 107t-109.5 76.5t-137 29.5q-73 0 -137.5 -29t-112.5 -76t-75.5 -107t-27.5 -123q0 -58 15.5 -105t41.5 -84t61 -63.5t74 -43.5
l-25 -228q35 -10 57 -36.5t22 -64.5q0 -23 -8.5 -43.5t-23.5 -35.5t-35 -24t-43 -9h-191q-48 0 -79 32t-31 80t32 76.5t78 28.5h86v39q-56 38 -102 88t-78.5 109.5t-50 127t-17.5 140.5q0 119 44.5 222.5t122 180t181.5 121t222 44.5q79 0 151 -20t134.5 -57t113.5 -88.5
t87.5 -114.5t56.5 -136t20 -152q0 -73 -17.5 -141t-49.5 -128t-77.5 -110t-101.5 -88v-37h84q23 0 43 -7t35.5 -20.5t24.5 -32.5t9 -43t-8.5 -44.5t-23.5 -36t-35.5 -24.5t-44.5 -9h-200z" />
    <glyph glyph-name="Omegatonos" unicode="&#x38f;" horiz-adv-x="1258" 
d="M873 0l-13 2l-19 6q-31 13 -50 40t-19 62v232q0 37 16.5 61.5t42.5 37.5v1q2 0 3 1l4 2q81 36 130.5 108t49.5 184q0 62 -26.5 122t-73 107t-109.5 76.5t-137 29.5q-73 0 -137.5 -29t-112.5 -76t-75.5 -107t-27.5 -123q0 -58 15.5 -105t41.5 -84t61 -63.5t74 -43.5
l-25 -228q35 -10 57 -36.5t22 -64.5q0 -23 -8.5 -43.5t-23.5 -35.5t-35 -24t-43 -9h-191q-48 0 -79 32t-31 80t32 76.5t78 28.5h86v39q-56 38 -102 88t-78.5 109.5t-50 127t-17.5 140.5q0 119 44.5 222.5t122 180t181.5 121t222 44.5q79 0 151 -20t134.5 -57t113.5 -88.5
t87.5 -114.5t56.5 -136t20 -152q0 -73 -17.5 -141t-49.5 -128t-77.5 -110t-101.5 -88v-37h84q23 0 43 -7t35.5 -20.5t24.5 -32.5t9 -43t-8.5 -44.5t-23.5 -36t-35.5 -24.5t-44.5 -9h-200zM102 978q0 -22 -8.5 -42t-23 -34t-34 -22.5t-41.5 -8.5t-42 8.5t-34.5 22.5t-23 34
t-8.5 42v198q0 23 8.5 42.5t23 34.5t34.5 23.5t42 8.5q23 0 42.5 -8.5t33.5 -23.5t22.5 -34.5t8.5 -42.5v-198z" />
    <glyph glyph-name="Omicron" unicode="&#x39f;" horiz-adv-x="1431" 
d="M713 1289q135 0 254 -51t207.5 -139.5t139.5 -207t51 -253.5q0 -90 -23.5 -173t-65.5 -155t-102 -131.5t-132 -102t-155.5 -65.5t-173.5 -23q-135 0 -253.5 51t-206 139.5t-138 206.5t-50.5 253q0 90 23 173t65 155.5t101 132t131 101.5t155 65.5t173 23.5zM714 1072
q-90 0 -168.5 -34t-137 -93t-92.5 -138t-34 -169q0 -91 34 -170t92.5 -137.5t137 -92t168.5 -33.5t169.5 33.5t138 92t92.5 137.5t34 170q0 90 -34 169t-92.5 138t-138 93t-169.5 34z" />
    <glyph glyph-name="Omicrontonos" unicode="&#x38c;" horiz-adv-x="1431" 
d="M713 1289q135 0 254 -51t207.5 -139.5t139.5 -207t51 -253.5q0 -90 -23.5 -173t-65.5 -155t-102 -131.5t-132 -102t-155.5 -65.5t-173.5 -23q-135 0 -253.5 51t-206 139.5t-138 206.5t-50.5 253q0 90 23 173t65 155.5t101 132t131 101.5t155 65.5t173 23.5zM714 1072
q-90 0 -168.5 -34t-137 -93t-92.5 -138t-34 -169q0 -91 34 -170t92.5 -137.5t137 -92t168.5 -33.5t169.5 33.5t138 92t92.5 137.5t34 170q0 90 -34 169t-92.5 138t-138 93t-169.5 34zM42 973q0 -22 -8.5 -42t-23 -34t-34 -22.5t-41.5 -8.5t-42 8.5t-34.5 22.5t-23 34
t-8.5 42v198q0 23 8.5 42.5t23 34.5t34.5 23.5t42 8.5q23 0 42.5 -8.5t33.5 -23.5t22.5 -34.5t8.5 -42.5v-198z" />
    <glyph glyph-name="Oslash" unicode="&#xd8;" horiz-adv-x="1431" 
d="M715 1289q101 0 192 -29t169 -81l55 58q17 20 39 29.5t45 9.5q41 0 74 -27q17 -15 26.5 -34t11 -39t-5 -40.5t-21.5 -38.5l-65 -70q61 -82 95 -180.5t34 -208.5q0 -135 -51 -253t-138.5 -206.5t-206 -139.5t-253.5 -51q-100 0 -189 27t-166 78l-51 -55q-17 -20 -39 -29.5
t-45 -9.5q-39 0 -70 26q-18 15 -27.5 34.5t-11.5 40.5t4.5 42t21.5 39l57 60q-63 83 -98.5 184t-35.5 213q0 90 23 173t65 155.5t101.5 132t131.5 101.5t155.5 65.5t173.5 23.5zM715 1063q-89 0 -166.5 -33t-135.5 -91t-91 -135t-33 -166t33 -167t91 -135.5t135.5 -90.5
t166.5 -33t166.5 33t135 90.5t90.5 135.5t33 167t-33 166t-90.5 135t-135 91t-166.5 33z" />
    <glyph glyph-name="Otilde" unicode="&#xd5;" horiz-adv-x="1431" 
d="M713 1289q135 0 254 -51t207.5 -139.5t139.5 -207t51 -253.5q0 -90 -23.5 -173t-65.5 -155t-102 -131.5t-132 -102t-155.5 -65.5t-173.5 -23q-135 0 -253.5 51t-206 139.5t-138 206.5t-50.5 253q0 90 23 173t65 155.5t101 132t131 101.5t155 65.5t173 23.5zM714 1072
q-90 0 -168.5 -34t-137 -93t-92.5 -138t-34 -169q0 -91 34 -170t92.5 -137.5t137 -92t168.5 -33.5t169.5 33.5t138 92t92.5 137.5t34 170q0 90 -34 169t-92.5 138t-138 93t-169.5 34zM407 1583q7 10 26 30t47 40.5t64.5 35.5t78.5 15q44 0 78.5 -15t67.5 -41q7 -6 17.5 -14
t22.5 -15.5t25.5 -12.5t25.5 -5q47 0 98 68q0 -1 2 -1l1 1q25 23 58 23q17 0 32.5 -6t27.5 -19q23 -25 24 -57t-20 -58q0 -4 -1 -5q-7 -10 -25.5 -30t-46.5 -40.5t-65 -36t-80 -15.5q-42 0 -78.5 17.5t-68.5 41.5q-7 5 -17 12.5t-21.5 14.5t-24.5 12t-25 5q-43 0 -87 -52
q-10 -20 -31.5 -30.5t-42.5 -10.5q-35 0 -61 24q-13 12 -19.5 28.5t-6.5 33.5t6 33t19 29z" />
    <glyph glyph-name="P" unicode="P" horiz-adv-x="1125" 
d="M596 1280q100 0 187 -37.5t152 -102t102.5 -152t37.5 -186.5t-37.5 -185t-102.5 -150.5t-152.5 -101.5t-187.5 -37h-257v-221q0 -22 -8.5 -42t-23.5 -34t-34.5 -22.5t-42.5 -8.5q-22 0 -42 8.5t-34.5 22.5t-23 34t-8.5 42v1064q0 23 8.5 43t23 34.5t34.5 23t42 8.5h367z
M338 1063v-518h261q54 0 101.5 21t82.5 56.5t55 82t20 97.5t-20.5 98t-55.5 83.5t-82 58t-101 21.5h-261z" />
    <glyph glyph-name="Phi" unicode="&#x3a6;" horiz-adv-x="1190" 
d="M703 1149q101 -15 189 -56t153.5 -105.5t103.5 -150.5t38 -190t-38 -190.5t-103.5 -151t-153.5 -105.5t-189 -56v-34q0 -23 -9 -43t-24 -35t-35.5 -23.5t-43.5 -8.5t-43.5 8.5t-35.5 23.5t-24 35t-9 43v35q-99 16 -186 57.5t-151.5 106t-101.5 150t-37 188.5t37 188
t101.5 149.5t151.5 106t186 57.5v21q0 23 9 43t24 35t35.5 23.5t43.5 8.5t43.5 -8.5t35.5 -23.5t24 -35t9 -43v-20zM970 647q0 58 -21 105t-57 82.5t-84.5 59.5t-104.5 35v-565q56 11 104.5 34.5t84.5 59t57 83t21 106.5zM220 647q0 -58 20 -104.5t55.5 -81.5t82.5 -58.5
t101 -35.5v560q-54 -12 -101 -36t-82.5 -59.5t-55.5 -81.5t-20 -103z" />
    <glyph glyph-name="Pi" unicode="&#x3a0;" horiz-adv-x="1289" 
d="M1174 110q0 -23 -9 -43t-24 -35t-35.5 -23.5t-43.5 -8.5q-47 0 -76 31.5t-29 78.5v953h-619v-953q0 -47 -29.5 -78.5t-76.5 -31.5q-23 0 -43 8.5t-35 23.5t-24 35t-9 43v1058q0 23 8.5 43.5t23.5 35.5t35 24t43 9h835q23 -1 42.5 -10t34 -24t23 -35t8.5 -43v-1058z" />
    <glyph glyph-name="Psi" unicode="&#x3a8;" horiz-adv-x="1228" 
d="M289 835q0 -45 17 -85.5t46.5 -71.5t69 -50.5t84.5 -22.5v565q0 23 9 43t24.5 35t36 23.5t43.5 8.5q47 0 75.5 -31.5t28.5 -78.5v-566q48 3 87 23.5t66.5 53t43.5 75t17 90.5v324q0 47 29 78.5t75 31.5q24 0 44.5 -8.5t36 -23.5t24 -35t8.5 -43v-330q0 -91 -33.5 -172
t-91.5 -142t-137 -98t-169 -41v-277q0 -47 -29.5 -78.5t-75.5 -31.5q-23 0 -43.5 8.5t-35.5 23.5t-24 35t-9 43v277q-91 3 -170.5 40t-138 98.5t-92 142.5t-33.5 172v330q0 23 9 43t24 35t35.5 23.5t43.5 8.5q48 0 76.5 -31.5t28.5 -78.5v-335z" />
    <glyph glyph-name="Q" unicode="Q" horiz-adv-x="1431" 
d="M713 1289q135 0 254 -51t207.5 -139.5t139.5 -207t51 -253.5q0 -120 -41.5 -228t-114 -193t-171.5 -142t-214 -77v-141q0 -23 -8.5 -42.5t-23.5 -34t-34.5 -23t-41.5 -8.5t-42 8.5t-35 23t-23.5 34t-8.5 42.5v140q-116 19 -215.5 76t-172 142t-113.5 193.5t-41 229.5
q0 90 23 173t65 155.5t101 132t131 101.5t155 65.5t173 23.5zM714 1072q-90 0 -168.5 -34t-137 -93t-92.5 -138t-34 -169q0 -77 24.5 -145.5t67.5 -123.5t103 -94t130 -57v94q0 23 8.5 42.5t23.5 34t35 23t42 8.5t41.5 -8.5t34.5 -23t23.5 -34t8.5 -42.5v-93q70 18 129.5 57
t102.5 94t67.5 123.5t24.5 144.5q0 90 -34 169t-92.5 138t-138 93t-169.5 34z" />
    <glyph glyph-name="Q.alt" horiz-adv-x="1395" 
d="M677 1289q90 0 173 -23.5t155.5 -65.5t132 -101.5t102 -132t66 -155.5t23.5 -173q0 -138 -53.5 -258t-145.5 -209q11 -9 20 -9q27 0 41.5 6t29.5 29q20 7 40 7q24 0 45.5 -10t36 -27.5t21 -41.5t0.5 -52q-8 -43 -33 -69.5t-55.5 -41.5t-62.5 -20t-53 -6q-66 0 -119.5 29
t-94.5 81q-125 -58 -269 -58q-136 0 -254 51t-206 139.5t-138.5 206.5t-50.5 253q0 90 23 173t65 155.5t101 132t131 101.5t155.5 65.5t173.5 23.5zM677 1069q-90 0 -168.5 -33.5t-137 -92t-92 -137t-33.5 -168.5q0 -61 15.5 -117.5t44 -105t69 -87.5t89.5 -67
q5 58 30 108.5t64.5 88t92 59t110.5 21.5q43 0 82.5 -11.5t73.5 -32.5t61.5 -50.5t46.5 -64.5q40 54 62.5 119.5t22.5 139.5q0 90 -34 168.5t-92.5 137t-137.5 92t-169 33.5zM671 238q0 -7 1 -15.5t3 -16.5h2q47 0 90.5 9.5t84.5 26.5l-4 9l1 1q-11 27 -36 46t-52 19
q-22 0 -38.5 -7t-28 -18t-17.5 -25t-6 -29z" />
    <glyph glyph-name="R" unicode="R" horiz-adv-x="1134" 
d="M121 1171q0 23 8.5 43t23 34.5t34.5 23t42 8.5h367q99 0 186 -35.5t152.5 -98t103 -148t37.5 -184.5q0 -67 -18 -128.5t-51 -113t-78.5 -93t-101.5 -70.5l185 -223q17 -16 25 -36.5t7.5 -41.5t-8.5 -41t-24 -35q-16 -16 -34.5 -23.5t-37.5 -7.5q-41 0 -72 31l-278 323
h-251v-248q0 -22 -8.5 -42t-23.5 -34t-34.5 -22.5t-42.5 -8.5q-22 0 -42 8.5t-34.5 22.5t-23 34t-8.5 42v1064zM338 1063v-490h260q54 0 101.5 19t82.5 51.5t55.5 76.5t20.5 94q0 51 -20.5 96.5t-55.5 79.5t-82.5 53.5t-100.5 19.5h-261z" />
    <glyph glyph-name="Racute" unicode="&#x154;" horiz-adv-x="1134" 
d="M121 1171q0 23 8.5 43t23 34.5t34.5 23t42 8.5h367q99 0 186 -35.5t152.5 -98t103 -148t37.5 -184.5q0 -67 -18 -128.5t-51 -113t-78.5 -93t-101.5 -70.5l185 -223q17 -16 25 -36.5t7.5 -41.5t-8.5 -41t-24 -35q-16 -16 -34.5 -23.5t-37.5 -7.5q-41 0 -72 31l-278 323
h-251v-248q0 -22 -8.5 -42t-23.5 -34t-34.5 -22.5t-42.5 -8.5q-22 0 -42 8.5t-34.5 22.5t-23 34t-8.5 42v1064zM338 1063v-490h260q54 0 101.5 19t82.5 51.5t55.5 76.5t20.5 94q0 51 -20.5 96.5t-55.5 79.5t-82.5 53.5t-100.5 19.5h-261zM575 1418q-17 -17 -37.5 -25
t-40.5 -8q-44 0 -76 32q-16 16 -24.5 36t-8.5 41t8.5 41.5t24.5 36.5l126 127q16 17 36 24.5t41 7.5t41.5 -8t36.5 -24q17 -16 25 -36t8 -40.5t-8.5 -40.5t-24.5 -36z" />
    <glyph glyph-name="Rcaron" unicode="&#x158;" horiz-adv-x="1134" 
d="M121 1171q0 23 8.5 43t23 34.5t34.5 23t42 8.5h367q99 0 186 -35.5t152.5 -98t103 -148t37.5 -184.5q0 -67 -18 -128.5t-51 -113t-78.5 -93t-101.5 -70.5l185 -223q17 -16 25 -36.5t7.5 -41.5t-8.5 -41t-24 -35q-16 -16 -34.5 -23.5t-37.5 -7.5q-41 0 -72 31l-278 323
h-251v-248q0 -22 -8.5 -42t-23.5 -34t-34.5 -22.5t-42.5 -8.5q-22 0 -42 8.5t-34.5 22.5t-23 34t-8.5 42v1064zM338 1063v-490h260q54 0 101.5 19t82.5 51.5t55.5 76.5t20.5 94q0 51 -20.5 96.5t-55.5 79.5t-82.5 53.5t-100.5 19.5h-261zM662 1755q14 14 29.5 20t30.5 6
q26 0 47.5 -14.5t33 -37t9 -48.5t-25.5 -50l-208 -209l-2 -2q-28 -26 -62 -26q-37 0 -64 27l-208 210q-24 24 -26.5 50t9 48.5t33.5 37t47 14.5q15 0 30.5 -6t29.5 -20l148 -148z" />
    <glyph glyph-name="uni0156" unicode="&#x156;" horiz-adv-x="1134" 
d="M121 1171q0 23 8.5 43t23 34.5t34.5 23t42 8.5h367q99 0 186 -35.5t152.5 -98t103 -148t37.5 -184.5q0 -67 -18 -128.5t-51 -113t-78.5 -93t-101.5 -70.5l185 -223q17 -16 25 -36.5t7.5 -41.5t-8.5 -41t-24 -35q-16 -16 -34.5 -23.5t-37.5 -7.5q-41 0 -72 31l-278 323
h-251v-248q0 -22 -8.5 -42t-23.5 -34t-34.5 -22.5t-42.5 -8.5q-22 0 -42 8.5t-34.5 22.5t-23 34t-8.5 42v1064zM338 1063v-490h260q54 0 101.5 19t82.5 51.5t55.5 76.5t20.5 94q0 51 -20.5 96.5t-55.5 79.5t-82.5 53.5t-100.5 19.5h-261zM644 -365q0 -23 -8.5 -42.5
t-22.5 -34t-33.5 -23t-42.5 -8.5q-22 0 -42 8.5t-35 23t-23.5 34t-8.5 42.5v272q0 22 9 42t24 34t35 22.5t43 8.5q22 0 41 -8.5t33.5 -22.5t22.5 -34t8 -42v-272z" />
    <glyph glyph-name="S" unicode="S" horiz-adv-x="999" 
d="M505 534q-96 18 -176 48t-138 76t-90.5 109t-32.5 145q0 84 35 153t93.5 119t136 77.5t161.5 27.5q59 0 116.5 -12t108.5 -35.5t93 -58.5t69 -82q9 -15 10.5 -31t-2 -31t-11 -28.5t-17.5 -22.5q-27 -27 -71 -27q-16 0 -32.5 4.5t-31.5 15.5q-27 23 -51 40.5t-50 28.5
t-56 16.5t-71 5.5q-45 0 -84 -11t-67.5 -32t-45 -50t-16.5 -65q0 -42 22 -69t61 -45.5t91.5 -31t113.5 -25.5q70 -18 136.5 -44.5t118.5 -68.5t83.5 -102.5t31.5 -144.5t-34.5 -156t-95.5 -125.5t-143.5 -83.5t-177.5 -30q-76 0 -145 19.5t-126.5 53t-100.5 79t-67 96.5
q-13 26 -14.5 49t5.5 42t20.5 33.5t30.5 23.5q26 14 49 14q49 0 100 -65q42 -61 106 -94.5t150 -33.5q42 0 82.5 11t72.5 32.5t51.5 52.5t19.5 71q0 44 -20 71.5t-51.5 44.5t-71 27t-78.5 19z" />
    <glyph glyph-name="Sacute" unicode="&#x15a;" horiz-adv-x="999" 
d="M505 534q-96 18 -176 48t-138 76t-90.5 109t-32.5 145q0 84 35 153t93.5 119t136 77.5t161.5 27.5q59 0 116.5 -12t108.5 -35.5t93 -58.5t69 -82q9 -15 10.5 -31t-2 -31t-11 -28.5t-17.5 -22.5q-27 -27 -71 -27q-16 0 -32.5 4.5t-31.5 15.5q-27 23 -51 40.5t-50 28.5
t-56 16.5t-71 5.5q-45 0 -84 -11t-67.5 -32t-45 -50t-16.5 -65q0 -42 22 -69t61 -45.5t91.5 -31t113.5 -25.5q70 -18 136.5 -44.5t118.5 -68.5t83.5 -102.5t31.5 -144.5t-34.5 -156t-95.5 -125.5t-143.5 -83.5t-177.5 -30q-76 0 -145 19.5t-126.5 53t-100.5 79t-67 96.5
q-13 26 -14.5 49t5.5 42t20.5 33.5t30.5 23.5q26 14 49 14q49 0 100 -65q42 -61 106 -94.5t150 -33.5q42 0 82.5 11t72.5 32.5t51.5 52.5t19.5 71q0 44 -20 71.5t-51.5 44.5t-71 27t-78.5 19zM616 1417q-17 -17 -37.5 -25t-40.5 -8q-44 0 -76 32q-16 16 -24.5 36t-8.5 41
t8.5 41.5t24.5 36.5l126 127q16 17 36 24.5t41 7.5t41.5 -8t36.5 -24q17 -16 25 -36t8 -40.5t-8.5 -40.5t-24.5 -36z" />
    <glyph glyph-name="Scaron" unicode="&#x160;" horiz-adv-x="999" 
d="M505 534q-96 18 -176 48t-138 76t-90.5 109t-32.5 145q0 84 35 153t93.5 119t136 77.5t161.5 27.5q59 0 116.5 -12t108.5 -35.5t93 -58.5t69 -82q9 -15 10.5 -31t-2 -31t-11 -28.5t-17.5 -22.5q-27 -27 -71 -27q-16 0 -32.5 4.5t-31.5 15.5q-27 23 -51 40.5t-50 28.5
t-56 16.5t-71 5.5q-45 0 -84 -11t-67.5 -32t-45 -50t-16.5 -65q0 -42 22 -69t61 -45.5t91.5 -31t113.5 -25.5q70 -18 136.5 -44.5t118.5 -68.5t83.5 -102.5t31.5 -144.5t-34.5 -156t-95.5 -125.5t-143.5 -83.5t-177.5 -30q-76 0 -145 19.5t-126.5 53t-100.5 79t-67 96.5
q-13 26 -14.5 49t5.5 42t20.5 33.5t30.5 23.5q26 14 49 14q49 0 100 -65q42 -61 106 -94.5t150 -33.5q42 0 82.5 11t72.5 32.5t51.5 52.5t19.5 71q0 44 -20 71.5t-51.5 44.5t-71 27t-78.5 19zM670 1739q14 14 29.5 20t30.5 6q26 0 47.5 -14.5t33 -37t9 -48.5t-25.5 -50
l-208 -209l-2 -2q-28 -26 -62 -26q-37 0 -64 27l-208 210q-24 24 -26.5 50t9 48.5t33.5 37t47 14.5q15 0 30.5 -6t29.5 -20l148 -148z" />
    <glyph glyph-name="Scedilla" unicode="&#x15e;" horiz-adv-x="999" 
d="M505 534q-96 18 -176 48t-138 76t-90.5 109t-32.5 145q0 84 35 153t93.5 119t136 77.5t161.5 27.5q59 0 116.5 -12t108.5 -35.5t93 -58.5t69 -82q9 -15 10.5 -31t-2 -31t-11 -28.5t-17.5 -22.5q-27 -27 -71 -27q-16 0 -32.5 4.5t-31.5 15.5q-27 23 -51 40.5t-50 28.5
t-56 16.5t-71 5.5q-45 0 -84 -11t-67.5 -32t-45 -50t-16.5 -65q0 -42 22 -69t61 -45.5t91.5 -31t113.5 -25.5q70 -18 136.5 -44.5t118.5 -68.5t83.5 -102.5t31.5 -144.5t-34.5 -156t-95.5 -125.5t-143.5 -83.5t-177.5 -30q-76 0 -145 19.5t-126.5 53t-100.5 79t-67 96.5
q-13 26 -14.5 49t5.5 42t20.5 33.5t30.5 23.5q26 14 49 14q49 0 100 -65q42 -61 106 -94.5t150 -33.5q42 0 82.5 11t72.5 32.5t51.5 52.5t19.5 71q0 44 -20 71.5t-51.5 44.5t-71 27t-78.5 19zM579 -69q38 -7 70 -26.5t55 -48.5t36 -65.5t13 -77.5q0 -45 -17.5 -85t-47.5 -70
t-70 -47t-85 -17q-46 0 -86 17t-70 47t-47.5 70t-17.5 85q0 30 20.5 50.5t50.5 20.5q28 0 48 -20.5t20 -50.5v-1q2 -34 25.5 -57.5t57.5 -23.5q18 0 33 6.5t26.5 18t18 27t6.5 32.5q0 37 -24.5 60t-72.5 24h-5q-42 0 -59.5 16.5t-17.5 40.5v197q0 12 6.5 22.5t16 18.5
t22 12.5t24.5 4.5t24.5 -4.5t23 -12.5t17 -18.5t6.5 -22.5v-122z" />
    <glyph glyph-name="Scircumflex" unicode="&#x15c;" horiz-adv-x="999" 
d="M505 534q-96 18 -176 48t-138 76t-90.5 109t-32.5 145q0 84 35 153t93.5 119t136 77.5t161.5 27.5q59 0 116.5 -12t108.5 -35.5t93 -58.5t69 -82q9 -15 10.5 -31t-2 -31t-11 -28.5t-17.5 -22.5q-27 -27 -71 -27q-16 0 -32.5 4.5t-31.5 15.5q-27 23 -51 40.5t-50 28.5
t-56 16.5t-71 5.5q-45 0 -84 -11t-67.5 -32t-45 -50t-16.5 -65q0 -42 22 -69t61 -45.5t91.5 -31t113.5 -25.5q70 -18 136.5 -44.5t118.5 -68.5t83.5 -102.5t31.5 -144.5t-34.5 -156t-95.5 -125.5t-143.5 -83.5t-177.5 -30q-76 0 -145 19.5t-126.5 53t-100.5 79t-67 96.5
q-13 26 -14.5 49t5.5 42t20.5 33.5t30.5 23.5q26 14 49 14q49 0 100 -65q42 -61 106 -94.5t150 -33.5q42 0 82.5 11t72.5 32.5t51.5 52.5t19.5 71q0 44 -20 71.5t-51.5 44.5t-71 27t-78.5 19zM653 1416.09q14 -13.999 29.5 -19.999t30.5 -6q26 0 47.5 14.499t33 36.998
t9 48.4971t-25.5 49.9971l-208 208.987l-2 2q-28 25.998 -62 25.998q-37 0 -64 -26.998l-208 -209.987q-24 -23.999 -26.5 -49.9971t9 -48.4971t33.5 -36.998t47 -14.499q15 0 30.5 6t29.5 19.999l148 147.99z" />
    <glyph glyph-name="Sigma" unicode="&#x3a3;" horiz-adv-x="1009" 
d="M358 217h512q47 0 78.5 -29t31.5 -76q0 -23 -8.5 -43.5t-23.5 -35.5t-35 -24t-43 -9h-727q-26 0 -49 12q-21 8 -36 23q-17 17 -24 37t-5.5 41t10.5 41.5t23 39.5l366 449l-364 445q-14 18 -23 39t-11 42t4.5 41t23.5 36q19 18 41.5 26t48.5 8h722q23 0 43 -9t35 -24
t23.5 -35.5t8.5 -43.5q0 -47 -28 -76t-74 -29h-517l274 -336q9 -13 16 -26.5t11 -27.5q5 -15 5 -28q3 -35 -16 -63l-14 -22z" />
    <glyph glyph-name="T" unicode="T" horiz-adv-x="1078" 
d="M645 1063v-956q0 -22 -8.5 -42t-23.5 -34t-35 -22.5t-43 -8.5q-22 0 -41.5 8.5t-34 22.5t-23 34t-8.5 42v956h-299q-22 0 -42 8.5t-34.5 23.5t-23 35t-8.5 42q0 23 8.5 42.5t23 34t34.5 23t42 8.5h815q23 0 42.5 -8.5t34 -23.5t23 -34.5t8.5 -42.5t-8.5 -42.5t-23 -34
t-34 -23t-42.5 -8.5h-299z" />
    <glyph glyph-name="Tbar" unicode="&#x166;" horiz-adv-x="982" 
d="M97 603q0 40 27.5 67t67.5 27h191v366h-299q-22 0 -42 8.5t-34.5 23.5t-23 35t-8.5 42q0 23 8.5 42.5t23 34t34.5 23t42 8.5h815q23 0 42.5 -8.5t34 -23.5t23 -34.5t8.5 -42.5t-8.5 -42.5t-23 -34t-34 -23t-42.5 -8.5h-299v-366h162q20 0 38 -7.5t31 -20.5t20.5 -30
t7.5 -36q0 -41 -28 -70t-69 -29h-162v-397q0 -22 -8.5 -42t-23.5 -34t-35 -22.5t-43 -8.5q-22 0 -41.5 8.5t-34 22.5t-23 34t-8.5 42v397h-191q-20 0 -37.5 8t-30 21.5t-20 31.5t-7.5 38z" />
    <glyph glyph-name="Tcaron" unicode="&#x164;" horiz-adv-x="982" 
d="M600 1063v-956q0 -22 -8.5 -42t-23.5 -34t-35 -22.5t-43 -8.5q-22 0 -41.5 8.5t-34 22.5t-23 34t-8.5 42v956h-299q-22 0 -42 8.5t-34.5 23.5t-23 35t-8.5 42q0 23 8.5 42.5t23 34t34.5 23t42 8.5h815q23 0 42.5 -8.5t34 -23.5t23 -34.5t8.5 -42.5t-8.5 -42.5t-23 -34
t-34 -23t-42.5 -8.5h-299zM637 1753q14 14 29.5 20t30.5 6q26 0 47.5 -14.5t33 -37t9 -48.5t-25.5 -50l-208 -209l-2 -2q-28 -26 -62 -26q-37 0 -64 27l-208 210q-24 24 -26.5 50t9 48.5t33.5 37t47 14.5q15 0 30.5 -6t29.5 -20l148 -148z" />
    <glyph glyph-name="uni0162" unicode="&#x162;" horiz-adv-x="982" 
d="M600 1063v-956q0 -22 -8.5 -42t-23.5 -34t-35 -22.5t-43 -8.5q-22 0 -41.5 8.5t-34 22.5t-23 34t-8.5 42v956h-299q-22 0 -42 8.5t-34.5 23.5t-23 35t-8.5 42q0 23 8.5 42.5t23 34t34.5 23t42 8.5h815q23 0 42.5 -8.5t34 -23.5t23 -34.5t8.5 -42.5t-8.5 -42.5t-23 -34
t-34 -23t-42.5 -8.5h-299zM595 -480q0 -23 -8.5 -42.5t-22.5 -34t-33.5 -23t-42.5 -8.5q-22 0 -42 8.5t-35 23t-23.5 34t-8.5 42.5v272q0 22 9 42t24 34t35 22.5t43 8.5q22 0 41 -8.5t33.5 -22.5t22.5 -34t8 -42v-272z" />
    <glyph glyph-name="Theta" unicode="&#x398;" horiz-adv-x="1431" 
d="M944 750q23 0 43 -9t35 -24t24 -35.5t9 -43.5q0 -47 -32.5 -76t-78.5 -29h-461q-47 0 -78.5 29t-31.5 76q0 23 8.5 43.5t23.5 35.5t35 24t43 9h461zM713 1289q135 0 254 -51t207.5 -139.5t139.5 -207t51 -253.5q0 -90 -23.5 -173t-65.5 -155t-102 -131.5t-132 -102
t-155.5 -65.5t-173.5 -23q-135 0 -253.5 51t-206 139.5t-138 206.5t-50.5 253q0 90 23 173t65 155.5t101 132t131 101.5t155 65.5t173 23.5zM714 1072q-90 0 -168.5 -34t-137 -93t-92.5 -138t-34 -169q0 -91 34 -170t92.5 -137.5t137 -92t168.5 -33.5t169.5 33.5t138 92
t92.5 137.5t34 170q0 90 -34 169t-92.5 138t-138 93t-169.5 34z" />
    <glyph glyph-name="Thorn" unicode="&#xde;" horiz-adv-x="1052" 
d="M338 1100h203q99 0 186.5 -34.5t152.5 -95.5t102.5 -145t37.5 -183t-37.5 -182t-102.5 -143.5t-152 -94.5t-187 -34h-203v-81q0 -22 -8.5 -42t-23.5 -34t-34.5 -22.5t-42.5 -8.5q-22 0 -42 8.5t-34.5 22.5t-23 34t-8.5 42v1066q0 23 8.5 42.5t23 34t34.5 22.5t42 8
q23 0 42.5 -8t34.5 -22.5t23.5 -34t8.5 -42.5v-73zM338 883v-478h206q54 0 101.5 18.5t82 50.5t54.5 75t20 93q0 51 -20 95t-55 76.5t-82 51t-100 18.5h-207z" />
    <glyph glyph-name="U" unicode="U" horiz-adv-x="1339" 
d="M310 557q0 -74 30 -138t81 -111.5t118 -75t140 -27.5t137 27.5t111 75t74.5 111.5t27.5 138v616q0 23 8.5 42.5t23.5 34t35 22.5t42 8q23 0 42.5 -8t34 -22.5t23 -34t8.5 -42.5v-616q0 -117 -44.5 -221t-121.5 -181t-180.5 -122t-221.5 -45t-224 45t-186.5 122
t-127.5 181t-47 221v614q0 23 8.5 42.5t23 34t34.5 23t42 8.5q23 0 42.5 -8.5t34.5 -23t23.5 -34t8.5 -42.5v-614z" />
    <glyph glyph-name="Uacute" unicode="&#xda;" horiz-adv-x="1339" 
d="M310 557q0 -74 30 -138t81 -111.5t118 -75t140 -27.5t137 27.5t111 75t74.5 111.5t27.5 138v616q0 23 8.5 42.5t23.5 34t35 22.5t42 8q23 0 42.5 -8t34 -22.5t23 -34t8.5 -42.5v-616q0 -117 -44.5 -221t-121.5 -181t-180.5 -122t-221.5 -45t-224 45t-186.5 122
t-127.5 181t-47 221v614q0 23 8.5 42.5t23 34t34.5 23t42 8.5q23 0 42.5 -8.5t34.5 -23t23.5 -34t8.5 -42.5v-614zM801 1388q-17 -17 -37.5 -25t-40.5 -8q-44 0 -76 32q-16 16 -24.5 36t-8.5 41t8.5 41.5t24.5 36.5l126 127q16 17 36 24.5t41 7.5t41.5 -8t36.5 -24
q17 -16 25 -36t8 -40.5t-8.5 -40.5t-24.5 -36z" />
    <glyph glyph-name="Ubreve" unicode="&#x16c;" horiz-adv-x="1339" 
d="M310 557q0 -74 30 -138t81 -111.5t118 -75t140 -27.5t137 27.5t111 75t74.5 111.5t27.5 138v616q0 23 8.5 42.5t23.5 34t35 22.5t42 8q23 0 42.5 -8t34 -22.5t23 -34t8.5 -42.5v-616q0 -117 -44.5 -221t-121.5 -181t-180.5 -122t-221.5 -45t-224 45t-186.5 122
t-127.5 181t-47 221v614q0 23 8.5 42.5t23 34t34.5 23t42 8.5q23 0 42.5 -8.5t34.5 -23t23.5 -34t8.5 -42.5v-614zM758 1578q0 32 21 54t53 22t53 -22t21 -54q0 -47 -18 -89t-49.5 -73t-73 -49t-89.5 -18t-90 18t-73.5 49t-49.5 73t-18 89q0 32 22 54t52 22q32 0 54 -22
t22 -54v-3q1 -32 24 -55.5t57 -23.5q17 0 31.5 6.5t25.5 17t17.5 24.5t7.5 30v4z" />
    <glyph glyph-name="Ucircumflex" unicode="&#xdb;" horiz-adv-x="1339" 
d="M310 557q0 -74 30 -138t81 -111.5t118 -75t140 -27.5t137 27.5t111 75t74.5 111.5t27.5 138v616q0 23 8.5 42.5t23.5 34t35 22.5t42 8q23 0 42.5 -8t34 -22.5t23 -34t8.5 -42.5v-616q0 -117 -44.5 -221t-121.5 -181t-180.5 -122t-221.5 -45t-224 45t-186.5 122
t-127.5 181t-47 221v614q0 23 8.5 42.5t23 34t34.5 23t42 8.5q23 0 42.5 -8.5t34.5 -23t23.5 -34t8.5 -42.5v-614zM826 1388.09q14 -13.999 29.5 -19.999t30.5 -6q26 0 47.5 14.499t33 36.998t9 48.4971t-25.5 49.9971l-208 208.987l-2 2q-28 25.998 -62 25.998
q-37 0 -64 -26.998l-208 -209.987q-24 -23.999 -26.5 -49.9971t9 -48.4971t33.5 -36.998t47 -14.499q15 0 30.5 6t29.5 19.999l148 147.99z" />
    <glyph glyph-name="Udieresis" unicode="&#xdc;" horiz-adv-x="1339" 
d="M310 557q0 -74 30 -138t81 -111.5t118 -75t140 -27.5t137 27.5t111 75t74.5 111.5t27.5 138v616q0 23 8.5 42.5t23.5 34t35 22.5t42 8q23 0 42.5 -8t34 -22.5t23 -34t8.5 -42.5v-616q0 -117 -44.5 -221t-121.5 -181t-180.5 -122t-221.5 -45t-224 45t-186.5 122
t-127.5 181t-47 221v614q0 23 8.5 42.5t23 34t34.5 23t42 8.5q23 0 42.5 -8.5t34.5 -23t23.5 -34t8.5 -42.5v-614zM739 1490q0 24 9.5 46t26 38.5t38.5 26t46 9.5q25 0 47 -9.5t38 -26t25.5 -38.5t9.5 -46q0 -25 -9.5 -47t-25.5 -38t-38 -25.5t-47 -9.5q-24 0 -46 9.5
t-38.5 25.5t-26 38t-9.5 47zM361 1490q0 24 9.5 46t25.5 38.5t38 26t47 9.5q24 0 46 -9.5t38.5 -26t26 -38.5t9.5 -46q0 -25 -9.5 -47t-26 -38t-38.5 -25.5t-46 -9.5q-25 0 -47 9.5t-38 25.5t-25.5 38t-9.5 47z" />
    <glyph glyph-name="Ugrave" unicode="&#xd9;" horiz-adv-x="1339" 
d="M310 557q0 -74 30 -138t81 -111.5t118 -75t140 -27.5t137 27.5t111 75t74.5 111.5t27.5 138v616q0 23 8.5 42.5t23.5 34t35 22.5t42 8q23 0 42.5 -8t34 -22.5t23 -34t8.5 -42.5v-616q0 -117 -44.5 -221t-121.5 -181t-180.5 -122t-221.5 -45t-224 45t-186.5 122
t-127.5 181t-47 221v614q0 23 8.5 42.5t23 34t34.5 23t42 8.5q23 0 42.5 -8.5t34.5 -23t23.5 -34t8.5 -42.5v-614zM627.015 1395q16.999 -17 37.4971 -25q20.499 -8 40.498 -8q43.9971 0 75.9951 32q15.999 16 24.499 36q8.49902 20 8.49902 41t-8.49902 41.5
q-8.5 20.5 -24.499 36.5l-125.992 127q-15.999 17 -35.998 24.5q-19.998 7.5 -40.9971 7.5t-41.498 -8q-20.498 -8 -36.4971 -24q-16.999 -16 -24.999 -36q-7.99902 -20 -7.99902 -40.5t8.49902 -40.5q8.5 -20 24.499 -36z" />
    <glyph glyph-name="Uhungarumlaut" unicode="&#x170;" horiz-adv-x="1339" 
d="M310 557q0 -74 30 -138t81 -111.5t118 -75t140 -27.5t137 27.5t111 75t74.5 111.5t27.5 138v616q0 23 8.5 42.5t23.5 34t35 22.5t42 8q23 0 42.5 -8t34 -22.5t23 -34t8.5 -42.5v-616q0 -117 -44.5 -221t-121.5 -181t-180.5 -122t-221.5 -45t-224 45t-186.5 122
t-127.5 181t-47 221v614q0 23 8.5 42.5t23 34t34.5 23t42 8.5q23 0 42.5 -8.5t34.5 -23t23.5 -34t8.5 -42.5v-614zM527 1356q-14 -14 -31.5 -21t-35.5 -7t-35 7t-31 21q-27 28 -27.5 66t27.5 67l114 114q14 14 32 21t36 7q38 0 65 -27q29 -29 28.5 -67t-28.5 -65zM891 1356
q-14 -14 -31 -21t-35 -7t-35 7t-31 21q-28 28 -28.5 66t28.5 67l114 114q14 14 31.5 21t35.5 7t35 -6.5t31 -20.5q14 -15 21 -32t7 -35t-7 -34.5t-21 -30.5z" />
    <glyph glyph-name="Umacron" unicode="&#x16a;" horiz-adv-x="1339" 
d="M310 557q0 -74 30 -138t81 -111.5t118 -75t140 -27.5t137 27.5t111 75t74.5 111.5t27.5 138v616q0 23 8.5 42.5t23.5 34t35 22.5t42 8q23 0 42.5 -8t34 -22.5t23 -34t8.5 -42.5v-616q0 -117 -44.5 -221t-121.5 -181t-180.5 -122t-221.5 -45t-224 45t-186.5 122
t-127.5 181t-47 221v614q0 23 8.5 42.5t23 34t34.5 23t42 8.5q23 0 42.5 -8.5t34.5 -23t23.5 -34t8.5 -42.5v-614zM867 1564q40 0 67 -27t27 -65q0 -40 -27 -68.5t-67 -28.5h-388q-40 0 -66.5 28.5t-26.5 68.5q0 39 26.5 65.5t66.5 26.5h388z" />
    <glyph glyph-name="Uogonek" unicode="&#x172;" horiz-adv-x="1339" 
d="M310 557q0 -74 30 -138t81 -111.5t118 -75t140 -27.5t137 27.5t111 75t74.5 111.5t27.5 138v616q0 23 8.5 42.5t23.5 34t35 22.5t42 8q23 0 42.5 -8t34 -22.5t23 -34t8.5 -42.5v-616q0 -117 -44.5 -221t-121.5 -181t-180.5 -122t-221.5 -45t-224 45t-186.5 122
t-127.5 181t-47 221v614q0 23 8.5 42.5t23 34t34.5 23t42 8.5q23 0 42.5 -8.5t34.5 -23t23.5 -34t8.5 -42.5v-614zM1200 -73q-1 -45 -19.5 -84.5t-48.5 -69t-70 -46.5t-85 -17q-46 0 -86 17.5t-70 48t-47 71t-17 86.5q0 48 18 89.5t48 70.5q1 0 1 0.5t1 0.5l138 137
q10 11 30 11q18 0 36.5 -8t29.5 -19q17 -17 17 -40t-17 -41l-138 -136l-9 -7q-21 -24 -21 -57q0 -17 6.5 -32t18 -26.5t26.5 -18t33 -6.5q35 0 58.5 24t24.5 58q0 29 20.5 49t51.5 20q29 0 49.5 -20t20.5 -49v-6z" />
    <glyph glyph-name="Uring" unicode="&#x16e;" horiz-adv-x="1339" 
d="M310 557q0 -74 30 -138t81 -111.5t118 -75t140 -27.5t137 27.5t111 75t74.5 111.5t27.5 138v616q0 23 8.5 42.5t23.5 34t35 22.5t42 8q23 0 42.5 -8t34 -22.5t23 -34t8.5 -42.5v-616q0 -117 -44.5 -221t-121.5 -181t-180.5 -122t-221.5 -45t-224 45t-186.5 122
t-127.5 181t-47 221v614q0 23 8.5 42.5t23 34t34.5 23t42 8.5q23 0 42.5 -8.5t34.5 -23t23.5 -34t8.5 -42.5v-614zM602 1508q0 -30 21.5 -52t52.5 -22q32 0 53.5 22t21.5 52q0 32 -21.5 54t-53.5 22q-31 0 -52.5 -22t-21.5 -54zM453 1509q0 47 17.5 87.5t48 70.5t71 47.5
t86.5 17.5q47 0 88 -17.5t71 -47.5t47.5 -70.5t17.5 -87.5q0 -46 -17.5 -87t-47.5 -72t-71 -49t-88 -18q-46 0 -86.5 18t-71 49t-48 72t-17.5 87z" />
    <glyph glyph-name="Utilde" unicode="&#x168;" horiz-adv-x="1339" 
d="M310 557q0 -74 30 -138t81 -111.5t118 -75t140 -27.5t137 27.5t111 75t74.5 111.5t27.5 138v616q0 23 8.5 42.5t23.5 34t35 22.5t42 8q23 0 42.5 -8t34 -22.5t23 -34t8.5 -42.5v-616q0 -117 -44.5 -221t-121.5 -181t-180.5 -122t-221.5 -45t-224 45t-186.5 122
t-127.5 181t-47 221v614q0 23 8.5 42.5t23 34t34.5 23t42 8.5q23 0 42.5 -8.5t34.5 -23t23.5 -34t8.5 -42.5v-614zM348 1530q7 10 26 30t47 40.5t64.5 35.5t78.5 15q44 0 78.5 -15t67.5 -41q7 -6 17.5 -14t22.5 -15.5t25.5 -12.5t25.5 -5q47 0 98 68q0 -1 2 -1l1 1
q25 23 58 23q17 0 32.5 -6t27.5 -19q23 -25 24 -57t-20 -58q0 -4 -1 -5q-7 -10 -25.5 -30t-46.5 -40.5t-65 -36t-80 -15.5q-42 0 -78.5 17.5t-68.5 41.5q-7 5 -17 12.5t-21.5 14.5t-24.5 12t-25 5q-43 0 -87 -52q-10 -20 -31.5 -30.5t-42.5 -10.5q-35 0 -61 24
q-13 12 -19.5 28.5t-6.5 33.5t6 33t19 29z" />
    <glyph glyph-name="V" unicode="V" horiz-adv-x="1130" 
d="M9 1130q-9 21 -9 42.5t8.5 40.5t24 34.5t36.5 23.5t40 8q32 0 58.5 -17t40.5 -49l358 -835l357 835q13 31 40 48.5t59 17.5q19 0 40 -8t36 -23t23 -34t8.5 -40.5t-8.5 -42.5l-456 -1064q-14 -32 -41.5 -49.5t-59.5 -17.5q-9 0 -14 1q-1 0 -2 0.5t-3 0.5l-10 3
q-23 6 -41 21.5t-29 40.5z" />
    <glyph glyph-name="uniF776" unicode="&#xf776;" horiz-adv-x="902" 
d="M451 347l233 528q15 32 43 49.5t60 17.5q11 0 21 -1.5t20 -6.5q21 -9 36 -24.5t23 -35t8 -41.5t-9 -43l-333 -723q-10 -24 -29 -40t-42 -23l-5 -2q-5 -1 -11 -1.5t-11 -0.5q-35 0 -64 16t-42 51l-333 723q-9 21 -9 43t8.5 41.5t24 35t36.5 24.5q10 5 20 6.5t21 1.5
q32 0 59.5 -17.5t41.5 -49.5z" />
    <glyph glyph-name="W" unicode="W" horiz-adv-x="1683" 
d="M959 742l157 -366l359 838q14 32 40 49t58 17q19 0 41 -8q21 -8 36.5 -23t23.5 -34t8.5 -41t-8.5 -43l-457 -1064q-14 -32 -41.5 -49.5t-59.5 -17.5q-35 0 -62.5 17t-41.5 50l-171 399l-171 -399q-14 -32 -41.5 -49.5t-59.5 -17.5q-35 0 -62.5 17.5t-41.5 49.5l-456 1064
q-9 21 -9 42.5t8.5 40.5t24 34.5t36.5 23.5t40 8q31 0 57.5 -17t40.5 -49l359 -838l360 838q14 31 41.5 48.5t59.5 17.5q19 0 41 -8q21 -8 36 -23t23 -34t8 -41t-9 -43z" />
    <glyph glyph-name="W.alt" horiz-adv-x="1550" 
d="M335 1155.01q0 22.998 -9 42.9971t-24 34.998t-35 23.499q-20 8.49902 -43 8.49902t-43.5 -8.49902q-20.5 -8.5 -35.5 -23.499t-24 -34.998t-9 -42.9971v-767.953q0 -79.9951 30 -150.491q30 -70.4951 82.5 -122.992t123 -82.9951t151.5 -30.498t152 31.998t124 85.9951
q53 -53.9971 123.5 -85.9951t151.5 -31.998t152 30.498t123.5 82.9951t83 122.992q30.5 70.4961 30.5 150.491v767.953q0 22.998 -9 42.9971t-24 34.998t-35.5 23.499q-20.5 8.49902 -43.5 8.49902t-43.5 -8.49902q-20.5 -8.5 -35.5 -23.499t-24 -34.998t-9 -42.9971
v-757.954q0 -34.998 -13 -64.9961t-36 -51.9961q-23 -21.999 -53 -34.998t-65 -12.999q-34 0 -63 12.999t-51 34.998q-22 21.998 -34.5 51.4961t-12.5 62.4961v168.99q0 22.998 -9 43.4971t-24 35.498t-35.5 23.998q-20.5 9 -43.5 9t-43.5 -9q-20.5 -8.99902 -35.5 -23.998
t-24 -35.498t-9 -43.4971v-168.99q-1 -32.998 -13.5 -62.4961t-34 -51.4961q-21.5 -21.999 -51 -34.998t-64.5 -12.999q-34 0 -64 12.499t-52 33.998q-22 21.498 -35 50.9961q-13 29.499 -14 63.4961v761.954z" />
    <glyph glyph-name="Wacute" unicode="&#x1e82;" horiz-adv-x="1683" 
d="M959 742l157 -366l359 838q14 32 40 49t58 17q19 0 41 -8q21 -8 36.5 -23t23.5 -34t8.5 -41t-8.5 -43l-457 -1064q-14 -32 -41.5 -49.5t-59.5 -17.5q-35 0 -62.5 17t-41.5 50l-171 399l-171 -399q-14 -32 -41.5 -49.5t-59.5 -17.5q-35 0 -62.5 17.5t-41.5 49.5l-456 1064
q-9 21 -9 42.5t8.5 40.5t24 34.5t36.5 23.5t40 8q31 0 57.5 -17t40.5 -49l359 -838l360 838q14 31 41.5 48.5t59.5 17.5q19 0 41 -8q21 -8 36 -23t23 -34t8 -41t-9 -43zM1012 1417q-17 -17 -37.5 -25t-40.5 -8q-44 0 -76 32q-16 16 -24.5 36t-8.5 41t8.5 41.5t24.5 36.5
l126 127q16 17 36 24.5t41 7.5t41.5 -8t36.5 -24q17 -16 25 -36t8 -40.5t-8.5 -40.5t-24.5 -36z" />
    <glyph glyph-name="Wcircumflex" unicode="&#x174;" horiz-adv-x="1683" 
d="M959 742l157 -366l359 838q14 32 40 49t58 17q19 0 41 -8q21 -8 36.5 -23t23.5 -34t8.5 -41t-8.5 -43l-457 -1064q-14 -32 -41.5 -49.5t-59.5 -17.5q-35 0 -62.5 17t-41.5 50l-171 399l-171 -399q-14 -32 -41.5 -49.5t-59.5 -17.5q-35 0 -62.5 17.5t-41.5 49.5l-456 1064
q-9 21 -9 42.5t8.5 40.5t24 34.5t36.5 23.5t40 8q31 0 57.5 -17t40.5 -49l359 -838l360 838q14 31 41.5 48.5t59.5 17.5q19 0 41 -8q21 -8 36 -23t23 -34t8 -41t-9 -43zM1048 1407.09q14 -13.999 29.5 -19.999t30.5 -6q26 0 47.5 14.499t33 36.998t9 48.4971t-25.5 49.9971
l-208 208.987l-2 2q-28 25.998 -62 25.998q-37 0 -64 -26.998l-208 -209.987q-24 -23.999 -26.5 -49.9971t9 -48.4971t33.5 -36.998t47 -14.499q15 0 30.5 6t29.5 19.999l148 147.99z" />
    <glyph glyph-name="Wdieresis" unicode="&#x1e84;" horiz-adv-x="1683" 
d="M959 742l157 -366l359 838q14 32 40 49t58 17q19 0 41 -8q21 -8 36.5 -23t23.5 -34t8.5 -41t-8.5 -43l-457 -1064q-14 -32 -41.5 -49.5t-59.5 -17.5q-35 0 -62.5 17t-41.5 50l-171 399l-171 -399q-14 -32 -41.5 -49.5t-59.5 -17.5q-35 0 -62.5 17.5t-41.5 49.5l-456 1064
q-9 21 -9 42.5t8.5 40.5t24 34.5t36.5 23.5t40 8q31 0 57.5 -17t40.5 -49l359 -838l360 838q14 31 41.5 48.5t59.5 17.5q19 0 41 -8q21 -8 36 -23t23 -34t8 -41t-9 -43zM977 1516q0 24 9.5 46t26 38.5t38.5 26t46 9.5q25 0 47 -9.5t38 -26t25.5 -38.5t9.5 -46
q0 -25 -9.5 -47t-25.5 -38t-38 -25.5t-47 -9.5q-24 0 -46 9.5t-38.5 25.5t-26 38t-9.5 47zM599 1516q0 24 9.5 46t25.5 38.5t38 26t47 9.5q24 0 46 -9.5t38.5 -26t26 -38.5t9.5 -46q0 -25 -9.5 -47t-26 -38t-38.5 -25.5t-46 -9.5q-25 0 -47 9.5t-38 25.5t-25.5 38t-9.5 47z
" />
    <glyph glyph-name="Wgrave" unicode="&#x1e80;" horiz-adv-x="1683" 
d="M959 742l157 -366l359 838q14 32 40 49t58 17q19 0 41 -8q21 -8 36.5 -23t23.5 -34t8.5 -41t-8.5 -43l-457 -1064q-14 -32 -41.5 -49.5t-59.5 -17.5q-35 0 -62.5 17t-41.5 50l-171 399l-171 -399q-14 -32 -41.5 -49.5t-59.5 -17.5q-35 0 -62.5 17.5t-41.5 49.5l-456 1064
q-9 21 -9 42.5t8.5 40.5t24 34.5t36.5 23.5t40 8q31 0 57.5 -17t40.5 -49l359 -838l360 838q14 31 41.5 48.5t59.5 17.5q19 0 41 -8q21 -8 36 -23t23 -34t8 -41t-9 -43zM858.015 1425q16.999 -17 37.4971 -25q20.499 -8 40.498 -8q43.9971 0 75.9951 32q15.999 16 24.499 36
q8.49902 20 8.49902 41t-8.49902 41.5q-8.5 20.5 -24.499 36.5l-125.992 127q-15.999 17 -35.998 24.5q-19.998 7.5 -40.9971 7.5t-41.498 -8q-20.498 -8 -36.4971 -24q-16.999 -16 -24.999 -36q-7.99902 -20 -7.99902 -40.5t8.49902 -40.5q8.5 -20 24.499 -36z" />
    <glyph glyph-name="X" unicode="X" horiz-adv-x="1209" 
d="M605 795l393 447q16 18 36.5 27.5t41.5 9.5q37 0 67 -27q17 -15 26 -35t10.5 -41t-5 -41.5t-21.5 -37.5l-407 -462l402 -455q16 -17 23.5 -37.5t7.5 -41t-8 -39.5t-25 -34q-16 -14 -34.5 -21t-38.5 -7q-22 0 -43 9t-37 27l-388 439l-387 -439q-17 -18 -37.5 -27t-43.5 -9
q-19 0 -37.5 7t-34.5 21q-16 15 -24.5 34t-8.5 39.5t7.5 41t23.5 37.5l401 455l-409 463q-15 17 -21.5 37.5t-5 41.5t11 40.5t25.5 34.5q30 27 67 27q45 0 79 -37z" />
    <glyph glyph-name="Xi" unicode="&#x39e;" horiz-adv-x="952" 
d="M132 0q-47 0 -75.5 32.5t-28.5 79.5t28.5 76t75.5 29h681q47 0 78.5 -30t31.5 -77q0 -48 -31 -79t-79 -31h-681zM682 766q23 0 43.5 -8.5t35.5 -23.5t24 -35t9 -43q0 -47 -32.5 -77t-79.5 -30h-413q-47 0 -79 29t-32 76q0 23 8.5 43.5t23.5 35.5t35.5 24t43.5 9h413z
M813 1280q23 0 43 -9t35 -24t23.5 -35.5t8.5 -43.5q0 -47 -31.5 -76t-78.5 -29h-673q-23 0 -43.5 7.5t-35.5 21t-24 33t-9 43.5q0 23 9 43t24 35.5t35.5 24.5t43.5 9h673z" />
    <glyph glyph-name="Y" unicode="Y" horiz-adv-x="1142" 
d="M572 710l391 533q16 19 37 28t44 9q39 0 70 -26q17 -14 27 -32t12 -38.5t-4 -42t-22 -42.5l-446 -578v-414q0 -22 -8.5 -42t-23 -34t-34 -22.5t-42.5 -8.5q-22 0 -42 8.5t-35 22.5t-23.5 34t-8.5 42v413l-449 577q-15 17 -21.5 37.5t-5 41.5t11 41t27.5 35q15 14 34 21
t39 7q23 0 43.5 -9.5t35.5 -29.5z" />
    <glyph glyph-name="Yacute" unicode="&#xdd;" horiz-adv-x="1142" 
d="M572 710l391 533q16 19 37 28t44 9q39 0 70 -26q17 -14 27 -32t12 -38.5t-4 -42t-22 -42.5l-446 -578v-414q0 -22 -8.5 -42t-23 -34t-34 -22.5t-42.5 -8.5q-22 0 -42 8.5t-35 22.5t-23.5 34t-8.5 42v413l-449 577q-15 17 -21.5 37.5t-5 41.5t11 41t27.5 35q15 14 34 21
t39 7q23 0 43.5 -9.5t35.5 -29.5zM705 1398q-17 -17 -37.5 -25t-40.5 -8q-44 0 -76 32q-16 16 -24.5 36t-8.5 41t8.5 41.5t24.5 36.5l126 127q16 17 36 24.5t41 7.5t41.5 -8t36.5 -24q17 -16 25 -36t8 -40.5t-8.5 -40.5t-24.5 -36z" />
    <glyph glyph-name="Ycircumflex" unicode="&#x176;" horiz-adv-x="1142" 
d="M572 710l391 533q16 19 37 28t44 9q39 0 70 -26q17 -14 27 -32t12 -38.5t-4 -42t-22 -42.5l-446 -578v-414q0 -22 -8.5 -42t-23 -34t-34 -22.5t-42.5 -8.5q-22 0 -42 8.5t-35 22.5t-23.5 34t-8.5 42v413l-449 577q-15 17 -21.5 37.5t-5 41.5t11 41t27.5 35q15 14 34 21
t39 7q23 0 43.5 -9.5t35.5 -29.5zM751 1394.09q14 -13.999 29.5 -19.999t30.5 -6q26 0 47.5 14.499t33 36.998t9 48.4971t-25.5 49.9971l-208 208.987l-2 2q-28 25.998 -62 25.998q-37 0 -64 -26.998l-208 -209.987q-24 -23.999 -26.5 -49.9971t9 -48.4971t33.5 -36.998
t47 -14.499q15 0 30.5 6t29.5 19.999l148 147.99z" />
    <glyph glyph-name="Ydieresis" unicode="&#x178;" horiz-adv-x="1142" 
d="M572 710l391 533q16 19 37 28t44 9q39 0 70 -26q17 -14 27 -32t12 -38.5t-4 -42t-22 -42.5l-446 -578v-414q0 -22 -8.5 -42t-23 -34t-34 -22.5t-42.5 -8.5q-22 0 -42 8.5t-35 22.5t-23.5 34t-8.5 42v413l-449 577q-15 17 -21.5 37.5t-5 41.5t11 41t27.5 35q15 14 34 21
t39 7q23 0 43.5 -9.5t35.5 -29.5zM660 1466q0 24 9.5 46t26 38.5t38.5 26t46 9.5q25 0 47 -9.5t38 -26t25.5 -38.5t9.5 -46q0 -25 -9.5 -47t-25.5 -38t-38 -25.5t-47 -9.5q-24 0 -46 9.5t-38.5 25.5t-26 38t-9.5 47zM282 1466q0 24 9.5 46t25.5 38.5t38 26t47 9.5
q24 0 46 -9.5t38.5 -26t26 -38.5t9.5 -46q0 -25 -9.5 -47t-26 -38t-38.5 -25.5t-46 -9.5q-25 0 -47 9.5t-38 25.5t-25.5 38t-9.5 47z" />
    <glyph glyph-name="Ygrave" unicode="&#x1ef2;" horiz-adv-x="1142" 
d="M572 710l391 533q16 19 37 28t44 9q39 0 70 -26q17 -14 27 -32t12 -38.5t-4 -42t-22 -42.5l-446 -578v-414q0 -22 -8.5 -42t-23 -34t-34 -22.5t-42.5 -8.5q-22 0 -42 8.5t-35 22.5t-23.5 34t-8.5 42v413l-449 577q-15 17 -21.5 37.5t-5 41.5t11 41t27.5 35q15 14 34 21
t39 7q23 0 43.5 -9.5t35.5 -29.5zM498.015 1410q16.999 -17 37.4971 -25q20.499 -8 40.498 -8q43.9971 0 75.9951 32q15.999 16 24.499 36q8.49902 20 8.49902 41t-8.49902 41.5q-8.5 20.5 -24.499 36.5l-125.992 127q-15.999 17 -35.998 24.5q-19.998 7.5 -40.9971 7.5
t-41.498 -8q-20.498 -8 -36.4971 -24q-16.999 -16 -24.999 -36q-7.99902 -20 -7.99902 -40.5t8.49902 -40.5q8.5 -20 24.499 -36z" />
    <glyph glyph-name="Z" unicode="Z" horiz-adv-x="1189" 
d="M157 0q-26 0 -44 4.5t-39 22.5q-38 34 -36 81q0 6 2 16q3 23 17 43q5 8 10 13l740 883h-649q-22 0 -42 8.5t-34.5 23t-23 34.5t-8.5 42q0 23 9 43t24 34.5t35 23t43 8.5h869q27 -2 47 -13q16 -7 26 -16q17 -15 26 -34t10.5 -40t-5 -41.5t-21.5 -37.5l-737 -881h670
q23 0 42.5 -8.5t33.5 -23t22.5 -34t8.5 -42.5t-8.5 -43t-22.5 -34.5t-33.5 -23t-42.5 -8.5h-889z" />
    <glyph glyph-name="Zacute" unicode="&#x179;" horiz-adv-x="1189" 
d="M157 0q-26 0 -44 4.5t-39 22.5q-38 34 -36 81q0 6 2 16q3 23 17 43q5 8 10 13l740 883h-649q-22 0 -42 8.5t-34.5 23t-23 34.5t-8.5 42q0 23 9 43t24 34.5t35 23t43 8.5h869q27 -2 47 -13q16 -7 26 -16q17 -15 26 -34t10.5 -40t-5 -41.5t-21.5 -37.5l-737 -881h670
q23 0 42.5 -8.5t33.5 -23t22.5 -34t8.5 -42.5t-8.5 -43t-22.5 -34.5t-33.5 -23t-42.5 -8.5h-889zM710 1430q-17 -17 -37.5 -25t-40.5 -8q-44 0 -76 32q-16 16 -24.5 36t-8.5 41t8.5 41.5t24.5 36.5l126 127q16 17 36 24.5t41 7.5t41.5 -8t36.5 -24q17 -16 25 -36t8 -40.5
t-8.5 -40.5t-24.5 -36z" />
    <glyph glyph-name="Zcaron" unicode="&#x17d;" horiz-adv-x="1189" 
d="M157 0q-26 0 -44 4.5t-39 22.5q-38 34 -36 81q0 6 2 16q3 23 17 43q5 8 10 13l740 883h-649q-22 0 -42 8.5t-34.5 23t-23 34.5t-8.5 42q0 23 9 43t24 34.5t35 23t43 8.5h869q27 -2 47 -13q16 -7 26 -16q17 -15 26 -34t10.5 -40t-5 -41.5t-21.5 -37.5l-737 -881h670
q23 0 42.5 -8.5t33.5 -23t22.5 -34t8.5 -42.5t-8.5 -43t-22.5 -34.5t-33.5 -23t-42.5 -8.5h-889zM793 1759q14 14 29.5 20t30.5 6q26 0 47.5 -14.5t33 -37t9 -48.5t-25.5 -50l-208 -209l-2 -2q-28 -26 -62 -26q-37 0 -64 27l-208 210q-24 24 -26.5 50t9 48.5t33.5 37
t47 14.5q15 0 30.5 -6t29.5 -20l148 -148z" />
    <glyph glyph-name="Zdotaccent" unicode="&#x17b;" horiz-adv-x="1189" 
d="M157 0q-26 0 -44 4.5t-39 22.5q-38 34 -36 81q0 6 2 16q3 23 17 43q5 8 10 13l740 883h-649q-22 0 -42 8.5t-34.5 23t-23 34.5t-8.5 42q0 23 9 43t24 34.5t35 23t43 8.5h869q27 -2 47 -13q16 -7 26 -16q17 -15 26 -34t10.5 -40t-5 -41.5t-21.5 -37.5l-737 -881h670
q23 0 42.5 -8.5t33.5 -23t22.5 -34t8.5 -42.5t-8.5 -43t-22.5 -34.5t-33.5 -23t-42.5 -8.5h-889zM491 1508q0 26 10 49.5t27.5 41t41 27.5t49.5 10t49.5 -10t41 -27.5t27.5 -41t10 -49.5t-10 -49.5t-27.5 -41t-41 -27.5t-49.5 -10t-49.5 10t-41 27.5t-27.5 41t-10 49.5z" />
    <glyph glyph-name="aacute" unicode="&#xe1;" horiz-adv-x="1094" 
d="M44 465q0 99 38 185.5t103 151.5t151.5 102.5t184.5 37.5q99 0 186 -37.5t151.5 -102.5t101.5 -151.5t37 -185.5v-354q0 -23 -8.5 -43t-23.5 -35t-35.5 -24t-43.5 -9q-39 0 -66 23t-36 58q-57 -43 -123.5 -68t-139.5 -25q-98 0 -184.5 37.5t-151.5 102.5t-103 152
t-38 185zM261 465q0 -53 20.5 -100.5t56 -83t82.5 -56t101 -20.5t101.5 20.5t82.5 56t55 83t20 100.5q0 54 -20 101.5t-55 82.5t-82.5 55.5t-101.5 20.5q-53 0 -100.5 -20.5t-83 -55.5t-56 -82.5t-20.5 -101.5zM671 1104q-17 -17 -37.5 -25t-40.5 -8q-44 0 -76 32
q-16 16 -24.5 36t-8.5 41t8.5 41.5t24.5 36.5l126 127q16 17 36 24.5t41 7.5t41.5 -8t36.5 -24q17 -16 25 -36t8 -40.5t-8.5 -40.5t-24.5 -36z" />
    <glyph glyph-name="abreve" unicode="&#x103;" horiz-adv-x="1094" 
d="M44 465q0 99 38 185.5t103 151.5t151.5 102.5t184.5 37.5q99 0 186 -37.5t151.5 -102.5t101.5 -151.5t37 -185.5v-354q0 -23 -8.5 -43t-23.5 -35t-35.5 -24t-43.5 -9q-39 0 -66 23t-36 58q-57 -43 -123.5 -68t-139.5 -25q-98 0 -184.5 37.5t-151.5 102.5t-103 152
t-38 185zM261 465q0 -53 20.5 -100.5t56 -83t82.5 -56t101 -20.5t101.5 20.5t82.5 56t55 83t20 100.5q0 54 -20 101.5t-55 82.5t-82.5 55.5t-101.5 20.5q-53 0 -100.5 -20.5t-83 -55.5t-56 -82.5t-20.5 -101.5zM631 1300q0 32 21 54t53 22t53 -22t21 -54q0 -47 -18 -89
t-49.5 -73t-73 -49t-89.5 -18t-90 18t-73.5 49t-49.5 73t-18 89q0 32 22 54t52 22q32 0 54 -22t22 -54v-3q1 -32 24 -55.5t57 -23.5q17 0 31.5 6.5t25.5 17t17.5 24.5t7.5 30v4z" />
    <glyph glyph-name="acircumflex" unicode="&#xe2;" horiz-adv-x="1094" 
d="M44 465q0 99 38 185.5t103 151.5t151.5 102.5t184.5 37.5q99 0 186 -37.5t151.5 -102.5t101.5 -151.5t37 -185.5v-354q0 -23 -8.5 -43t-23.5 -35t-35.5 -24t-43.5 -9q-39 0 -66 23t-36 58q-57 -43 -123.5 -68t-139.5 -25q-98 0 -184.5 37.5t-151.5 102.5t-103 152
t-38 185zM261 465q0 -53 20.5 -100.5t56 -83t82.5 -56t101 -20.5t101.5 20.5t82.5 56t55 83t20 100.5q0 54 -20 101.5t-55 82.5t-82.5 55.5t-101.5 20.5q-53 0 -100.5 -20.5t-83 -55.5t-56 -82.5t-20.5 -101.5zM671 1089.09q14 -13.999 29.5 -19.999t30.5 -6
q26 0 47.5 14.499t33 36.998t9 48.4971t-25.5 49.9971l-208 208.987l-2 2q-28 25.998 -62 25.998q-37 0 -64 -26.998l-208 -209.987q-24 -23.999 -26.5 -49.9971t9 -48.4971t33.5 -36.998t47 -14.499q15 0 30.5 6t29.5 19.999l148 147.99z" />
    <glyph glyph-name="acute" unicode="&#xb4;" horiz-adv-x="469" 
d="M237 1482q-17 -17 -37.5 -25t-40.5 -8q-44 0 -76 32q-16 16 -24.5 36t-8.5 41t8.5 41.5t24.5 36.5l126 127q16 17 36 24.5t41 7.5t41.5 -8t36.5 -24q17 -16 25 -36t8 -40.5t-8.5 -40.5t-24.5 -36z" />
    <glyph glyph-name="adieresis" unicode="&#xe4;" horiz-adv-x="1094" 
d="M44 465q0 99 38 185.5t103 151.5t151.5 102.5t184.5 37.5q99 0 186 -37.5t151.5 -102.5t101.5 -151.5t37 -185.5v-354q0 -23 -8.5 -43t-23.5 -35t-35.5 -24t-43.5 -9q-39 0 -66 23t-36 58q-57 -43 -123.5 -68t-139.5 -25q-98 0 -184.5 37.5t-151.5 102.5t-103 152
t-38 185zM261 465q0 -53 20.5 -100.5t56 -83t82.5 -56t101 -20.5t101.5 20.5t82.5 56t55 83t20 100.5q0 54 -20 101.5t-55 82.5t-82.5 55.5t-101.5 20.5q-53 0 -100.5 -20.5t-83 -55.5t-56 -82.5t-20.5 -101.5zM592 1195q0 24 9.5 46t26 38.5t38.5 26t46 9.5q25 0 47 -9.5
t38 -26t25.5 -38.5t9.5 -46q0 -25 -9.5 -47t-25.5 -38t-38 -25.5t-47 -9.5q-24 0 -46 9.5t-38.5 25.5t-26 38t-9.5 47zM214 1195q0 24 9.5 46t25.5 38.5t38 26t47 9.5q24 0 46 -9.5t38.5 -26t26 -38.5t9.5 -46q0 -25 -9.5 -47t-26 -38t-38.5 -25.5t-46 -9.5q-25 0 -47 9.5
t-38 25.5t-25.5 38t-9.5 47z" />
    <glyph glyph-name="ae" unicode="&#xe6;" horiz-adv-x="1793" 
d="M1027 368q26 -75 90 -119.5t147 -44.5q51 0 92 14t69 40q20 14 39 20.5t36 6.5q29 0 50 -14t37 -38q19 -32 16 -72t-41 -71q-22 -20 -50 -38.5t-64 -32.5t-81.5 -22.5t-102.5 -8.5q-75 0 -143.5 22t-126.5 61q-12 -31 -40 -51t-64 -20q-40 0 -67 23t-35 58
q-57 -43 -123.5 -68t-139.5 -25q-98 0 -184.5 37.5t-151.5 102.5t-103 152t-38 185q0 99 38 185.5t103 151.5t151.5 102.5t184.5 37.5q112 0 207 -47.5t161 -128.5q66 81 162.5 128.5t208.5 47.5q98 0 184.5 -37t151.5 -100.5t103.5 -149.5t39.5 -184q0 -46 -29.5 -74.5
t-77.5 -28.5h-609zM265 465q0 -53 20.5 -100.5t56 -83t82.5 -56t101 -20.5t101.5 20.5t82.5 56t55 83t20 100.5q0 54 -20 101.5t-55 82.5t-82.5 55.5t-101.5 20.5t-101 -20.5t-82.5 -55.5t-56 -82.5t-20.5 -101.5zM1520 548q-11 41 -34.5 74t-56.5 56t-74 35t-87 12
t-86.5 -12.5t-72.5 -36t-55 -56t-34 -72.5h500z" />
    <glyph glyph-name="aeacute" unicode="&#x1fd;" horiz-adv-x="1793" 
d="M1021 1066q-17 -17 -37.5 -25t-40.5 -8q-44 0 -76 32q-16 16 -24.5 36t-8.5 41t8.5 41.5t24.5 36.5l126 127q16 17 36 24.5t41 7.5t41.5 -8t36.5 -24q17 -16 25 -36t8 -40.5t-8.5 -40.5t-24.5 -36zM1027 368q26 -75 90 -119.5t147 -44.5q51 0 92 14t69 40q20 14 39 20.5
t36 6.5q29 0 50 -14t37 -38q19 -32 16 -72t-41 -71q-22 -20 -50 -38.5t-64 -32.5t-81.5 -22.5t-102.5 -8.5q-75 0 -143.5 22t-126.5 61q-12 -31 -40 -51t-64 -20q-40 0 -67 23t-35 58q-57 -43 -123.5 -68t-139.5 -25q-98 0 -184.5 37.5t-151.5 102.5t-103 152t-38 185
q0 99 38 185.5t103 151.5t151.5 102.5t184.5 37.5q112 0 207 -47.5t161 -128.5q66 81 162.5 128.5t208.5 47.5q98 0 184.5 -37t151.5 -100.5t103.5 -149.5t39.5 -184q0 -46 -29.5 -74.5t-77.5 -28.5h-609zM265 465q0 -53 20.5 -100.5t56 -83t82.5 -56t101 -20.5t101.5 20.5
t82.5 56t55 83t20 100.5q0 54 -20 101.5t-55 82.5t-82.5 55.5t-101.5 20.5t-101 -20.5t-82.5 -55.5t-56 -82.5t-20.5 -101.5zM1520 548q-11 41 -34.5 74t-56.5 56t-74 35t-87 12t-86.5 -12.5t-72.5 -36t-55 -56t-34 -72.5h500z" />
    <glyph glyph-name="uni0411" unicode="&#x411;" horiz-adv-x="1141" 
d="M232 0q-23 0 -43 8.5t-35 23.5t-24 35t-9 43v1058q0 23 9 43.5t24 35.5l14 12q25 19 61 21h622q23 0 43.5 -8.5t35.5 -23t23.5 -34.5t8.5 -43q0 -47 -32 -77.5t-79 -30.5h-513v-290h336q81 0 151.5 -31.5t123 -85t82.5 -124.5t30 -151t-30 -149.5t-82.5 -121t-123 -81
t-151.5 -29.5h-442zM338 556v-339h334q36 0 67 14t54.5 38t37 55.5t13.5 67.5q0 37 -13.5 67t-37.5 52t-55.5 33.5t-67.5 11.5h-332z" />
    <glyph glyph-name="uni0414" unicode="&#x414;" horiz-adv-x="1292" 
d="M1247 -174q0 -23 -8.5 -42.5t-23 -34.5t-34 -23.5t-42.5 -8.5t-43 8.5t-34.5 23.5t-23 34.5t-8.5 42.5v174h-781v-174q0 -23 -8 -42.5t-22.5 -34.5t-33.5 -23.5t-42 -8.5t-43 8.5t-35 23.5t-24 34.5t-9 42.5v286q0 26 9.5 45.5t26 33t37.5 20.5t45 7q21 0 38.5 14t30 35
t19.5 46.5t8 49.5v805q0 33 19 62t50 41l17 6q2 0 4 0.5t4 0.5q8 2 13 2h655q23 0 42.5 -8.5t34 -23t23 -34.5t8.5 -43v-954q5 1 11 1.5t12 0.5q23 0 42.5 -8.5t34 -23.5t23 -34.5t8.5 -42.5v-284zM463 361q-2 -83 -16 -144h452v846h-436v-702z" />
    <glyph glyph-name="uni0416" unicode="&#x416;" horiz-adv-x="1739" 
d="M1603 1279q23 0 43.5 -8.5t35.5 -23t23.5 -34t8.5 -42.5q0 -47 -32 -78t-79 -31h-60l-344 -381l441 -493q17 -17 25 -37.5t7.5 -42t-9 -42t-25.5 -36.5q-29 -29 -66 -29q-43 0 -79 36l-518 577h-4v-502q0 -47 -29.5 -79.5t-76.5 -32.5q-23 0 -43 8.5t-35 23.5t-24 35
t-9 43v502h-7l-510 -578q-33 -35 -76 -35q-37 0 -69 29q-16 17 -24.5 37.5t-8.5 42.5t8 43t24 38l438 496l-343 378h-52q-23 0 -43 8.5t-34.5 23t-23 34.5t-8.5 42q0 23 8.5 42.5t23 34.5t34.5 23.5t43 8.5h107q22 0 43 -7.5t35 -24.5l364 -417h71v337q0 23 9 43t24 35
t35 23.5t43 8.5q48 0 77 -31t29 -78v-336h80l356 400q7 10 15 17q20 21 49 26q12 3 27 3h105z" />
    <glyph glyph-name="uni0417" unicode="&#x417;" horiz-adv-x="913" 
d="M482 752q30 0 57 13t47.5 34.5t32 50.5t11.5 60t-12.5 58t-33 47.5t-47.5 33.5t-57 14h-339q-47 0 -79.5 29t-32.5 76q0 23 9 43.5t24 35.5t35.5 24t43.5 9h337q76 0 143.5 -29t117.5 -79t79.5 -118t29.5 -146q0 -79 -29.5 -147.5t-80.5 -119.5q51 -51 80.5 -120.5
t29.5 -148.5q0 -77 -29.5 -145t-79.5 -118.5t-117.5 -79.5t-143.5 -29h-337q-23 0 -43.5 9t-35.5 24t-24 35.5t-9 43.5q0 47 32.5 76t79.5 29h345q30 1 56.5 14t46 34.5t31 49.5t11.5 59t-12 60t-32 51t-47.5 35.5t-58.5 13.5h-184q-23 0 -46 8.5t-41.5 23t-30 34
t-11.5 42.5t9 43t24 35t35.5 23.5t43.5 8.5h202z" />
    <glyph glyph-name="uni041B" unicode="&#x41b;" horiz-adv-x="1339" 
d="M4 107q0 23 9 43t24 34t35.5 22t42.5 8q93 0 131.5 41.5t38.5 135.5v777q0 23 8 43t22.5 35t34 24t41.5 10h732q23 0 43.5 -9t35.5 -24t24 -35.5t9 -43.5v-1058q0 -23 -9 -43.5t-24 -35.5t-35.5 -24t-43.5 -9q-47 0 -76 32.5t-29 79.5v953h-516v-682q-1 -90 -27.5 -161
t-75 -120t-119 -75.5t-159.5 -27.5h-6q-22 0 -42.5 9t-35.5 24t-24 35t-9 42z" />
    <glyph glyph-name="uni041D" unicode="&#x41d;" horiz-adv-x="1352" 
d="M338 747h676v426q0 23 9 42.5t24 33.5t35 22.5t43 8.5t42 -8.5t33.5 -22.5t22.5 -33.5t8 -42.5v-1066q0 -22 -8.5 -42t-23 -34t-34 -22.5t-42.5 -8.5q-22 0 -42 8.5t-35 22.5t-23.5 34t-8.5 42v422h-676v-422q0 -22 -8.5 -42t-23.5 -34t-34.5 -22.5t-42.5 -8.5
q-22 0 -42 8.5t-34.5 22.5t-23 34t-8.5 42v1066q0 23 8.5 42.5t23 33.5t34.5 22.5t42 8.5q23 0 42.5 -8.5t34.5 -22.5t23.5 -33.5t8.5 -42.5v-426z" />
    <glyph glyph-name="uni041F" unicode="&#x41f;" horiz-adv-x="1289" 
d="M1174 110q0 -23 -9 -43t-24 -35t-35.5 -23.5t-43.5 -8.5q-47 0 -76 31.5t-29 78.5v953h-619v-953q0 -47 -29.5 -78.5t-76.5 -31.5q-23 0 -43 8.5t-35 23.5t-24 35t-9 43v1058q0 23 8.5 43.5t23.5 35.5t35 24t43 9h835q23 -1 42.5 -10t34 -24t23 -35t8.5 -43v-1058z" />
    <glyph glyph-name="uni0423" unicode="&#x423;" horiz-adv-x="961" 
d="M481 653l247 560q14 32 42 49.5t60 17.5q11 0 21 -1.5t20 -6.5q21 -9 36 -24.5t23 -35t8.5 -41.5t-8.5 -43l-339 -739l-14 -33q-45 -97 -86 -166.5t-87 -114t-102 -66.5t-131 -24q-3 -1 -6.5 -1h-6.5q-45 0 -77.5 26t-32.5 71q0 26 9.5 46.5t25.5 35t37.5 22.5t46.5 8
q44 0 72 11t48.5 32.5t37 53.5t36.5 74l10 26l-338 738q-9 21 -9 43t8.5 41.5t24 35t36.5 24.5q10 5 20 6.5t21 1.5q32 0 59.5 -17.5t41.5 -49.5z" />
    <glyph glyph-name="uni0424" unicode="&#x424;" horiz-adv-x="1203" 
d="M703 1149q101 -15 189 -56t153.5 -105.5t103.5 -150.5t38 -190t-38 -190.5t-103.5 -151t-153.5 -105.5t-189 -56v-34q0 -23 -9 -43t-24 -35t-35.5 -23.5t-43.5 -8.5t-43.5 8.5t-35.5 23.5t-24 35t-9 43v35q-99 16 -186 57.5t-151.5 106t-101.5 150t-37 188.5t37 188
t101.5 149.5t151.5 106t186 57.5v21q0 23 9 43t24 35t35.5 23.5t43.5 8.5t43.5 -8.5t35.5 -23.5t24 -35t9 -43v-20zM970 647q0 58 -21 105t-57 82.5t-84.5 59.5t-104.5 35v-565q56 11 104.5 34.5t84.5 59t57 83t21 106.5zM220 647q0 -58 20 -104.5t55.5 -81.5t82.5 -58.5
t101 -35.5v560q-54 -12 -101 -36t-82.5 -59.5t-55.5 -81.5t-20 -103z" />
    <glyph glyph-name="uni0426" unicode="&#x426;" horiz-adv-x="1363" 
d="M338 217h641v951q0 47 29 79.5t76 32.5q23 0 43.5 -9t35.5 -24t24 -35.5t9 -43.5v-951h28q47 0 78.5 -29t31.5 -76v-239q0 -23 -8.5 -43t-23 -35t-34 -23.5t-42.5 -8.5q-47 0 -78 31.5t-31 78.5v127h-888q-22 0 -42 9t-34.5 24t-23 35t-8.5 44v1056q0 23 9 43.5t24 35.5
t35 24t43 9q47 0 76.5 -32.5t29.5 -79.5v-951z" />
    <glyph glyph-name="uni0427" unicode="&#x427;" horiz-adv-x="1159" 
d="M72 1173q0 23 8 42.5t22.5 33.5t34.5 22.5t42 8.5q23 0 43 -8.5t35 -22.5t23.5 -33.5t8.5 -42.5v-368q0 -55 20 -103t54.5 -84t81.5 -57t101 -21q55 0 105.5 20.5t89 56.5t61.5 84.5t23 103.5v364q0 23 8.5 43t23 34.5t34.5 23t42 8.5q23 0 43 -8.5t35 -23t23.5 -34.5
t8.5 -43v-1060q0 -23 -8.5 -43.5t-23.5 -35.5t-35 -23.5t-43 -8.5q-22 0 -42 8.5t-34.5 23.5t-23 35.5t-8.5 43.5v310q-64 -45 -135.5 -69.5t-143.5 -24.5q-99 0 -185.5 37.5t-150.5 103t-101 153t-37 186.5v368z" />
    <glyph glyph-name="uni0428" unicode="&#x428;" horiz-adv-x="1694" 
d="M338 217h414v952q0 47 30 79t77 32q23 0 43 -8.5t35 -23.5t23.5 -35.5t8.5 -43.5v-952h392v947q0 23 7.5 44t21.5 37t33.5 25.5t42.5 9.5t43.5 -8.5t35.5 -23.5t24 -35.5t9 -43.5v-1059q0 -22 -8.5 -42t-23 -35t-34 -24t-42.5 -9h-1238q-23 0 -43 8.5t-35 23.5t-24 35
t-9 43v1059q0 23 9 43.5t24 35.5t35 23.5t43 8.5q47 0 76.5 -32t29.5 -79v-952z" />
    <glyph glyph-name="uni0429" unicode="&#x429;" horiz-adv-x="1726" 
d="M1578 217h23l16 -2l10 -3q34 -9 55.5 -36t22.5 -65v-238q0 -23 -8.5 -43t-23 -35t-34 -23.5t-42.5 -8.5t-43.5 8.5t-35.5 23.5t-23.5 35t-8.5 43v127h-1254q-23 0 -43 8.5t-35 23.5t-24 35t-9 43v1059q0 23 9 43.5t24 35.5t35 23.5t43 8.5q47 0 76.5 -32t29.5 -79v-952
h413v952q0 47 30 79t77 32q23 0 43 -8.5t35 -23.5t23.5 -35.5t8.5 -43.5v-952h393v947q0 23 7.5 44t21.5 37t33.5 25.5t42.5 9.5t43.5 -8.5t35.5 -23.5t24 -35.5t9 -43.5v-952z" />
    <glyph glyph-name="uni042A" unicode="&#x42a;" horiz-adv-x="1229" 
d="M400 1280q45 0 73.5 -26.5t31.5 -70.5v-29v-403h322q78 0 146.5 -30.5t119 -83t80 -122t29.5 -146.5q0 -78 -29.5 -145t-80 -117t-119 -78.5t-146.5 -28.5h-427q-23 0 -43.5 8.5t-35.5 23.5t-24 35t-9 43v953h-168q-47 0 -79.5 29t-32.5 76q0 23 9 43.5t24 35.5t35.5 24
t43.5 9h280zM505 534v-317h319q32 0 61.5 14t51.5 36.5t35 52t13 59.5q0 31 -13.5 59t-36 49.5t-51.5 34t-61 12.5h-318z" />
    <glyph glyph-name="uni042B" unicode="&#x42b;" horiz-adv-x="1550" 
d="M232 0q-23 0 -43 8.5t-35 23.5t-24 35t-9 43v1058q0 23 9 43.5t24 35.5t35 24t43 9q47 0 76.5 -29.5t29.5 -76.5v-423h321q78 0 146.5 -30.5t119 -83t80 -122t29.5 -146.5q0 -78 -29.5 -145t-80 -117t-119 -78.5t-146.5 -28.5h-427zM1210 1163q0 23 8.5 43t23.5 34.5
t35 23t42 8.5q23 0 43 -8.5t35 -23t24 -34.5t9 -43v-1052q0 -22 -9 -42t-24 -35t-35.5 -23.5t-43.5 -8.5t-42.5 8.5t-34 23.5t-23 35t-8.5 42v1052zM338 534v-317h321q32 0 61.5 14t51.5 36.5t35 52t13 59.5q0 31 -13.5 59t-36 49.5t-52 34t-61.5 12.5h-319z" />
    <glyph glyph-name="uni042C" unicode="&#x42c;" horiz-adv-x="1062" 
d="M232 0q-23 0 -43 8.5t-35 23.5t-24 35t-9 43v1058q0 23 9 43.5t24 35.5t35 24t43 9q47 0 76.5 -29t29.5 -76v-424h321q78 0 146.5 -30.5t119 -83t80 -122t29.5 -146.5q0 -78 -29.5 -145t-80 -117t-119 -78.5t-146.5 -28.5h-426h-1zM338 534v-317h321q32 0 61.5 14
t51.5 36.5t35 52t13 59.5q0 31 -13.5 59t-36 49.5t-52 34t-61.5 12.5h-319z" />
    <glyph glyph-name="uni042D" unicode="&#x42d;" horiz-adv-x="1200" 
d="M221 335q65 -65 142.5 -97.5t160.5 -32.5q74 0 142 25t123 69.5t94.5 105.5t57.5 132h-429q-23 0 -43.5 8.5t-35.5 23.5t-23.5 35t-8.5 42q0 23 8.5 42.5t23.5 34.5t35.5 23.5t43.5 8.5h425q-20 68 -60.5 126t-95.5 100.5t-121 66.5t-137 24q-84 0 -162.5 -34.5
t-142.5 -98.5q-16 -16 -35.5 -23.5t-40.5 -7.5q-22 0 -43 8.5t-38 25.5q-16 16 -24 36t-8 41t8 41t24 36q97 97 216 145t245 48q90 0 173.5 -24.5t155.5 -68.5t131 -105t101 -133t65 -154t23 -167q0 -89 -24 -172t-66.5 -155t-102 -131.5t-131 -101.5t-152.5 -65.5
t-167 -23.5q-127 -1 -247.5 46.5t-217.5 144.5q-16 16 -24 36t-8 41t8 41t24 36t37 23.5t43 7.5t42 -7t36 -22z" />
    <glyph glyph-name="uni042E" unicode="&#x42e;" horiz-adv-x="1857" 
d="M1132 1289q90 0 173 -23.5t155 -65.5t131 -101.5t101 -132t65 -155.5t23 -173q0 -135 -51 -253t-138.5 -206.5t-205.5 -139.5t-253 -51q-121 0 -229.5 41t-193.5 113.5t-142 171.5t-77 214h-152v-418q0 -47 -29.5 -79.5t-76.5 -32.5q-23 0 -43 9t-35 24t-24 35.5t-9 43.5
v1056q0 23 9 43.5t24 35.5t35 24t43 9q47 0 76.5 -32.5t29.5 -79.5v-421h152q19 116 76 215t142 172.5t193.5 115t230.5 41.5zM1132 1072q-89 0 -168 -34.5t-138 -94t-93.5 -138t-34.5 -167.5t34.5 -168t93.5 -138t138 -93t168 -34t167.5 34t137 93t92.5 138t34 168
t-34 167.5t-92.5 138t-137 94t-167.5 34.5z" />
    <glyph glyph-name="uni0490" unicode="&#x490;" horiz-adv-x="864" 
d="M632 1280v163q0 23 9 42.5t24 34t35.5 23t43.5 8.5t42 -8.5t33 -23t22 -34t8 -42.5v-280q-2 -33 -19.5 -56.5t-45.5 -34.5q-5 -2 -11 -4q-1 0 -1 -0.5t-1 -0.5q-13 -4 -32 -4h-407v-953q0 -47 -29 -79.5t-76 -32.5q-23 0 -43.5 9t-35.5 24t-24 35.5t-9 43.5v1058
q0 23 9 43.5t24 35.5t35.5 24t43.5 9h405z" />
    <glyph glyph-name="uni0402" unicode="&#x402;" horiz-adv-x="1091" 
d="M1018 391q0 -93 -26.5 -165t-77 -122t-122.5 -76.5t-163 -27.5h-4q-22 0 -42 9t-35 24t-24 35t-9 42q0 23 9 43t24 35t35 23.5t42 8.5h4q92 1 132 40.5t40 131.5v89q-1 51 -17 95.5t-45.5 77.5t-70.5 52t-92 19q-49 0 -92 -17.5t-75.5 -48t-51.5 -72.5t-21 -92v-387
q0 -22 -8.5 -42t-23 -34.5t-34 -23t-42.5 -8.5t-43 8.5t-34.5 23t-23 34.5t-8.5 42v903h-29q-45 0 -76 27t-31 72t31 71t76 26h35q11 32 39.5 52.5t63.5 20.5t63 -20.5t39 -52.5h225q44 0 74.5 -26.5t30.5 -71.5q0 -46 -30 -72t-75 -26h-219v-158q52 42 112.5 65.5
t127.5 23.5q97 0 178 -37t139.5 -100t91.5 -147t33 -179v-88z" />
    <glyph glyph-name="uni0403" unicode="&#x403;" horiz-adv-x="1007" 
d="M894 1280q23 0 43.5 -9t35.5 -24t23.5 -35.5t8.5 -43.5q0 -47 -32 -76t-79 -29h-556v-953q0 -47 -29 -79.5t-76 -32.5q-23 0 -43.5 9t-35.5 24t-24 35.5t-9 43.5v1058q0 23 8.5 42.5t22.5 34.5t34 24.5t42 10.5h5h661zM680 1418q-17 -17 -37.5 -25t-40.5 -8q-44 0 -76 32
q-16 16 -24.5 36t-8.5 41t8.5 41.5t24.5 36.5l126 127q16 17 36 24.5t41 7.5t41.5 -8t36.5 -24q17 -16 25 -36t8 -40.5t-8.5 -40.5t-24.5 -36z" />
    <glyph glyph-name="uni0404" unicode="&#x404;" horiz-adv-x="1200" 
d="M1129 1096q16 -16 24 -36t8 -41t-8 -41t-24 -36q-17 -17 -38 -25.5t-43 -8.5q-21 0 -41 7.5t-35 23.5q-64 64 -142.5 98.5t-162.5 34.5q-71 0 -137 -24t-121.5 -66.5t-96 -100.5t-60.5 -126h426q23 0 43 -8.5t35 -23.5t23.5 -34.5t8.5 -42.5q0 -22 -8.5 -42t-23.5 -35
t-35 -23.5t-43 -8.5h-430q17 -69 55.5 -129t93 -105t122 -71.5t143.5 -26.5q90 0 167 33.5t140 96.5q16 15 36 22t42 7t43 -7.5t37 -23.5t24 -36t8 -41t-8 -41t-24 -36q-97 -97 -217.5 -144.5t-247.5 -46.5q-86 0 -167 23.5t-152.5 65.5t-131 101.5t-102.5 131.5t-67 155
t-24 172q0 86 23 167.5t65 153.5t101.5 133t131.5 105t155.5 68.5t173.5 24.5q126 0 245 -48t216 -145z" />
    <glyph glyph-name="uni0408" unicode="&#x408;" horiz-adv-x="458" 
d="M-101 5q-23 0 -43 9t-35 24t-23.5 35t-8.5 42q0 23 8.5 43.5t23.5 35.5t35 24t43 9h5q45 1 84 18.5t68.5 47t46.5 69t18 84.5v721q0 24 9 44.5t24 35.5t35 23.5t43 8.5q47 0 76.5 -32t29.5 -80v-716q0 -92 -33.5 -172.5t-92 -141t-137.5 -96t-170 -36.5h-6z" />
    <glyph glyph-name="uni0409" unicode="&#x409;" horiz-adv-x="1951" 
d="M29 107q0 23 9 43.5t24 35.5t35 24t42 9q92 0 130.5 40t38.5 131v778v9t1 9l2 9q2 8 4 12q11 32 38 52t62 21h715q22 0 41.5 -9.5t34.5 -25t23.5 -35.5t8.5 -42v-417h308q78 0 146.5 -30.5t119 -83t80 -122t29.5 -146.5q0 -78 -29.5 -145t-80 -117t-119 -78.5
t-146.5 -28.5h-420q-46 0 -75.5 31.5t-29.5 78.5v953h-496v-673q0 -92 -25.5 -164.5t-74 -123t-119.5 -77.5t-161 -28h-6q-22 0 -42 9t-35 24t-24 35t-9 42zM1238 534v-317h311q32 0 60.5 14t49.5 36.5t33 52t12 59.5q0 31 -12.5 59t-34 49.5t-50 34t-60.5 12.5h-309z" />
    <glyph glyph-name="uni040A" unicode="&#x40a;" horiz-adv-x="1804" 
d="M338 745h535v423q0 23 8 43.5t22 35.5t33 24t42 9t43.5 -9t35.5 -24t24 -35.5t9 -43.5v-421h312q78 0 146 -30.5t118.5 -82.5t79.5 -121t29 -146t-29 -144t-79.5 -116.5t-118.5 -78t-146 -28.5h-424q-46 0 -75.5 31.5t-29.5 78.5v418h-535v-418q0 -47 -29.5 -78.5
t-76.5 -31.5q-23 0 -43 8.5t-35 23.5t-24 35t-9 43v1058q0 23 9 43.5t24.5 35.5t36 24t43.5 9q47 0 75.5 -32.5t28.5 -79.5v-423zM1090 523v-298h311q32 0 60 12.5t49 33.5t33 48.5t12 57.5q0 31 -12.5 57.5t-33.5 46t-49 31t-60 11.5h-310z" />
    <glyph glyph-name="uni040B" unicode="&#x40b;" horiz-adv-x="1217" 
d="M403 1046v-182q57 37 123 57.5t138 20.5q99 0 185.5 -37t152 -101.5t103.5 -151t39 -184.5v-359q0 -23 -8.5 -43t-23 -34.5t-34 -23t-42.5 -8.5t-43 8.5t-34.5 23t-23 34.5t-8.5 43v355q0 53 -21 100.5t-57 83t-84 56.5t-101 21q-52 0 -99 -24t-83 -63.5t-57.5 -90.5
t-21.5 -104v-334q0 -23 -8.5 -43t-22.5 -34.5t-33.5 -23t-42.5 -8.5q-22 0 -42 8.5t-35 23t-24 34.5t-9 43v937h-77q-20 0 -38 10t-31 26t-20.5 36t-7.5 40t7.5 39t20.5 33.5t31 23.5t38 9h141q11 5 23 8.5t25 3.5q12 0 23.5 -3.5t21.5 -8.5h256q20 0 37.5 -9t30.5 -24
t20.5 -34t7.5 -39q0 -21 -7.5 -40.5t-20.5 -35.5t-30.5 -25.5t-37.5 -9.5h-196z" />
    <glyph glyph-name="uni040C" unicode="&#x40c;" horiz-adv-x="1210" 
d="M662 1413q-17 -17 -37.5 -25t-40.5 -8q-44 0 -76 32q-16 16 -24.5 36t-8.5 41t8.5 41.5t24.5 36.5l126 127q16 17 36 24.5t41 7.5t41.5 -8t36.5 -24q17 -16 25 -36t8 -40.5t-8.5 -40.5t-24.5 -36zM338 793h71l377 457q20 18 42 24q17 6 36 6h106q23 0 43.5 -8.5t35.5 -23
t23.5 -34.5t8.5 -43q0 -47 -32 -77.5t-79 -30.5h-64l-341 -413l442 -462q17 -17 24.5 -37.5t7.5 -42t-8.5 -42t-25.5 -36.5q-31 -29 -67 -29q-42 0 -78 36l-517 539h-5v-464q0 -47 -29.5 -79.5t-76.5 -32.5q-23 0 -43 8.5t-35 23.5t-24 35t-9 43v1060q0 23 9 43t24 35
t35 23.5t43 8.5q47 0 76.5 -31t29.5 -78v-378z" />
    <glyph glyph-name="uni040E" unicode="&#x40e;" horiz-adv-x="966" 
d="M599 1608q0 32 21 54t53 22t53 -22t21 -54q0 -47 -18 -89t-49.5 -73t-73 -49t-89.5 -18t-90 18t-73.5 49t-49.5 73t-18 89q0 32 22 54t52 22q32 0 54 -22t22 -54v-3q1 -32 24 -55.5t57 -23.5q17 0 31.5 6.5t25.5 17t17.5 24.5t7.5 30v4zM486 653l247 560q14 32 42 49.5
t60 17.5q11 0 21 -1.5t20 -6.5q21 -9 36 -24.5t23 -35t8.5 -41.5t-8.5 -43l-339 -739l-14 -33q-45 -97 -86 -166.5t-87 -114t-102 -66.5t-131 -24q-3 -1 -6.5 -1h-6.5q-45 0 -77.5 26t-32.5 71q0 26 9.5 46.5t25.5 35t37.5 22.5t46.5 8q44 0 72 11t48.5 32.5t37 53.5
t36.5 74l10 26l-338 738q-9 21 -9 43t8.5 41.5t24 35t36.5 24.5q10 5 20 6.5t21 1.5q32 0 59.5 -17.5t41.5 -49.5z" />
    <glyph glyph-name="afii10065.small" horiz-adv-x="1060" 
d="M23 465q0 99 38 185.5t103 151.5t151.5 102.5t184.5 37.5q99 0 186 -37.5t151.5 -102.5t101.5 -151.5t37 -185.5v-354q0 -23 -8.5 -43t-23.5 -35t-35.5 -24t-43.5 -9q-39 0 -66 23t-36 58q-57 -43 -123.5 -68t-139.5 -25q-98 0 -184.5 37.5t-151.5 102.5t-103 152
t-38 185zM240 465q0 -53 20.5 -100.5t56 -83t82.5 -56t101 -20.5t101.5 20.5t82.5 56t55 83t20 100.5q0 54 -20 101.5t-55 82.5t-82.5 55.5t-101.5 20.5q-53 0 -100.5 -20.5t-83 -55.5t-56 -82.5t-20.5 -101.5z" />
    <glyph glyph-name="uni0431" unicode="&#x431;" horiz-adv-x="1017" 
d="M36 826q0 105 39.5 190t108 145t160 93.5t195.5 34.5h157q23 0 42.5 -8t34.5 -21.5t23.5 -32.5t8.5 -42t-8.5 -43.5t-23.5 -36t-34.5 -24.5t-42.5 -9h-151q-54 0 -103 -14t-88 -40.5t-65.5 -65t-34.5 -87.5q57 37 122 57t137 20q99 0 185.5 -37.5t151 -102.5t102 -151.5
t37.5 -185.5q0 -98 -37.5 -185t-102 -152t-151 -102.5t-185.5 -37.5q-98 0 -184.5 37.5t-151.5 102.5t-103 152t-38 185v361zM253 465q0 -53 20.5 -100.5t56 -83t82.5 -56t101 -20.5t101.5 20.5t82.5 56t55 83t20 100.5q0 54 -20 101.5t-55 82.5t-82.5 55.5t-101.5 20.5
q-52 0 -98.5 -19.5t-82 -53.5t-56.5 -79.5t-23 -97.5v-10z" />
    <glyph glyph-name="uni0432" unicode="&#x432;" horiz-adv-x="895" 
d="M222 0q-22 0 -42 8.5t-34 22.5t-22.5 33.5t-8.5 41.5v718q0 23 8.5 42.5t23 33.5t34 22t41.5 8h319q54 0 104.5 -17t89.5 -50t63 -81.5t24 -111.5q0 -54 -24 -98.5t-63 -76.5q60 -34 96 -90.5t36 -125.5q0 -63 -23.5 -114.5t-64.5 -88t-96 -56.5t-119 -20h-342zM332 392
v-184h237q46 0 73.5 23t27.5 64q0 42 -27 69.5t-74 27.5h-237zM332 728v-176h203q17 0 33 5t29 16t20.5 27.5t7.5 38.5q0 45 -26 67t-63 22h-204z" />
    <glyph glyph-name="uni0433" unicode="&#x433;" horiz-adv-x="812" 
d="M686 930q23 0 43.5 -8.5t35.5 -23.5t24 -35.5t9 -43.5t-9 -42.5t-24 -33.5t-35.5 -22t-43.5 -8h-354v-603q0 -47 -29 -79.5t-76 -32.5q-23 0 -43.5 9t-35.5 24t-24 35.5t-9 43.5v710q0 23 9 43t24 35t35.5 23.5t43.5 8.5h459z" />
    <glyph glyph-name="uni0434" unicode="&#x434;" horiz-adv-x="1099" 
d="M923 217h4q5 1 10.5 1.5t11.5 0.5q22 0 41 -8t33.5 -22.5t23.5 -33.5t10 -41v-214q0 -23 -8.5 -42.5t-23 -34.5t-34 -23.5t-42.5 -8.5t-43 8.5t-34.5 23.5t-23 34.5t-8.5 42.5v100h-591v-100q0 -23 -8 -42.5t-22.5 -34.5t-33.5 -23.5t-42 -8.5t-43 8.5t-35 23.5t-24 34.5
t-9 42.5v214q0 23 9.5 42t25 33t35.5 22t42 8q21 0 34.5 13.5t22 34.5t12 46t3.5 48v457q0 35 19.5 63.5t52.5 41.5q2 0 2.5 0.5t1.5 0.5q7 2 18 4t18 2h489q45 -1 75.5 -32.5t30.5 -78.5v-602zM433 356q-1 -79 -23 -139h296v496h-273v-357z" />
    <glyph glyph-name="afii10070.small" horiz-adv-x="1038" 
d="M256 368q13 -37 36.5 -67.5t54.5 -52t68 -33t78 -11.5q103 0 162 54q20 14 39 20.5t36 6.5q28 0 50 -14.5t36 -37.5q10 -16 14.5 -34.5t2 -37.5t-12 -37.5t-28.5 -33.5q-22 -20 -50 -38.5t-64.5 -32.5t-82 -22.5t-102.5 -8.5q-99 0 -186 37.5t-152 102.5t-103 151.5
t-38 185.5t38 186t103 151.5t152 102t186 37.5q98 0 184.5 -37t152 -100.5t104 -149.5t39.5 -184q0 -46 -29.5 -74.5t-77.5 -28.5h-610zM750 548q-11 41 -34.5 74t-56.5 56t-74 35t-87 12t-86.5 -12.5t-73 -36t-55.5 -56t-34 -72.5h501z" />
    <glyph glyph-name="uni0436" unicode="&#x436;" horiz-adv-x="1570" 
d="M672 315l-73 61l-322 -343q-33 -34 -74 -34t-73 31q-16 16 -24.5 35.5t-9 40.5t7 41.5t23.5 36.5l311 330l-233 199h-73q-23 0 -43 8.5t-35 23t-23.5 34.5t-8.5 42q0 23 8.5 42.5t23.5 34.5t35 23.5t43 8.5h104q42 0 75 -30l361 -307v228q0 23 8.5 42.5t22.5 34.5
t34 23.5t42 8.5q23 0 43 -8.5t35 -23.5t23.5 -34.5t8.5 -42.5v-227l360 306q33 30 72 30h107q23 0 43 -8.5t35 -23.5t23.5 -34.5t8.5 -42.5q0 -47 -31.5 -77.5t-78.5 -30.5h-73l-232 -198l311 -331q16 -16 23.5 -36.5t7 -41.5t-9 -40.5t-24.5 -35.5q-32 -31 -73 -31t-74 34
l-323 344l-72 -62v-206q0 -23 -8.5 -43t-23.5 -34.5t-35 -23t-43 -8.5q-22 0 -42 8.5t-34 23t-22.5 34.5t-8.5 43v206z" />
    <glyph glyph-name="uni0437" unicode="&#x437;" horiz-adv-x="832" 
d="M60 130q-29 39 -25 82.5t42 75.5q26 21 65 21q24 0 48 -10t41 -33q11 -15 20.5 -24t21.5 -14.5t26.5 -8t34.5 -2.5h156q16 0 31 6.5t26 18t18 27.5t7 34q0 35 -23 49.5t-54 16.5h-124q-47 0 -79.5 29.5t-32.5 76.5q0 23 9 43.5t24 35.5t35.5 23.5t43.5 8.5h105
q32 0 55.5 14.5t23.5 49.5q0 36 -21.5 55.5t-56.5 19.5h-126q-39 -1 -63.5 -12.5t-43.5 -37.5q-18 -24 -42.5 -35.5t-48.5 -11.5q-17 0 -32.5 5t-26.5 15q-19 15 -30 35.5t-14 42t3 44t21 41.5q40 54 108.5 91.5t163.5 39.5h153q60 -1 110 -21t86 -56t56.5 -85.5
t20.5 -109.5q0 -63 -23.5 -109.5t-65.5 -78.5q48 -33 77 -83.5t29 -116.5q0 -61 -22 -113t-61 -89.5t-91.5 -58.5t-114.5 -21h-163q-97 1 -166.5 38.5t-110.5 91.5z" />
    <glyph glyph-name="uni0438" unicode="&#x438;" horiz-adv-x="1073" 
d="M73 818q0 23 8.5 43.5t23.5 35.5t35 24t44 9q47 0 76.5 -32.5t29.5 -79.5v-432l425 500q8 10 20 18q29 26 69 26q23 0 43 -9t35 -24t24 -35.5t9 -43.5v-706q0 -23 -8.5 -43.5t-23.5 -35.5t-35 -24t-43 -9q-47 0 -77 32.5t-30 79.5v428l-424 -496q-15 -19 -36 -30
q-23 -14 -53 -14q-23 0 -43.5 9t-35.5 24t-24 35.5t-9 43.5v706z" />
    <glyph glyph-name="uni0439" unicode="&#x439;" horiz-adv-x="1073" 
d="M73 818q0 23 8.5 43.5t23.5 35.5t35 24t44 9q47 0 76.5 -32.5t29.5 -79.5v-432l425 500q8 10 20 18q29 26 69 26q23 0 43 -9t35 -24t24 -35.5t9 -43.5v-706q0 -23 -8.5 -43.5t-23.5 -35.5t-35 -24t-43 -9q-47 0 -77 32.5t-30 79.5v428l-424 -496q-15 -19 -36 -30
q-23 -14 -53 -14q-23 0 -43.5 9t-35.5 24t-24 35.5t-9 43.5v706zM615 1278q0 32 21 54t53 22t53 -22t21 -54q0 -47 -18 -89t-49.5 -73t-73 -49t-89.5 -18t-90 18t-73.5 49t-49.5 73t-18 89q0 32 22 54t52 22q32 0 54 -22t22 -54v-3q1 -32 24 -55.5t57 -23.5t58 24.5t24 57.5
z" />
    <glyph glyph-name="uni043A" unicode="&#x43a;" horiz-adv-x="924" 
d="M862 930q23 0 43.5 -8.5t35.5 -23.5t23.5 -34.5t8.5 -42.5q0 -47 -32 -77.5t-79 -30.5h-74l-227 -193l316 -336q16 -16 23.5 -36.5t7 -41.5t-9 -40.5t-24.5 -35.5q-31 -31 -72 -31q-20 0 -39 8.5t-36 25.5l-328 349l-67 -58v-215q0 -23 -8.5 -43t-22.5 -34.5t-33.5 -23
t-42.5 -8.5t-43 8.5t-35 23t-23.5 34.5t-8.5 43v712q0 23 9 42.5t24 34.5t35 23.5t42 8.5q23 0 42.5 -8.5t34 -23.5t22.5 -34.5t8 -42.5v-221l352 300q12 11 28 19t34 10q2 0 4.5 0.5t4.5 0.5h5h102z" />
    <glyph glyph-name="uni043B" unicode="&#x43b;" horiz-adv-x="1610" 
d="M957 930q23 0 43.5 -9t35.5 -24t24 -35t9 -43v-241h230q59 0 110.5 -25t89.5 -67t60 -96t22 -113q0 -58 -22 -108.5t-60 -88t-89.5 -59t-110.5 -21.5h-342q-47 0 -76 31.5t-29 78.5v603h-344v-320q0 -92 -25.5 -165t-74 -123t-119.5 -77t-162 -28h-6q-22 0 -42 9t-35 24
t-24 35t-9 43t9 43.5t24 35.5t35 24t42 9q47 0 79.5 9.5t52.5 30t29 53t9 78.5v426q0 23 9 43t24.5 35t36.5 23.5t44 8.5h552zM1069 361v-144h225q26 0 48 18.5t22 52.5q0 30 -18 51.5t-53 21.5h-224z" />
    <glyph glyph-name="uni043C" unicode="&#x43c;" horiz-adv-x="1234" 
d="M332 568v-456q0 -47 -29 -79.5t-76 -32.5q-23 0 -43.5 9t-35.5 24t-24 35.5t-9 43.5v705v6.5t1 6.5q0 30 26 59q6 7 13 13q16 14 34.5 21t38.5 7q21 0 41.5 -8t37.5 -25l308 -318l312 318q17 17 37 24.5t41 7.5q23 0 43.5 -8.5t36.5 -23t25 -34.5t9 -44v-709
q0 -23 -9 -43t-24 -35t-35.5 -23.5t-43.5 -8.5q-46 0 -75.5 31.5t-29.5 78.5v462l-209 -221q-17 -17 -38 -26t-42 -9q-24 0 -47 12q-17 8 -34 25z" />
    <glyph glyph-name="uni043D" unicode="&#x43d;" horiz-adv-x="1004" 
d="M276 585h399v233q0 47 29 79.5t76 32.5q23 0 43.5 -9t35.5 -24t24 -35.5t9 -43.5v-708q0 -23 -9 -43t-24 -35t-35.5 -23.5t-43.5 -8.5q-47 0 -76 31.5t-29 78.5v258h-399v-258q0 -47 -29 -78.5t-76 -31.5q-23 0 -43.5 8.5t-35.5 23.5t-24 35t-9 43v708q0 23 9 43.5
t24.5 35.5t36.5 24t44 9t42 -9t32.5 -24t21 -35.5t7.5 -43.5v-233z" />
    <glyph glyph-name="uni0440" unicode="&#x440;" horiz-adv-x="1086" 
d="M85 465q0 99 38 185.5t103 151.5t151.5 102.5t184.5 37.5q99 0 186 -37.5t151.5 -102.5t101.5 -151.5t37 -185.5q0 -98 -37 -185t-101.5 -152t-151.5 -102.5t-186 -37.5q-72 0 -137.5 20.5t-122.5 57.5v-291q0 -24 -7.5 -44.5t-21.5 -35.5t-33.5 -24t-43.5 -9
q-23 0 -43 9t-35 24t-24 35.5t-9 44.5v690zM302 465q0 -53 20.5 -100.5t56 -83t82.5 -56t101 -20.5t101.5 20.5t82.5 56t55 83t20 100.5q0 54 -20 101.5t-55 82.5t-82.5 55.5t-101.5 20.5q-53 0 -100.5 -20.5t-83 -55.5t-56 -82.5t-20.5 -101.5z" />
    <glyph glyph-name="afii10082.small" horiz-adv-x="1069" 
d="M8 465q0 99 38 185.5t103 151.5t151.5 102.5t184.5 37.5q99 0 186 -37.5t151.5 -102.5t101.5 -151.5t37 -185.5q0 -98 -37 -185t-101.5 -152t-151.5 -102.5t-186 -37.5q-72 0 -137.5 20.5t-122.5 57.5v-291q0 -24 -7.5 -44.5t-21.5 -35.5t-33.5 -24t-43.5 -9q-23 0 -43 9
t-35 24t-24 35.5t-9 44.5v690zM225 465q0 -53 20.5 -100.5t56 -83t82.5 -56t101 -20.5t101.5 20.5t82.5 56t55 83t20 100.5q0 54 -20 101.5t-55 82.5t-82.5 55.5t-101.5 20.5q-53 0 -100.5 -20.5t-83 -55.5t-56 -82.5t-20.5 -101.5z" />
    <glyph glyph-name="uni0441" unicode="&#x441;" horiz-adv-x="907" 
d="M244 465q0 -47 19.5 -93t53 -82.5t78.5 -59.5t97 -24q54 0 95.5 13.5t83.5 48.5q20 17 44.5 31.5t53.5 14.5q17 0 36 -7.5t39 -24.5q17 -15 25.5 -35.5t8 -43t-10 -44.5t-28.5 -42q-62 -63 -147.5 -96t-179.5 -33q-100 0 -188 36.5t-154 100.5t-104 150.5t-38 186.5
q1 1 1 2h-1q0 100 38 187.5t104 152t154 101.5t188 37q94 0 179.5 -31.5t147.5 -94.5q19 -19 29 -41.5t10.5 -45t-8.5 -43t-27 -36.5q-20 -17 -38 -24t-35 -7q-29 0 -53.5 14.5t-45.5 31.5q-42 32 -83 46t-86 14q-51 0 -98 -21t-82 -57t-56 -83t-21 -98z" />
    <glyph glyph-name="uni0443" unicode="&#x443;" horiz-adv-x="1100" 
d="M306 448q0 -51 19 -95.5t52 -77t78 -51t96 -18.5t95.5 19.5t77 53t51.5 78.5t19 97v368q0 22 9 41.5t24 34.5t35.5 23.5t42.5 8.5q23 0 42 -8.5t33.5 -23.5t22.5 -34.5t8 -41.5v-372q0 -82 -27 -155.5t-74 -132.5t-112 -101t-141 -60v-230q0 -23 -8.5 -43t-23.5 -34.5
t-34.5 -23t-41.5 -8.5q-47 0 -78 31t-31 78v231q-76 19 -140 61t-111 101t-73.5 132t-26.5 154v372q0 22 8.5 41.5t23 34.5t34.5 23.5t42 8.5t42 -8.5t35 -23.5t23.5 -34.5t8.5 -41.5v-374z" />
    <glyph glyph-name="afii10085.small" horiz-adv-x="1040" 
d="M519 207q5 0 9.5 -0.5t9.5 -1.5q50 2 89 22.5t66 53.5t41.5 77t14.5 94v370q0 23 9 42.5t24.5 34t35.5 23t42 8.5q23 0 42 -8.5t33.5 -23t22.5 -34t8 -42.5v-367q0 -84 -24.5 -159t-69 -135.5t-107 -102.5t-139.5 -59v-194q0 -23 -8.5 -43t-23.5 -35t-34.5 -23.5
t-42.5 -8.5q-22 0 -42 8.5t-35 23.5t-24 35t-9 43v199q-73 20 -135.5 62t-107.5 101t-70.5 131t-25.5 152v372q0 23 8.5 42.5t23 34t34.5 23t42 8.5t42 -8.5t35 -23t23.5 -34t8.5 -42.5v-373q0 -48 16.5 -90.5t46 -75t69.5 -53t87 -24.5q5 1 15 1z" />
    <glyph glyph-name="uni0444" unicode="&#x444;" horiz-adv-x="1601" 
d="M908 -194q0 -23 -8 -42.5t-22.5 -34t-33.5 -23t-42 -8.5t-43.5 8.5t-35.5 23t-23.5 34t-8.5 42.5v203q-29 -9 -57.5 -14.5t-57.5 -5.5q-98 0 -184.5 37.5t-151.5 102t-103 151.5t-38 185q0 99 38 186t103 151.5t151.5 102t184.5 37.5q58 0 115 -20v245q0 23 9 43.5
t24 35.5t35.5 23.5t42.5 8.5q23 0 42 -8.5t33.5 -23.5t22.5 -35.5t8 -43.5v-245q58 20 116 20q98 0 184.5 -37.5t151.5 -102t103 -151.5t38 -186q0 -98 -38 -185t-103 -151.5t-151.5 -102t-184.5 -37.5q-29 0 -58 5.5t-58 14.5v-203zM1024 724q-26 0 -59 -8.5t-57 -27.5
v-445q22 -17 53.5 -26.5t62.5 -9.5q53 0 100.5 20.5t82.5 55.5t55.5 82t20.5 100q0 54 -20.5 101t-55.5 82.5t-82.5 55.5t-100.5 20zM691 688q-23 19 -56 27.5t-59 8.5q-53 0 -100 -20t-82.5 -55.5t-56 -82.5t-20.5 -101q0 -53 20.5 -100t55.5 -82t82 -55.5t101 -20.5
q30 0 62 9.5t53 26.5v445z" />
    <glyph glyph-name="uni0445" unicode="&#x445;" horiz-adv-x="1025" 
d="M513 614l287 282q17 17 37.5 25t41.5 8t40.5 -7.5t34.5 -22.5q16 -16 23 -36t6 -40.5t-9.5 -40.5t-23.5 -36l-285 -282l283 -278q15 -16 23 -36t8.5 -41t-7.5 -41.5t-24 -35.5q-34 -32 -77 -32q-44 0 -76 32l-284 280l-285 -281q-15 -16 -34.5 -24t-39.5 -8q-42 0 -76 32
q-16 15 -24 34.5t-7.5 40t8.5 40.5t23 36l283 280l-289 285q-15 15 -23 35t-7.5 40.5t8.5 40.5t24 36q34 32 77 32q20 0 40 -8t36 -24z" />
    <glyph glyph-name="uni0446" unicode="&#x446;" horiz-adv-x="1120" 
d="M956 216h34q36 0 66.5 -23t36.5 -60q0 -1 0.5 -1.5t0.5 -1.5q1 -5 1.5 -9.5t0.5 -9.5v-216q0 -23 -8.5 -41.5t-23 -32t-33.5 -21t-41 -7.5t-42 8.5t-35.5 22.5t-24.5 33.5t-9 41.5v101h-657q-3 0 -6.5 0.5t-6.5 0.5q-41 7 -67.5 37t-26.5 72v708q0 23 9 43.5t24 35.5
t35.5 24t43.5 9q47 0 76 -32.5t29 -79.5v-602h407v602q0 23 9 43.5t24 35.5t35.5 24t43.5 9q47 0 76 -32.5t29 -79.5v-602z" />
    <glyph glyph-name="uni0447" unicode="&#x447;" horiz-adv-x="1006" 
d="M39 819q0 23 8.5 43.5t23 35.5t34.5 23.5t42 8.5q47 0 78 -32t31 -79v-167q0 -53 15.5 -100.5t44 -83t70.5 -56.5t94 -21q53 0 95 18t72 51t46 80.5t16 107.5v171q0 23 8 43.5t22.5 35.5t34 23.5t41.5 8.5q23 0 43.5 -8.5t35.5 -23.5t23.5 -35.5t8.5 -43.5v-709
q0 -23 -9 -43t-24 -34.5t-35 -23t-43 -8.5q-22 0 -41.5 8.5t-34 23t-22.5 34.5t-8 43v139q-47 -35 -104 -55t-125 -20q-99 0 -180.5 37.5t-139.5 103t-89.5 153t-31.5 186.5v165z" />
    <glyph glyph-name="uni0448" unicode="&#x448;" horiz-adv-x="1446" 
d="M1369 110q0 -47 -29 -78.5t-76 -31.5h-1037q-47 0 -79.5 31t-32.5 79v708q0 23 9 43.5t24 35.5t35.5 24t43.5 9q47 0 76 -32.5t29 -79.5v-601h302v601q0 23 9 43.5t24 35.5t35.5 24t43.5 9t42 -9t33 -24t22 -35.5t8 -43.5v-601h301v601q0 23 9 43.5t24 35.5t35.5 24
t43.5 9q47 0 76 -32.5t29 -79.5v-708z" />
    <glyph glyph-name="uni0449" unicode="&#x449;" horiz-adv-x="1530" 
d="M1369 217h34q22 0 41 -8.5t33.5 -23t23 -33.5t8.5 -41v-216q0 -23 -8.5 -41.5t-23 -32t-33.5 -21t-41 -7.5t-42 8.5t-35.5 22.5t-24.5 33.5t-9 41.5v101h-1065q-23 0 -43.5 8.5t-35.5 23.5t-24 35t-9 43v708q0 23 9 43.5t24 35.5t35.5 24t43.5 9q47 0 76 -32.5t29 -79.5
v-601h302v601q0 23 9 43.5t24 35.5t35.5 24t43.5 9t42 -9t33 -24t22 -35.5t8 -43.5v-601h301v601q0 23 9 43.5t24 35.5t35.5 24t43.5 9q47 0 76 -32.5t29 -79.5v-601z" />
    <glyph glyph-name="uni044A" unicode="&#x44a;" horiz-adv-x="1049" 
d="M370 0q-23 0 -43 8.5t-35 23.5t-24 35t-9 43v603h-151q-23 0 -43 8.5t-34.5 23.5t-23 35t-8.5 43t8.5 42.5t23 33.5t34.5 22.5t43 8.5h264q47 0 75.5 -31t28.5 -78v-243h236q59 0 110.5 -25t89.5 -67t60 -96t22 -113q0 -58 -22 -108.5t-60 -88t-89.5 -59t-110.5 -21.5
h-342zM476 361v-144h232q26 0 47.5 18.5t21.5 52.5q0 30 -17.5 51.5t-52.5 21.5h-231z" />
    <glyph glyph-name="uni044B" unicode="&#x44b;" horiz-adv-x="1320" 
d="M1203 109q0 -23 -8.5 -43t-22.5 -34.5t-33.5 -23t-42.5 -8.5q-22 0 -42 8.5t-35 23t-24 34.5t-9 43v712q0 23 9 42.5t24 34.5t35.5 23.5t43.5 8.5t42 -8.5t33 -23.5t22 -34.5t8 -42.5v-712zM228 0q-23 0 -43.5 8.5t-35.5 23.5t-24 35t-9 43v710q0 23 8 43t22.5 35
t34.5 23.5t43 8.5q47 0 78 -31t31 -78v-243h237q59 0 110.5 -25t89.5 -67t60 -96t22 -113q0 -58 -22 -108.5t-60 -88t-89.5 -59t-110.5 -21.5h-342zM333 361v-144h232q26 0 47.5 18.5t21.5 52.5q0 30 -17.5 51.5t-52.5 21.5h-231z" />
    <glyph glyph-name="uni044C" unicode="&#x44c;" horiz-adv-x="912" 
d="M227 0q-23 0 -43.5 8.5t-35.5 23.5t-24 35t-9 43v710q0 23 8 43t22.5 35t34.5 23.5t43 8.5q47 0 78 -31t31 -78v-243h237q59 0 110.5 -25t89.5 -67t60 -96t22 -113q0 -58 -22 -108.5t-60 -88t-89.5 -59t-110.5 -21.5h-342zM332 361v-144h232q26 0 47.5 18.5t21.5 52.5
q0 30 -17.5 51.5t-52.5 21.5h-231z" />
    <glyph glyph-name="uni044D" unicode="&#x44d;" horiz-adv-x="907" 
d="M638 570q-15 32 -38.5 60.5t-53.5 49.5t-65.5 33t-74.5 12q-41 0 -84 -12.5t-86 -47.5q-21 -17 -45.5 -31.5t-53.5 -14.5q-17 0 -35 7t-38 24q-18 16 -27 36.5t-8.5 43t10.5 45t29 41.5q62 63 147.5 94.5t179.5 31.5q100 0 188 -37t154 -101.5t104 -152t38 -187.5h-2
l2 -2q0 -100 -38 -186.5t-104 -150.5t-154 -100.5t-188 -36.5q-94 0 -179.5 33t-147.5 96q-19 20 -28.5 42t-10 44.5t8 43t25.5 35.5q20 17 39 24.5t36 7.5q29 0 53.5 -14.5t44.5 -31.5q44 -35 86 -49t93 -14q38 0 73 13t64 35t52 52t37 63h-289q-47 0 -78.5 28.5
t-31.5 75.5q0 45 31.5 71.5t78.5 26.5h286z" />
    <glyph glyph-name="uni044E" unicode="&#x44e;" horiz-adv-x="1450" 
d="M332 589h141q21 76 64.5 140.5t104.5 112t135.5 74t156.5 26.5q99 0 186 -37.5t151.5 -102.5t101.5 -151.5t37 -185.5q0 -98 -37 -185t-101.5 -152t-151.5 -102.5t-186 -37.5q-86 0 -164 29.5t-140 81t-104.5 121.5t-59.5 152h-134v-263q0 -23 -8.5 -43t-22.5 -34.5
t-33.5 -23t-42.5 -8.5q-22 0 -42 8.5t-35 23t-24 34.5t-9 43v714q0 23 9 43t24 34.5t35.5 23t43.5 8.5t42 -8.5t33 -23t22 -34.5t8 -43v-234zM674 465q0 -53 20.5 -100.5t56 -83t83 -56t100.5 -20.5q54 0 101.5 20.5t82.5 56t55 83t20 100.5q0 54 -20 101.5t-55 82.5
t-82.5 55.5t-101.5 20.5q-53 0 -100.5 -20.5t-83 -55.5t-56 -82.5t-20.5 -101.5z" />
    <glyph glyph-name="uni044F" unicode="&#x44f;" horiz-adv-x="903" 
d="M121 29q-16 15 -23.5 35t-7.5 41t8 41t24 36l98 104q-80 42 -128.5 117.5t-48.5 175.5q0 75 28.5 139t77.5 111.5t115 74t141 26.5h271q23 0 43.5 -9t35.5 -24.5t24 -36t9 -43.5v-707q0 -23 -9 -43.5t-24 -35.5t-35.5 -24t-43.5 -9q-47 0 -76 32.5t-29 79.5v132h-102
l-201 -213q-33 -33 -74 -33q-40 0 -73 33zM260 585q0 -57 39.5 -91.5t102.5 -34.5h169v254h-162q-31 0 -58 -9t-47 -26t-32 -40.5t-12 -52.5z" />
    <glyph glyph-name="uni0491" unicode="&#x491;" horiz-adv-x="767" 
d="M523 930v144q0 23 8.5 43t23 35t34.5 23.5t42 8.5q23 0 43 -8.5t34.5 -23.5t23 -35t8.5 -43v-256q0 -23 -8.5 -42.5t-23.5 -33t-34.5 -21t-42.5 -7.5h-5l-329 -2v-600q0 -23 -8 -43.5t-22 -35.5t-33 -24t-42 -9t-43.5 9t-35.5 24t-24 35.5t-9 43.5v708q0 35 20 63t52 40
l6 2t7 2q2 0 4.5 0.5t4.5 0.5q5 1 9 1.5t9 0.5h331z" />
    <glyph glyph-name="uni0452" unicode="&#x452;" horiz-adv-x="1276" 
d="M821 -398q-24 0 -45 9t-36.5 24t-24.5 36t-9 45t9 45t24.5 36.5t36.5 24.5t45 9q72 1 115 29.5t43 93.5v506q0 55 -19.5 103t-53.5 84t-80.5 57t-101.5 21t-102.5 -20.5t-82.5 -56.5t-55 -84.5t-20 -103.5v-351q0 -23 -8.5 -43t-22.5 -34.5t-33.5 -23t-42.5 -8.5t-43 8.5
t-35 23t-23.5 34.5t-8.5 43v954h-156q-19 0 -36 10.5t-29.5 26.5t-20 36.5t-7.5 39.5t7.5 37.5t20 33.5t29.5 24t36 9h605q20 0 36.5 -9t29 -24t19.5 -33.5t7 -37.5t-6.5 -39t-18.5 -36.5t-29 -27t-38 -10.5h-232v-199q56 37 122 57.5t138 20.5q99 0 185.5 -38t150 -103.5
t100 -153.5t36.5 -187v-496q0 -84 -26.5 -151t-75 -114t-117 -72t-151.5 -25h-2h-3z" />
    <glyph glyph-name="uni0453" unicode="&#x453;" horiz-adv-x="990" 
d="M656 1101q-17 -17 -37.5 -25t-40.5 -8q-44 0 -76 32q-16 16 -24.5 36t-8.5 41t8.5 41.5t24.5 36.5l126 127q16 17 36 24.5t41 7.5t41.5 -8t36.5 -24q17 -16 25 -36t8 -40.5t-8.5 -40.5t-24.5 -36zM692 930q23 0 43.5 -8.5t35.5 -23.5t24 -35.5t9 -43.5t-9 -42.5
t-24 -33.5t-35.5 -22t-43.5 -8h-354v-603q0 -47 -29 -79.5t-76 -32.5q-23 0 -43.5 9t-35.5 24t-24 35.5t-9 43.5v710q0 23 9 43t24 35t35.5 23.5t43.5 8.5h459z" />
    <glyph glyph-name="uni0454" unicode="&#x454;" horiz-adv-x="907" 
d="M229 368q14 -33 35.5 -61.5t50 -50t63 -34t72.5 -13.5q54 0 95.5 12t83.5 47q20 17 44.5 31.5t53.5 14.5q17 0 36 -7.5t39 -24.5q17 -15 25.5 -35.5t8 -43t-10 -44.5t-28.5 -42q-62 -63 -147.5 -95.5t-179.5 -32.5q-100 0 -188 36.5t-154 100.5t-104 150t-38 186l2 2h-2
q0 100 38 187.5t104 152.5t154 102.5t188 37.5q94 0 179.5 -32.5t147.5 -95.5q19 -19 29 -41.5t10.5 -45t-8.5 -43t-27 -36.5q-20 -17 -38 -24t-35 -7q-29 0 -53.5 14.5t-45.5 31.5q-41 32 -81.5 45t-85.5 13q-78 0 -138 -41.5t-92 -111.5h281q47 0 78.5 -26.5t31.5 -71.5
q0 -47 -31.5 -75.5t-78.5 -28.5h-284z" />
    <glyph glyph-name="afii10103.small" horiz-adv-x="349" 
d="M62 1151q0 25 9.5 47t25.5 38t38 25.5t46 9.5t46 -9.5t38.5 -25.5t26 -38t9.5 -47q0 -24 -9.5 -45.5t-26 -37.5t-38.5 -25.5t-46 -9.5t-46 9.5t-38 25.5t-25.5 37.5t-9.5 45.5zM290 108q0 -22 -8.5 -42t-23 -34.5t-34 -23t-42.5 -8.5q-22 0 -42 8.5t-35 23t-23.5 34.5
t-8.5 42v714q0 22 9 41.5t24 34.5t35 23.5t43 8.5t42 -8.5t33.5 -23.5t22.5 -34.5t8 -41.5v-714z" />
    <glyph glyph-name="uni0457" unicode="&#x457;" horiz-adv-x="451" 
d="M300 1179q0 24 9.5 46t26 38.5t38.5 26t46 9.5q25 0 47 -9.5t38 -26t25.5 -38.5t9.5 -46q0 -25 -9.5 -47t-25.5 -38t-38 -25.5t-47 -9.5q-24 0 -46 9.5t-38.5 25.5t-26 38t-9.5 47zM-78 1179q0 24 9.5 46t25.5 38.5t38 26t47 9.5q24 0 46 -9.5t38.5 -26t26 -38.5t9.5 -46
q0 -25 -9.5 -47t-26 -38t-38.5 -25.5t-46 -9.5q-25 0 -47 9.5t-38 25.5t-25.5 38t-9.5 47zM334 109q0 -23 -8.5 -43t-22.5 -34.5t-33.5 -23t-42.5 -8.5q-22 0 -42 8.5t-35 23t-24 34.5t-9 43v712q0 23 9 42.5t24 34.5t35.5 23.5t43.5 8.5t42 -8.5t33 -23.5t22 -34.5t8 -42.5
v-712z" />
    <glyph glyph-name="afii10105.small" horiz-adv-x="518" 
d="M377 35q0 -67 -25.5 -126t-69.5 -103.5t-103 -70t-126 -25.5h-2q-23 0 -43 8.5t-35 23t-23.5 34.5t-8.5 43t8.5 42.5t23.5 34t35 23t43 8.5h2q21 0 40 8.5t33.5 22.5t23.5 32.5t10 39.5v790q0 23 8.5 43t23.5 35t35 23.5t42 8.5q23 0 42.5 -8.5t34 -23.5t23 -35t8.5 -43
v-785zM150 1141q0 25 9.5 46.5t25.5 37.5t38 25.5t46 9.5q25 0 46 -9.5t36.5 -25.5t24.5 -37.5t9 -46.5q0 -24 -9.5 -46t-26 -38t-38 -25.5t-46.5 -9.5q-24 0 -45 9.5t-36.5 25.5t-24.5 38t-9 46z" />
    <glyph glyph-name="uni0459" unicode="&#x459;" horiz-adv-x="1605" 
d="M957 930q23 0 43.5 -8.5t35.5 -23.5t24 -35.5t9 -43.5v-241h230q59 0 110.5 -22.5t89.5 -61.5t60 -92.5t22 -115.5q0 -61 -22 -113.5t-60 -91t-89.5 -60t-110.5 -21.5h-342q-47 0 -76 31.5t-29 78.5v603h-344v-323q0 -92 -25.5 -164.5t-74 -123t-119.5 -77.5t-162 -28h-6
q-22 0 -42 9t-35 24t-24 35t-9 42q0 23 9 43.5t24 35.5t35 24t42 9q47 0 79.5 9.5t52.5 30.5t29 53.5t9 78.5v429q0 23 9 43t24.5 35t36.5 23.5t44 8.5h552zM1069 361v-144h225q26 0 48 18.5t22 52.5q0 30 -18 51.5t-53 21.5h-224z" />
    <glyph glyph-name="uni045A" unicode="&#x45a;" horiz-adv-x="1531" 
d="M332 565l409 -1v256q0 46 30 78t77 32q23 0 43 -8.5t35 -23.5t23.5 -35t8.5 -43v-242h230q59 0 110.5 -25t89.5 -67t60 -96t22 -113q0 -58 -22 -108.5t-60 -88t-89.5 -59t-110.5 -21.5h-342q-47 0 -76 31.5t-29 78.5v261h-409v-261q0 -47 -29 -78.5t-76 -31.5
q-23 0 -43.5 8.5t-35.5 23.5t-24 35t-9 43v708q0 23 9 43.5t24.5 35.5t36.5 24t44 9q47 0 75 -32.5t28 -79.5v-253zM958 361v-144h225q26 0 47.5 18.5t21.5 52.5q0 30 -17.5 51.5t-52.5 21.5h-224z" />
    <glyph glyph-name="uni045B" unicode="&#x45b;" horiz-adv-x="1094" 
d="M1015 106q0 -22 -8.5 -41.5t-23.5 -34t-34.5 -22.5t-42.5 -8q-22 0 -41.5 8t-34.5 22.5t-23.5 34t-8.5 41.5v374q0 51 -16 96t-45.5 78t-71 52t-92.5 19t-95 -17.5t-76 -49t-50.5 -75t-18.5 -95.5l-1 -1v-379q0 -22 -8.5 -42t-22.5 -34.5t-33.5 -23t-42.5 -8.5t-43 8.5
t-35 23t-23.5 34.5t-8.5 42v929h-42q-22 0 -42 8.5t-35 23.5t-23.5 35t-8.5 42q0 23 8.5 43t23.5 35t35 23.5t42 8.5h73q15 15 35.5 24t43.5 9t42.5 -9t34.5 -24h231q23 0 42.5 -8.5t34.5 -23.5t23.5 -35t8.5 -43q0 -22 -8.5 -42t-23.5 -35t-34.5 -23.5t-42.5 -8.5h-201
v-185q52 42 112.5 66t128.5 24q95 0 176 -36.5t140 -99t92.5 -146.5t33.5 -179v-375z" />
    <glyph glyph-name="afii10108.small" horiz-adv-x="1161" 
d="M450 1129h109q23 0 43.5 -9t35.5 -24t23.5 -35t8.5 -43t-8.5 -42.5t-23.5 -34t-35.5 -23t-43.5 -8.5h-109v-183q49 37 105 58.5t118 21.5q89 0 168 -33t139 -90t96.5 -133.5t41.5 -164.5q0 -3 0.5 -6t0.5 -6v-265q0 -23 -8.5 -43t-23.5 -34.5t-34.5 -23t-42.5 -8.5
q-22 0 -42 8.5t-35 23t-24 34.5t-9 43v259q0 46 -18.5 87t-49.5 71.5t-72 48.5t-87 18q-45 0 -85.5 -18t-71 -48.5t-48 -71.5t-17.5 -87h-1v-259q0 -22 -8.5 -42t-23.5 -35t-34.5 -23.5t-42.5 -8.5q-22 0 -42 8.5t-35 23.5t-24 35t-9 42v801h-97q-22 0 -42 8.5t-35 23.5
t-23.5 35t-8.5 42q0 23 8.5 43t23.5 35t35 23.5t42 8.5h97v32q0 24 9 44t24 35t35 23.5t43 8.5t42.5 -8.5t34 -23.5t23 -35t8.5 -44v-32z" />
    <glyph glyph-name="uni045C" unicode="&#x45c;" horiz-adv-x="908" 
d="M562 1077q-17 -17 -37.5 -25t-40.5 -8q-44 0 -76 32q-16 16 -24.5 36t-8.5 41t8.5 41.5t24.5 36.5l126 127q16 17 36 24.5t41 7.5t41.5 -8t36.5 -24q17 -16 25 -36t8 -40.5t-8.5 -40.5t-24.5 -36zM862 930q23 0 43.5 -8.5t35.5 -23.5t23.5 -34.5t8.5 -42.5
q0 -47 -32 -77.5t-79 -30.5h-74l-227 -193l316 -336q16 -16 23.5 -36.5t7 -41.5t-9 -40.5t-24.5 -35.5q-31 -31 -72 -31q-20 0 -39 8.5t-36 25.5l-328 349l-67 -58v-215q0 -23 -8.5 -43t-22.5 -34.5t-33.5 -23t-42.5 -8.5t-43 8.5t-35 23t-23.5 34.5t-8.5 43v712
q0 23 9 42.5t24 34.5t35 23.5t42 8.5q23 0 42.5 -8.5t34 -23.5t22.5 -34.5t8 -42.5v-221l352 300q12 11 28 19t34 10q2 0 4.5 0.5t4.5 0.5h5h102z" />
    <glyph glyph-name="uni045E" unicode="&#x45e;" horiz-adv-x="1100" 
d="M306 448q0 -51 19 -95.5t52 -77t78 -51t96 -18.5t95.5 19.5t77 53t51.5 78.5t19 97v368q0 22 9 41.5t24 34.5t35.5 23.5t42.5 8.5q23 0 42 -8.5t33.5 -23.5t22.5 -34.5t8 -41.5v-372q0 -82 -27 -155.5t-74 -132.5t-112 -101t-141 -60v-230q0 -23 -8.5 -43t-23.5 -34.5
t-34.5 -23t-41.5 -8.5q-47 0 -78 31t-31 78v231q-76 19 -140 61t-111 101t-73.5 132t-26.5 154v372q0 22 8.5 41.5t23 34.5t34.5 23.5t42 8.5t42 -8.5t35 -23.5t23.5 -34.5t8.5 -41.5v-374zM648 1273q0 32 21 54t53 22t53 -22t21 -54q0 -47 -18 -89t-49.5 -73t-73 -49
t-89.5 -18t-90 18t-73.5 49t-49.5 73t-18 89q0 32 22 54t52 22q32 0 54 -22t22 -54v-3q1 -32 24 -55.5t57 -23.5q17 0 31.5 6.5t25.5 17t17.5 24.5t7.5 30v4z" />
    <glyph glyph-name="uni040F" unicode="&#x40f;" horiz-adv-x="1244" 
d="M115 1166q0 23 9 43.5t24 35.5t35.5 24t43.5 9q47 0 76.5 -32.5t29.5 -79.5v-942h580v942q0 47 28.5 79.5t75.5 32.5q23 0 43.5 -9t35.5 -24t24 -35.5t9 -43.5v-1054q0 -23 -8.5 -43.5t-23.5 -35.5t-35.5 -24t-43.5 -9h-277v-171q0 -23 -9 -43t-24.5 -35t-36 -23.5
t-43.5 -8.5q-47 0 -78.5 31.5t-31.5 78.5v171h-296q-32 1 -56.5 17.5t-38.5 42.5q0 2 -2 4q-10 23 -10 48v1054z" />
    <glyph glyph-name="uni0462" unicode="&#x462;" horiz-adv-x="1109" 
d="M292 1243q15 17 36.5 27t46.5 10t46.5 -10t36.5 -27h184q23 0 42.5 -8.5t34.5 -23t23.5 -34t8.5 -42.5t-8.5 -43.5t-23.5 -35.5t-34.5 -23.5t-42.5 -8.5h-155v-335h266q72 0 135 -28t109.5 -76t73.5 -111.5t27 -134.5t-27 -133t-73.5 -107.5t-109.5 -72t-135 -26.5h-378
q-23 0 -43.5 8.5t-35.5 23.5t-24 35t-9 43v914l-145 1q-23 0 -43 9t-35 24t-23.5 35t-8.5 42q0 23 8.5 43t23.5 34.5t35 23t43 8.5zM487 480v-268h266q29 0 54 11.5t44 30t30 43t11 50.5q0 28 -11 52.5t-30.5 42.5t-45 28t-54.5 10h-264z" />
    <glyph glyph-name="uni0472" unicode="&#x472;" horiz-adv-x="1361" 
d="M679 1289q135 0 253 -51t206.5 -139.5t139.5 -207t51 -253.5q0 -90 -23.5 -173t-65.5 -155t-102 -131.5t-132 -102t-155.5 -65.5t-173.5 -23t-173.5 23t-155.5 65.5t-131 102t-101 131.5t-65 155t-23 173t23 173t65.5 155.5t101.5 132t131.5 101.5t156 65.5t173.5 23.5z
M677 206q76 0 144 24t123 66.5t94 101t57 128.5h-835q18 -70 57 -128.5t94 -101t122.5 -66.5t143.5 -24zM678 1070q-76 0 -144 -24t-122.5 -67t-94 -101.5t-57.5 -127.5h835q-18 69 -57.5 127.5t-94 101.5t-122.5 67t-143 24z" />
    <glyph glyph-name="uni0474" unicode="&#x474;" horiz-adv-x="1149" 
d="M19 1130q-9 21 -9 42.5t8.5 40.5t24 34.5t36.5 23.5t40 8q32 0 58.5 -17t40.5 -49l358 -835l357 835q13 31 40 48.5t59 17.5q19 0 40 -8t36 -23t23 -34t8.5 -40.5t-8.5 -42.5l-456 -1064q-14 -32 -41.5 -49.5t-59.5 -17.5q-9 0 -14 1q-1 0 -2 0.5t-3 0.5l-10 3
q-23 6 -41 21.5t-29 40.5z" />
    <glyph glyph-name="uni045F" unicode="&#x45f;" horiz-adv-x="1167" 
d="M115 829q0 23 9 43.5t24 35.5t35.5 24t43.5 9t43.5 -9t35.5 -24t24 -35.5t9 -43.5v-605h489v605q0 23 9 43.5t24 35.5t35.5 24t43.5 9t43.5 -9t35.5 -24t24 -35.5t9 -43.5v-722q-1 -23 -10 -42.5t-24 -34t-34.5 -22.5t-42.5 -8h-240v-171q0 -23 -9 -43t-24.5 -35
t-36 -23.5t-43.5 -8.5q-47 0 -78.5 31.5t-31.5 78.5v171h-256q-32 1 -56.5 17.5t-38.5 42.5l-2 4q-10 22 -10 42v723z" />
    <glyph glyph-name="uni0463" unicode="&#x463;" horiz-adv-x="1027" 
d="M301 0q-23 0 -43 8.5t-35 23.5t-24 35t-9 43v790h-74q-23 0 -43.5 9t-35.5 24t-23.5 35t-8.5 43t8.5 42.5t23.5 34t35.5 22.5t43.5 8h74v49q0 24 9 44.5t24 35.5t35 23.5t43 8.5t43.5 -8.5t36 -23.5t24.5 -35.5t9 -44.5v-49h107q23 0 43.5 -8.5t35.5 -23t23.5 -34
t8.5 -42.5q0 -22 -8.5 -42t-23.5 -35t-35.5 -24t-43.5 -9h-107v-209h207q72 0 135.5 -28.5t110.5 -76.5t74 -111.5t27 -134.5q0 -72 -27 -134t-74 -107.5t-110.5 -72t-135.5 -26.5h-319h-1zM414 472v-250h190q27 0 50.5 10.5t40.5 28t27 40t10 47.5q0 26 -10 48.5
t-27.5 39.5t-41 26.5t-50.5 9.5h-189z" />
    <glyph glyph-name="uni0473" unicode="&#x473;" horiz-adv-x="1010" 
d="M28 465q0 99 38 185.5t102.5 151.5t151.5 102.5t184 37.5q99 0 186 -37.5t151.5 -102.5t102 -151.5t37.5 -185.5q0 -98 -37.5 -185t-102 -151.5t-151.5 -102t-186 -37.5q-97 0 -184 37.5t-151.5 102t-102.5 151.5t-38 185zM504 207q81 0 143.5 42t93.5 109h-472
q15 -33 39 -61t54.5 -48t66.5 -31t75 -11zM504 723q-38 0 -73.5 -10.5t-65.5 -30t-54 -46.5t-40 -60h468q-15 33 -39 60t-54.5 46.5t-66.5 30t-75 10.5z" />
    <glyph glyph-name="uni0475" unicode="&#x475;" horiz-adv-x="901" 
d="M451 347l235 517q14 31 40.5 48.5t57.5 17.5q24 0 45 -10q21 -9 35.5 -25t22 -35.5t7.5 -41.5t-10 -43l-333 -709q-16 -33 -43.5 -48.5t-51.5 -17.5q-38 0 -64.5 18.5t-40.5 47.5l-334 710q-10 21 -10 43t7.5 41.5t22 35.5t34.5 25q11 5 22 7.5t22 2.5q32 0 58.5 -17.5
t40.5 -48.5z" />
    <glyph glyph-name="uni04D9" unicode="&#x4d9;" horiz-adv-x="1053" 
d="M761.915 575.825q-12.5498 35.7109 -35.2344 65.1475q-22.6855 29.4375 -52.6104 50.1875q-29.9258 20.751 -65.6426 31.8506q-35.7178 11.0986 -75.2969 11.0986q-99.4287 0 -156.383 -52.1182q-19.3066 -13.5117 -37.6484 -19.7852t-34.752 -6.27344
q-27.0293 0 -48.2666 13.9941q-21.2373 13.9951 -34.752 36.1934q-9.65332 15.4424 -13.9971 33.2979t-1.93066 36.1934t11.584 36.1924q9.1709 17.8555 27.5117 32.333q21.2373 19.3027 48.2666 37.1582t62.2637 31.3672t79.1572 21.7158t98.9463 8.2041
q95.5684 0 179.553 -36.1934q83.9834 -36.1934 146.73 -98.9277q62.7461 -62.7344 99.4287 -146.22t36.6826 -179.035t-36.6826 -179.518q-36.6826 -83.9688 -99.4287 -146.221q-62.7471 -62.252 -146.73 -98.4453q-83.9844 -36.1924 -179.553 -36.1924
q-94.6016 0 -178.104 35.71q-83.501 35.7109 -146.73 96.998q-63.2285 61.2861 -100.395 144.289q-37.165 83.0029 -38.1309 177.588q0 44.3965 28.4775 71.9033t74.8135 27.5068h588.853zM285.041 402.099q10.6191 -39.5713 33.3037 -71.4209
q22.6855 -31.8506 54.542 -54.0488q31.8555 -22.1982 71.4336 -33.7803q39.5791 -11.582 83.9844 -11.582t83.501 12.0645q39.0967 12.0645 70.4697 34.7461q31.373 22.6807 53.5762 54.0479q22.2021 31.3672 32.8203 69.9736h-483.631z" />
    <glyph glyph-name="uni2116" unicode="&#x2116;" horiz-adv-x="1865" 
d="M289 105q0 -23 -8 -42.5t-22.5 -34t-33.5 -22.5t-42 -8q-22 0 -42 8t-35.5 22.5t-24.5 34t-9 42.5v377q0 96 34.5 180t95 146.5t143 99t177.5 36.5q96 0 178 -36.5t142 -99t94.5 -146.5t34.5 -180v-377q0 -23 -8.5 -42.5t-22.5 -34t-33.5 -22.5t-41.5 -8t-42 8t-35 22.5
t-24 34t-9 42.5v373q0 51 -17.5 96t-48 79t-73.5 53.5t-94 19.5t-93.5 -18.5t-73 -51t-48 -76t-18.5 -94.5v-381zM1106 591q0 68 26 125.5t70.5 100.5t104.5 67t128 24q69 0 129 -24t105 -67t71 -100.5t26 -125.5q0 -69 -26 -129t-71 -105t-105 -71t-129 -26q-68 0 -128 26
t-104.5 71t-70.5 105t-26 129zM1669 193q20 0 37.5 -7.5t30.5 -20t20.5 -29.5t7.5 -36q0 -20 -7.5 -38t-20.5 -31.5t-30.5 -21.5t-37.5 -8h-481q-41 0 -68 29t-27 70q0 40 27 66.5t68 26.5h481zM1272 591q0 -34 13 -64t35 -52t51.5 -34.5t63.5 -12.5t63.5 12.5t51.5 34.5
t35 52t13 64t-13 63.5t-35 51t-51.5 34t-63.5 12.5t-63.5 -12.5t-51.5 -34t-35 -51t-13 -63.5z" />
    <glyph glyph-name="agrave" unicode="&#xe0;" horiz-adv-x="1094" 
d="M44 465q0 99 38 185.5t103 151.5t151.5 102.5t184.5 37.5q99 0 186 -37.5t151.5 -102.5t101.5 -151.5t37 -185.5v-354q0 -23 -8.5 -43t-23.5 -35t-35.5 -24t-43.5 -9q-39 0 -66 23t-36 58q-57 -43 -123.5 -68t-139.5 -25q-98 0 -184.5 37.5t-151.5 102.5t-103 152
t-38 185zM261 465q0 -53 20.5 -100.5t56 -83t82.5 -56t101 -20.5t101.5 20.5t82.5 56t55 83t20 100.5q0 54 -20 101.5t-55 82.5t-82.5 55.5t-101.5 20.5q-53 0 -100.5 -20.5t-83 -55.5t-56 -82.5t-20.5 -101.5zM473.015 1105q16.999 -17 37.4971 -25q20.499 -8 40.498 -8
q43.9971 0 75.9951 32q15.999 16 24.499 36q8.49902 20 8.49902 41t-8.49902 41.5q-8.5 20.5 -24.499 36.5l-125.992 127q-15.999 17 -35.998 24.5q-19.998 7.5 -40.9971 7.5t-41.498 -8q-20.498 -8 -36.4971 -24q-16.999 -16 -24.999 -36q-7.99902 -20 -7.99902 -40.5
t8.49902 -40.5q8.5 -20 24.499 -36z" />
    <glyph glyph-name="alphatonos" unicode="&#x3ac;" horiz-adv-x="1094" 
d="M44 465q0 99 38 185.5t103 151.5t151.5 102.5t184.5 37.5q99 0 186 -37.5t151.5 -102.5t101.5 -151.5t37 -185.5v-354q0 -23 -8.5 -43t-23.5 -35t-35.5 -24t-43.5 -9q-39 0 -66 23t-36 58q-57 -43 -123.5 -68t-139.5 -25q-98 0 -184.5 37.5t-151.5 102.5t-103 152
t-38 185zM261 465q0 -53 20.5 -100.5t56 -83t82.5 -56t101 -20.5t101.5 20.5t82.5 56t55 83t20 100.5q0 54 -20 101.5t-55 82.5t-82.5 55.5t-101.5 20.5q-53 0 -100.5 -20.5t-83 -55.5t-56 -82.5t-20.5 -101.5zM641 1190q0 -22 -8.5 -42t-23 -34t-34 -22.5t-41.5 -8.5
t-42 8.5t-34.5 22.5t-23 34t-8.5 42v198q0 23 8.5 42.5t23 34.5t34.5 23.5t42 8.5q23 0 42.5 -8.5t33.5 -23.5t22.5 -34.5t8.5 -42.5v-198z" />
    <glyph glyph-name="amacron" unicode="&#x101;" horiz-adv-x="1094" 
d="M44 465q0 99 38 185.5t103 151.5t151.5 102.5t184.5 37.5q99 0 186 -37.5t151.5 -102.5t101.5 -151.5t37 -185.5v-354q0 -23 -8.5 -43t-23.5 -35t-35.5 -24t-43.5 -9q-39 0 -66 23t-36 58q-57 -43 -123.5 -68t-139.5 -25q-98 0 -184.5 37.5t-151.5 102.5t-103 152
t-38 185zM261 465q0 -53 20.5 -100.5t56 -83t82.5 -56t101 -20.5t101.5 20.5t82.5 56t55 83t20 100.5q0 54 -20 101.5t-55 82.5t-82.5 55.5t-101.5 20.5q-53 0 -100.5 -20.5t-83 -55.5t-56 -82.5t-20.5 -101.5zM716 1258q40 0 67 -27t27 -65q0 -40 -27 -68.5t-67 -28.5h-388
q-40 0 -66.5 28.5t-26.5 68.5q0 39 26.5 65.5t66.5 26.5h388z" />
    <glyph glyph-name="ampersand" unicode="&#x26;" horiz-adv-x="1136" 
d="M28 377q0 53 13 98t35 83t52 69t63 55l-23 21q-21 19 -40.5 44.5t-34.5 56.5t-24.5 67t-9.5 75q0 71 27 133t73.5 108.5t109 73.5t133.5 27t133.5 -26.5t109 -73t73 -109t26.5 -133.5q0 -100 -51.5 -177t-144.5 -128l186 -167l128 146q17 19 40 29.5t46 10.5q18 0 35 -6
t31 -20q17 -14 27 -33.5t11.5 -40t-5.5 -41.5t-22 -38l-132 -149l165 -147q22 -19 33.5 -38.5t15 -37.5t-1.5 -35t-16 -31q-19 -23 -40.5 -34.5t-44.5 -11.5q-34 0 -65 26l-180 158l-60 -67q-55 -58 -129 -92t-155 -34q-80 0 -150.5 31t-123 84t-83 123.5t-30.5 150.5z
M407 200q37 0 73.5 16.5t63.5 40.5l56 64l-264 233q-50 -28 -79 -70t-29 -96q0 -37 14 -71t38 -60t57 -41.5t70 -15.5zM394 779q30 9 57.5 26.5t48 39.5t33 47t12.5 49q0 27 -10.5 52t-28.5 44t-43 30.5t-54 11.5q-27 0 -51 -10.5t-42 -28.5t-28 -42.5t-10 -51.5
q0 -19 7 -37.5t17.5 -35t22.5 -30t22 -22.5z" />
    <glyph glyph-name="anoteleia" unicode="&#x387;" horiz-adv-x="385" 
d="M286 498q0 -24 -9.5 -46t-25.5 -38t-38 -25.5t-48 -9.5q-24 0 -45.5 9.5t-37.5 25.5t-25.5 38t-9.5 46t9.5 46t25.5 38.5t37.5 26t45.5 9.5q26 0 48 -9.5t38 -26t25.5 -38.5t9.5 -46z" />
    <glyph glyph-name="aogonek" unicode="&#x105;" horiz-adv-x="1094" 
d="M44 465q0 99 38 185.5t103 151.5t151.5 102.5t184.5 37.5q99 0 186 -37.5t151.5 -102.5t101.5 -151.5t37 -185.5v-354q0 -23 -8.5 -43t-23.5 -35t-35.5 -24t-43.5 -9q-39 0 -66 23t-36 58q-57 -43 -123.5 -68t-139.5 -25q-98 0 -184.5 37.5t-151.5 102.5t-103 152
t-38 185zM261 465q0 -53 20.5 -100.5t56 -83t82.5 -56t101 -20.5t101.5 20.5t82.5 56t55 83t20 100.5q0 54 -20 101.5t-55 82.5t-82.5 55.5t-101.5 20.5q-53 0 -100.5 -20.5t-83 -55.5t-56 -82.5t-20.5 -101.5zM1108 -173q-1 -45 -19.5 -84.5t-48.5 -69t-70 -46.5t-85 -17
q-46 0 -86 17.5t-70 48t-47 71t-17 86.5q0 48 18 89.5t48 70.5q1 0 1 0.5t1 0.5l138 137q10 11 30 11q18 0 36.5 -8t29.5 -19q17 -17 17 -40t-17 -41l-138 -136l-9 -7q-21 -24 -21 -57q0 -17 6.5 -32t18 -26.5t26.5 -18t33 -6.5q35 0 58.5 24t24.5 58q0 29 20.5 49t51.5 20
q29 0 49.5 -20t20.5 -49v-6z" />
    <glyph glyph-name="aring" unicode="&#xe5;" horiz-adv-x="1094" 
d="M44 465q0 99 38 185.5t103 151.5t151.5 102.5t184.5 37.5q99 0 186 -37.5t151.5 -102.5t101.5 -151.5t37 -185.5v-354q0 -23 -8.5 -43t-23.5 -35t-35.5 -24t-43.5 -9q-39 0 -66 23t-36 58q-57 -43 -123.5 -68t-139.5 -25q-98 0 -184.5 37.5t-151.5 102.5t-103 152
t-38 185zM261 465q0 -53 20.5 -100.5t56 -83t82.5 -56t101 -20.5t101.5 20.5t82.5 56t55 83t20 100.5q0 54 -20 101.5t-55 82.5t-82.5 55.5t-101.5 20.5q-53 0 -100.5 -20.5t-83 -55.5t-56 -82.5t-20.5 -101.5zM450 1231q0 -30 21.5 -52t52.5 -22q32 0 53.5 22t21.5 52
q0 32 -21.5 54t-53.5 22q-31 0 -52.5 -22t-21.5 -54zM301 1232q0 47 17.5 87.5t48 70.5t71 47.5t86.5 17.5q47 0 88 -17.5t71 -47.5t47.5 -70.5t17.5 -87.5q0 -46 -17.5 -87t-47.5 -72t-71 -49t-88 -18q-46 0 -86.5 18t-71 49t-48 72t-17.5 87z" />
    <glyph glyph-name="asciicircum" unicode="^" horiz-adv-x="1121" 
d="M471 1206q27 38 73 38q20 0 39.5 -9t33.5 -27l420 -602q21 -30 16 -66t-36 -58q-22 -16 -51 -16q-20 0 -39.5 9t-33.5 28l-349 500l-353 -500q-11 -18 -30.5 -28t-41.5 -10q-29 0 -52 17q-15 10 -24 25t-12 31.5t1 33.5t16 31z" />
    <glyph glyph-name="asciitilde" unicode="~" horiz-adv-x="983" 
d="M67 621q9 11 31.5 35t56.5 48.5t77.5 43t94.5 18.5q53 0 94 -18.5t80 -48.5q9 -7 21 -16.5t26 -18t29 -14.5t30 -6q54 0 114 77q0 -1 2 -1l1 1q30 30 73 30q20 0 39.5 -7.5t34.5 -23.5q29 -31 30 -71.5t-25 -72.5q0 -4 -2 -6q-8 -11 -30.5 -35t-56 -48t-78 -42.5
t-95.5 -18.5t-94 20.5t-81 49.5q-7 6 -19 14.5t-25.5 16.5t-29 14t-30.5 6q-48 0 -99 -59q-14 -23 -39.5 -37t-51.5 -14q-44 0 -77 31q-16 15 -24 35t-8 41t8 41t23 36z" />
    <glyph glyph-name="asterisk" unicode="*" horiz-adv-x="666" 
d="M549 1036l36 -21q19 -13 30 -31.5t14.5 -39.5t-1.5 -42.5t-18 -40.5q-15 -22 -38.5 -33.5t-48.5 -11.5q-17 0 -33.5 5.5t-30.5 16.5l-12 7v-23q0 -23 -8.5 -43t-23 -35t-34 -23.5t-42.5 -8.5q-22 0 -42 8.5t-35 23.5t-24 35t-9 43v24l-15 -9q-14 -11 -30.5 -16t-33.5 -5
q-26 0 -49 11.5t-39 33.5q-13 19 -17.5 40t-1 42t14.5 39.5t30 31.5l36 22l-35 21q-19 12 -31 30t-15.5 39t1.5 42.5t18 40.5q16 22 40.5 34t50.5 12q35 0 63 -21l13 -8v22q0 23 9 43t24 35t35.5 23.5t43.5 8.5t42 -8.5t33.5 -23.5t22.5 -35t8 -43v-20l10 6q29 21 63 21
q26 0 50.5 -12t40.5 -34q13 -19 18 -40.5t1.5 -42.5t-15 -39t-31.5 -30z" />
    <glyph glyph-name="at" unicode="@" horiz-adv-x="2472" 
d="M1884 704q4 -4 8 -9t6 -9q0 -6 1 -11t1 -11q0 -12 -2 -22q-2 -6 -6 -10t-8 -6q-4 -4 -8 -7t-8 -7q-12 -4 -22 -4q-6 0 -12 1t-10 3q-6 4 -10 7t-8 7q-4 2 -7 6t-3 10q-4 6 -5 11t-1 11q0 10 6 22q0 4 3 9t7 9t8 7t10 5q8 4 22 4q6 0 10 -1l12 -3q4 -2 8 -5t8 -7zM506 686
q0 -2 -4 -8q-2 0 -3 -2t-5 -2q-2 -2 -8 -2h-32v46h32q4 0 8 -2q4 0 5 -1l3 -3l4 -8q2 -2 2 -10q0 -6 -2 -8zM782 704q4 -4 8 -9t6 -9q2 -6 3 -11t1 -11t-1 -11t-3 -11t-6 -10t-8 -6q-2 -4 -6 -7t-10 -7q-4 -2 -10 -3t-12 -1q-12 0 -22 4q-4 4 -9 7t-9 7l-6 6t-6 10t-4 11
t-2 11q0 10 6 22q2 4 6 9t6 9q4 4 9 7t9 5q6 2 12 3t10 1q12 0 22 -4q6 -2 10 -5t6 -7zM1064 716q0 -4 1 -6t1 -4l28 -62h-58l28 62v4v6zM264 712q2 -2 3 -5t3 -5q2 -4 2 -10v-5t-2 -5t-3 -5t-3 -3l-8 -8h-10h-36v52h36q6 0 10 -2q2 0 5 -2zM2420 1066v-572h-2348v572h890
q0 30 5 57t17 53t27 50t37 42q36 38 88 60q28 12 55 17t55 5q32 0 60 -6t52 -18q28 -12 51 -28t41 -34q36 -36 60 -92q20 -52 20 -106h890zM1006 1164q-22 -46 -22 -98q0 -56 22 -102q10 -22 24 -44t30 -40q18 -18 39 -32t45 -24q46 -22 102 -22q28 0 53 4t49 14
q24 12 44 25t38 33q18 18 32 39t26 43q22 50 22 106q0 22 -4 45t-14 43q-12 40 -40 74q-14 16 -30 30t-32 24q-18 10 -37 19t-39 17q-14 4 -31 6t-37 2q-28 0 -54 -5t-50 -17q-48 -18 -84 -56q-16 -18 -29 -40t-23 -44zM288 674q6 10 6 18q0 4 -1 9t-5 11q0 2 -4 6l-6 6
q-2 4 -5 7t-9 3q-4 2 -9 4t-9 2h-52v-150h16v56h36q4 0 9 1t9 3q10 4 14 8q2 4 6 8t4 8zM400 740h-92v-150h92v18h-70v46h58v20h-58v44h70v22zM546 590l-46 64q2 2 5 2t5 4q8 4 10 10q2 2 4 5t4 7v12v10t-2 8q-4 8 -10 14q-4 8 -14 8q-2 2 -7 4t-9 2h-54v-150h22v62h22
l40 -54q2 -4 6 -6q2 -2 4 -2h6h14zM648 616q0 4 1 8t1 8q0 12 -4 20t-12 14q-2 0 -3 2t-5 4h-1t-5 2h-2t-2 4q-6 0 -8 2q-6 0 -8 1l-6 3q-8 2 -8 4q-6 4 -6 6v16q2 0 4 2t2 4l3 1t5 1q4 2 6 2h4l2 -1t4 -1q8 0 8 -4q2 -2 4 -2h4q8 0 14 4l4 2q0 2 -2 4l-4 4q-4 2 -6 4t-6 4
q-2 0 -4 1t-6 5q-6 0 -7 1t-5 1t-9 -1t-9 -1q-4 -4 -7 -6t-7 -2q-2 -4 -5 -7t-5 -7t-3 -7t-1 -9v-9t4 -7q2 -4 5 -7t3 -5q4 -2 8 -5t8 -3q4 -2 7 -4t7 -4q2 -2 5 -2h5q6 -2 7 -2t3 -2q4 -2 4 -3t2 -5q2 -2 2 -5v-7v-3t-2 -5q-2 -4 -2 -5t-4 -3q-2 -4 -5 -5t-5 -3h-5h-5h-7
h-5q-2 2 -5 3t-3 5l-2 2q-6 4 -12 4h-4t-4 -2l-6 -2q0 -4 2 -4q0 -4 4 -6q0 -2 2 -4l2 -2h2q8 -8 17 -10t19 -2h9t9 2t9 4t7 6q6 2 9 5t5 9zM818 644q2 6 2 10v10q0 12 -2 20q0 6 -3 10t-5 10q-4 6 -12 14q-4 4 -8 6t-10 8q-2 0 -6 2t-10 6q-6 0 -10 1t-10 1q-4 0 -10 -1
t-10 -1q-6 -4 -10 -6t-8 -2q-4 -6 -8 -8t-8 -6l-7 -7t-5 -7q-4 -6 -5 -10t-3 -10q-2 -8 -2 -20q0 -8 2 -15t4 -15q2 -6 6 -12t10 -14l12 -8t14 -4q12 -6 28 -6h10h10q10 4 16 8q14 6 18 10q6 8 12 18q2 4 5 9t3 9zM974 740h-20v-116q0 2 -1 5l-1 3l-72 102q-4 0 -8 6h-4h-4
h-14v-150h20v126v-4l2 -2v-4l86 -116h16v150zM1142 590l-66 150h-22l-64 -150h12q6 0 8 2l3 3t5 3l8 26h78l10 -26q2 -4 6 -6q0 -2 8 -2h14zM1240 608h-64v132h-22v-150h86v18zM1444 740h-20v-90v-10t-2 -8q-2 -8 -10 -12q-2 -2 -5 -4t-5 -6q-6 -2 -9 -2h-7q-10 0 -14 2
q-6 4 -10 6t-4 4q-2 2 -4 5t-6 7q0 4 -1 8t-1 10v90h-20v-90v-11t2 -7q0 -8 4 -14q4 -10 12 -14q2 -2 5 -4t7 -4q2 -2 6 -3t6 -3q6 0 9 -2t9 -2q4 0 7 2t9 2q4 2 7 3t7 3l12 8q4 4 5 7t3 7q2 2 5 6t3 8v108zM1560 616q6 8 6 16q0 12 -4 20t-12 14q-6 4 -6 6h-5t-5 2h-3t-5 4
h-2t-4 2q-2 0 -4 1l-6 3q-8 2 -8 4q-4 2 -5 4t-3 2q0 2 -1 3t-1 5t4 8l6 6q2 0 3 1t5 1q0 2 10 2l2 -1t4 -1q2 -2 8 -4q8 -2 10 -2q6 0 8 4l6 2l-4 4l-4 4q0 2 -3 4t-5 4q-4 0 -6 1t-6 5q-4 0 -7 1l-3 1q-6 0 -10 -1t-8 -1q-4 -4 -8 -6t-6 -2q-4 -4 -6 -7t-6 -7q0 -4 -2 -7
t-2 -9t2 -9t2 -7q4 -8 10 -12q4 -2 7 -5t5 -3q6 -2 9 -4t7 -4t6 -2h4q2 -2 5 -2t5 -2t5 -3t3 -5q2 -2 2 -5v-7v-3t-2 -5q-2 -6 -8 -8q-4 -4 -6 -5t-4 -3h-5h-5h-7h-5q-4 2 -10 8v2q-6 4 -12 4h-3t-5 -2l-6 -2q2 -2 2 -3t2 -1q0 -2 1 -3t1 -3l1 -1t1 -3q4 -2 6 -2
q6 -8 15 -10t19 -2h10t10 2l8 4t8 6l5 5t5 9zM1682 740h-92v-150h92v18h-72v46h60v20h-60v44h72v22zM1920 644v10v10v11v9q-4 10 -10 20q-4 6 -12 14q-2 4 -6 6t-8 8q-4 0 -9 2t-9 6q-6 0 -10 1t-10 1t-11 -1t-9 -1q-12 -6 -20 -8q-4 -6 -7 -8t-7 -6l-7 -7l-7 -7
q-2 -6 -4 -10t-2 -10q-4 -8 -4 -20q0 -8 2 -15t4 -15q6 -14 18 -26q4 -4 10 -8t14 -4q12 -6 30 -6h10h10q4 2 9 4t9 4q4 4 8 6t6 4q8 8 12 18q6 8 10 18zM2076 740h-22v-116q0 2 -1 5t-3 3l-72 102l-1 1t-3 5h-5h-5h-16v-150h24v126v-4v-2v-2l86 -118h18v150zM2198 608h-64
v132h-22v-150h86v18zM2318 740h-18q-4 0 -8 -4q-8 -4 -8 -8l-34 -46l-2 -2h-2v-2v2l-38 48q-2 4 -6 8t-10 4h-16l54 -74l2 -2q0 -2 2 -2v-2v-2q0 -2 2 -2v-66h22v66v4q2 0 2 4v2h2zM1160 844q-18 8 -37 19t-33 25h314q-16 -14 -34 -25t-38 -19q-20 -6 -42 -12t-44 -6
q-24 0 -45 6t-41 12zM1114 914l308 310q28 -38 44 -78t16 -80q0 -22 -3 -43t-11 -41q-8 -18 -18 -35t-22 -33h-314zM1068 906q-26 34 -44 72q-6 20 -10 42t-4 46q0 20 4 40t10 40q6 18 16 35t24 33h312zM1332 1284q20 -8 38 -20t32 -22h-316q36 28 74 42q38 18 86 18t86 -18
zM76 342q-4 4 -5 8t-3 8q-2 6 -3 10t-1 10t4 16q2 4 3 9t5 7l3 9t7 7q0 2 5 5t7 5q6 4 9 5l9 3q2 0 8 1t10 1q8 0 14 -1t14 -5q8 -2 13 -6t9 -8q-2 -2 -4 -2v-4h-2h-2h-4h-6q-4 2 -8 5t-8 3h-7h-9h-10h-8q-8 -4 -12 -7t-8 -5q-4 -6 -7 -10t-5 -8q-4 -6 -4 -12v-8q0 -8 2 -14
l3 -9t1 -7q2 -2 5 -4t5 -6q4 -2 6 -5t6 -3q2 -2 6 -4t8 -2q2 -2 6 -2h6h10t8 2q4 0 9 2t9 4v28h-14l-2 2l-3 3l-3 3l-1 1t-1 3v1v3h38v-52l-5 -5l-5 -5q-6 -2 -12 -2q-6 -2 -14 -2h-14h-10h-8q-6 2 -9 4l-9 6q-2 0 -7 3t-5 7q-6 2 -7 6t-3 8zM234 428v-44h54v-14h-54v-46h66
v-16h-82v136h82v-16h-66zM360 308v120h-44v16h104v-16h-46v-120h-14zM520 428v-48h58v-12h-58v-60h-16v136h82v-16h-66zM626 444v-84q0 -4 2 -7t4 -5q2 -6 5 -9t5 -7q0 -2 3 -4t5 -4q6 -2 10 -2h8h7t5 2q6 2 9 4t7 4q0 4 3 7t5 9q4 4 4 12v84h14v-84q0 -6 -1 -10t-3 -10
t-5 -10t-7 -8t-8 -7t-8 -5q-12 -2 -22 -2q-12 0 -24 2q-2 2 -7 5t-9 7q-6 6 -10 18q-2 6 -4 10t-2 10v84h14zM766 444v-120h60v-16h-76v136h16zM856 444v-120h64v-16h-78v136h14zM1044 308l-60 136h8q4 0 8 -2q2 -2 3 -2t3 -4l42 -102v-4q2 -2 2 -6v6l1 2l1 2q6 14 12 26
l12 24q4 16 10 28l12 24q0 4 2 4t2 2q2 2 3 2h5h8q-8 -16 -15 -33t-17 -33q-6 -20 -13 -36t-15 -34h-14zM1144 428v-44h56v-14h-56v-46h66v-16h-82v136h82v-16h-66zM1310 372q-2 -2 -10 -4l46 -60h-10q-2 0 -5 1l-3 1q-2 2 -4 3t-4 5l-38 50h-24v-60h-14v136h50h5t7 -2
q8 -2 14 -8q2 -4 4 -7t4 -7q2 -2 2 -7v-5v-9t-2 -5q0 -4 -2 -8t-4 -6l-4 -4t-8 -4zM1294 380q4 0 6 4q2 0 4 1t4 1l3 6t3 4q0 2 1 4t1 8l-1 2t-1 6l-3 3t-3 5q-2 0 -4 1t-4 3h-6h-36v-48h36zM1418 328q2 2 4 8q2 2 3 6t1 6q0 6 -2 10q-2 0 -3 3t-3 5t-8 4q-4 0 -6 1l-6 3
q-4 0 -8 2t-4 4q-10 0 -14 6q-4 0 -5 4t-3 6v14v9t2 7q0 6 8 10q4 4 6 5t8 3q4 0 6 1t8 1q2 0 5 -1t5 -1t4 -1l6 -3q2 0 4 -2t2 -4q4 -2 5 -4t3 -2l-4 -2q-2 -2 -8 -2h-6q-4 2 -4 4h-2h-2h-2h-3h-1h-2h-8q-8 0 -8 -2q-6 -6 -6 -8q-4 0 -4 -8q0 -6 4 -6q0 -4 2 -6t5 -3l3 -1
q4 -4 6 -4t8 -4h3t3 -2h4t4 -4h2h1h1q2 0 4 -1l2 -1q4 -4 6 -7t6 -5q2 -10 2 -18v-10t-6 -8q0 -6 -8 -12q-2 -2 -6 -4l-8 -4t-8 -2h-10q-10 0 -17 2t-13 8q-2 0 -4 2l-4 4q0 2 -1 4l-1 2l2 2l1 1t5 1h2q2 0 4 -1t4 -3q4 -2 6 -4t6 -2q0 -2 4 -2h6q8 0 10 2q8 0 12 4z
M1488 444v-136h-16v136h16zM1542 328q-12 8 -18 20q-4 14 -4 30v7v9q6 10 8 16q6 8 14 16q6 6 12 10q4 4 9 5t9 3q4 0 8 1t10 1q4 0 9 -1t11 -1q4 -2 8 -3t8 -5l5 -5t7 -5q4 -4 6 -7l6 -9q2 -6 6 -16q2 -4 3 -9t1 -7q0 -8 -2 -15t-6 -15q-2 -6 -5 -11t-9 -9q-6 -6 -11 -9
t-11 -7q-10 -4 -26 -4q-8 0 -15 1t-11 3q-16 4 -22 16zM1542 398q-4 -6 -6 -12t-2 -8q0 -4 1 -8t1 -6q2 -8 8 -16q0 -2 2 -4t4 -6l5 -5t9 -3q2 -2 5 -4t5 -2q4 -2 8 -2h8h7t7 2q2 0 6 2l8 4q2 0 5 3l5 5q2 4 4 6l4 4q2 4 3 7l3 9q0 2 1 6t1 8q0 2 -1 8t-5 12q0 4 -4 8t-6 10
q-4 2 -8 5t-10 7h-9h-11h-12h-10q-4 -4 -9 -7t-9 -5q-2 -6 -5 -10t-3 -8zM1700 308h-16v136h12h5t5 -4l70 -100q2 0 2 -4l2 -2v-2v112h16v-136h-14l-80 112v4h-2v4v-120zM1910 428v-48h56v-12h-56v-60h-14v136h82v-16h-68zM2064 372q-8 -2 -12 -4l44 -60h-12q-4 0 -8 2
q0 2 -1 3t-3 5l-38 50h-24v-60h-16v136h50h6t8 -2t7 -4t5 -4q2 -4 4 -7t6 -7q0 -2 1 -7l1 -5q0 -6 -1 -9t-1 -5l-4 -8t-2 -6zM2052 384q2 0 3 1t3 1q6 8 6 10q2 4 2 12q0 2 -2 8q0 2 -6 8q-2 0 -3 1l-3 3h-8h-34v-48h34q4 0 8 4zM2228 328q-4 -6 -10 -9t-12 -7q-6 -2 -12 -3
t-14 -1t-15 1t-13 3q-12 4 -22 16q-4 4 -8 9t-6 11q-2 8 -5 15t-3 15q0 2 1 7t3 9t3 9t3 7q4 6 7 9t5 7q4 2 8 5t8 5q4 4 8 5t8 3q6 0 9 1t9 1q4 0 9 -1t9 -1l9 -3t7 -5q4 -2 8 -5t6 -5q2 -4 5 -7t5 -9q6 -6 8 -16q2 -4 3 -9t1 -7q0 -8 -1 -15t-5 -15q-2 -6 -6 -11t-10 -9z
M2180 322h7t9 2q2 0 5 2t5 4q2 0 6 3t8 5l3 6t3 4q2 4 3 7t1 9q2 2 2 6v8q0 2 -1 8t-1 12q-2 4 -5 8t-5 10q-6 2 -11 5t-9 7h-10h-10h-11h-11q-6 -4 -9 -7t-7 -5q-6 -6 -8 -10l-4 -8q-2 -6 -2 -12v-8v-14q0 -6 1 -9t5 -7q0 -2 3 -4t5 -6l5 -5t5 -3q2 -2 5 -4t9 -2q2 -2 6 -2
h8zM2402 442q2 2 3 2h3h12v-136h-14v112l-2 -2v-2q-4 -8 -6 -17t-6 -15t-7 -12l-7 -14q-2 -8 -4 -14l-4 -12q-4 -6 -7 -11t-5 -13h-14q-10 12 -15 26t-11 26q-4 14 -11 28t-11 28v2l-4 2v-112h-16v136h14q6 0 8 -2l2 -2v-4l48 -106q0 -2 2 -2v-4q0 2 1 4t1 4q0 4 4 8l42 96
q0 4 1 4t3 2zM72 256h154v-20v-4v-4q0 -4 -2 -6l-4 -4l-104 -142h2v2h108v-36h-162v12q0 10 2 12q0 2 4 8q2 2 2 4t2 4t3 4l3 6l92 126h-100v38zM254 256h136v-38h-98v-48h78v-40h-78v-52h98v-36h-136v214zM558 218h-58v-176h-42v176h-62v38h162v-38zM656 256l92 -214h-24
q-8 0 -16 4q-4 2 -5 6t-5 8l-12 28h-98l-10 -28q-2 -4 -3 -5t-3 -1q0 -4 -1 -5t-5 -3q-2 0 -4 -1t-4 -1q0 -2 -2 -2h-4h-24l92 214h36zM668 126l-26 66q0 2 -1 3t-1 3q0 4 -2 6v-6q0 -2 -2 -3t-2 -3l-26 -66h60zM756 256h136v-38h-98v-54h80v-38h-80v-84h-38v214zM1106 202
q4 -6 6 -12t6 -12q2 -8 2 -15v-13v-16t-2 -14q-4 -6 -6 -13t-6 -13q-4 -4 -8 -10l-8 -12q-8 -4 -12 -9t-10 -7q-6 -6 -13 -8t-13 -4q-8 -2 -15 -3t-15 -1q-10 0 -21 3t-21 5q-12 6 -19 12t-17 12q-14 16 -20 34q-6 12 -8 22t-2 22q0 6 1 13t3 15q4 16 12 24q4 8 7 13t7 11
q8 4 13 8t11 8t12 6t14 6q6 0 13 1t15 1t15 -1t15 -1q6 -4 13 -6t13 -6t10 -8t12 -8q4 -6 8 -11t8 -13zM1078 124q2 6 3 12t1 14q0 12 -4 24q-4 10 -8 15t-10 9q-4 4 -9 8t-11 6q-12 6 -28 6t-28 -6q-4 -2 -9 -6t-11 -8t-9 -9t-7 -15q-4 -4 -4 -11v-13v-14t4 -12l7 -14
t9 -10t11 -8t9 -8q8 -2 14 -4t14 -2t14 2t14 4q6 4 11 8t9 8q6 4 10 10t8 14zM1298 256h38v-214h-36l-100 144q-2 0 -2 1t-2 3q-2 4 -2 6q-4 0 -4 4l-1 1l-3 3v-162h-38v214h34q4 0 8 -1t4 -3l6 -3t4 -3q10 -16 21 -31t21 -33q12 -14 23 -29t25 -29q0 -4 1 -6t1 -6
q0 -2 1 -4t1 -4v152zM1356 256h162v-38h-64v-176h-38v176h-60v38zM1650 146q2 -4 5 -8t5 -8q0 -4 2 -9t2 -13q0 -12 -6 -26l-8 -12t-8 -10q-8 -4 -12 -8t-12 -6t-15 -4t-13 -2q-8 0 -15 2t-17 4q-6 2 -11 6t-13 12q-4 2 -6 5t-4 7q-4 2 -4 12l1 1l3 3q2 0 2 1t2 1t4 1l2 1
h10h3t3 -2q6 0 10 -2q4 -4 8 -6t6 -4q2 0 6 -2t10 -2q2 0 5 1t7 3q6 2 12 6l8 8q2 4 4 6t2 6q0 8 -6 12q-4 6 -8 6q-4 4 -7 5t-5 1q-6 2 -16 8q-4 0 -9 1t-9 5q-8 2 -12 5t-8 7q-6 4 -9 8t-5 8q-6 12 -6 24q0 18 6 26q2 6 6 10t10 8q4 4 9 6t13 6q4 0 10 1t14 1q4 0 8 -1
t10 -1q4 -2 7 -4t9 -4q2 -2 6 -5t8 -7l5 -5t5 -7l-8 -4q-2 -2 -5 -4t-3 -4h-8h-4h-6q-6 0 -6 2l-8 4q-2 0 -3 1l-1 1h-6h-12q-4 0 -5 -1t-5 -3q-2 -2 -4 -8q-2 -2 -2 -8t2 -6q2 -2 3 -4t1 -6q4 0 7 -1t5 -1q6 -2 11 -4t7 -4l10 -2q4 -4 9 -5t11 -7q10 -2 16 -12zM1714 78
q6 0 6 -6q2 0 2 -3v-5q0 -6 -2 -10q0 -4 -6 -8q-4 0 -6 -4q-2 0 -4 -1t-6 -1q-2 0 -4 1t-4 1q-2 2 -4 3t-4 1q-2 2 -3 4t-3 4q-2 4 -2 10v5t2 3q2 4 3 5t3 1q6 6 8 6q2 2 4 3t4 1q4 0 6 -1t4 -3q2 0 6 -6zM1796 198q-8 -8 -16 -24q-2 -4 -4 -11t-2 -13q0 -8 2 -14l4 -12
l7 -14t9 -10q4 -4 9 -8t13 -8q8 -2 14 -4t14 -2q6 0 10 2t10 2q4 2 9 5t9 7q4 0 8 2h6h6t6 -2q6 -2 10 -6l6 -10q-6 -8 -16 -14q-6 -4 -10 -7t-10 -5q-6 -4 -11 -5t-11 -3t-11 -3t-11 -1q-14 0 -24 3t-20 5q-20 10 -34 24q-16 16 -24 34q-2 12 -5 22t-3 22q0 6 1 13t3 15
l4 12t6 12q6 8 9 13t9 11q6 4 11 8t13 8q4 4 10 6t16 6q4 0 12 1t16 1h11t11 -2t11 -4t11 -4t10 -5t10 -7q10 -8 16 -16l-6 -8l-5 -5t-5 -3h-7h-5h-7t-7 2q-4 4 -9 7t-9 5q-6 2 -10 2h-10q-16 0 -28 -6q-8 -2 -13 -6t-9 -8zM2144 202q2 -6 5 -12t5 -12q2 -8 2 -15v-13v-16
t-2 -14t-5 -13t-5 -13q-8 -10 -16 -22q-8 -4 -14 -9t-10 -7q-6 -6 -13 -8t-15 -4q-6 -2 -13 -3t-15 -1q-20 0 -42 8q-8 6 -17 12t-15 12q-8 8 -14 16t-10 18q-4 12 -6 22t-2 22q0 6 1 13t1 15q2 6 6 12t6 12q4 8 8 13t10 11q4 4 10 8l12 8q4 4 11 6t13 6q8 0 15 1t13 1
q8 0 15 -1t13 -1q8 -4 15 -6t13 -6q4 -4 10 -8t14 -8q2 -6 8 -11t8 -13zM2114 124q4 10 4 26q0 6 -1 13t-3 11q-4 10 -7 15t-7 9q-10 10 -24 14q-6 4 -13 5t-15 1q-14 0 -26 -6q-6 -2 -11 -6t-11 -8q-4 -4 -8 -9t-8 -15q-2 -4 -3 -11t-1 -13q0 -8 1 -14t3 -12q8 -16 16 -24
q6 -4 11 -8t11 -8q6 -2 14 -4t12 -2q8 0 15 2t13 4q6 4 13 8t11 8q8 8 14 24zM2376 254l1 1t5 1h38v-214h-38v156q0 -2 -1 -4l-3 -6v-6t-2 -4q-6 -18 -14 -35t-14 -33t-13 -33t-13 -35h-38l-54 136q-2 2 -2 10q-2 4 -3 5t-1 3v-154h-40v214h38q4 0 6 -1l2 -1q4 -2 5 -2t3 -2
l6 -4l4 -4t2 -4q4 -16 11 -31t13 -33q6 -16 13 -32t13 -32v-2v-4v-4q4 0 4 -4v4v4q0 2 1 4l1 2l8 16l44 112q0 2 1 4t1 4q2 2 5 3l3 1q2 2 4 2t4 2z" />
    <glyph glyph-name="atilde" unicode="&#xe3;" horiz-adv-x="1094" 
d="M44 465q0 99 38 185.5t103 151.5t151.5 102.5t184.5 37.5q99 0 186 -37.5t151.5 -102.5t101.5 -151.5t37 -185.5v-354q0 -23 -8.5 -43t-23.5 -35t-35.5 -24t-43.5 -9q-39 0 -66 23t-36 58q-57 -43 -123.5 -68t-139.5 -25q-98 0 -184.5 37.5t-151.5 102.5t-103 152
t-38 185zM261 465q0 -53 20.5 -100.5t56 -83t82.5 -56t101 -20.5t101.5 20.5t82.5 56t55 83t20 100.5q0 54 -20 101.5t-55 82.5t-82.5 55.5t-101.5 20.5q-53 0 -100.5 -20.5t-83 -55.5t-56 -82.5t-20.5 -101.5zM201 1225q7 10 26 30t47 40.5t64.5 35.5t78.5 15
q44 0 78.5 -15t67.5 -41q7 -6 17.5 -14t22.5 -15.5t25.5 -12.5t25.5 -5q47 0 98 68q0 -1 2 -1l1 1q25 23 58 23q17 0 32.5 -6t27.5 -19q23 -25 24 -57t-20 -58q0 -4 -1 -5q-7 -10 -25.5 -30t-46.5 -40.5t-65 -36t-80 -15.5q-42 0 -78.5 17.5t-68.5 41.5q-7 5 -17 12.5
t-21.5 14.5t-24.5 12t-25 5q-43 0 -87 -52q-10 -20 -31.5 -30.5t-42.5 -10.5q-35 0 -61 24q-13 12 -19.5 28.5t-6.5 33.5t6 33t19 29z" />
    <glyph glyph-name="backslash" unicode="\" horiz-adv-x="573" 
d="M-30 1122q-7 21 -5 45t11.5 45t25.5 37t37 23q18 6 35 6q35 0 64 -21t41 -56l340 -1056q7 -22 4.5 -43.5t-12.5 -40.5t-26.5 -33t-37.5 -22q-18 -5 -33 -5q-35 0 -64 20.5t-40 56.5z" />
    <glyph glyph-name="bar" unicode="|" horiz-adv-x="448" 
d="M115 1169q0 24 8.5 44t22.5 35t34 23.5t42 8.5q47 0 78.5 -31.5t31.5 -79.5v-1316q0 -23 -8.5 -43.5t-23.5 -35.5t-35 -23.5t-43 -8.5q-22 0 -42 8.5t-34 23.5t-22.5 35.5t-8.5 43.5v1316z" />
    <glyph glyph-name="beta" unicode="&#x3b2;" horiz-adv-x="966" 
d="M872 941q0 -81 -29 -149.5t-83 -113.5q41 -22 74.5 -54t57 -71.5t36.5 -85t13 -96.5q0 -66 -29 -134t-82 -122.5t-128.5 -89.5t-168.5 -35q-57 0 -107.5 14.5t-93.5 40.5v-269q0 -47 -29 -79t-76 -32t-79.5 28t-32.5 74v1116v6.5t1 6.5q2 87 31.5 158.5t81 123t123 80
t157.5 28.5q73 0 139 -26t115.5 -72.5t79 -109.5t29.5 -137zM429 655q0 25 9.5 46.5t25.5 37.5t37.5 25.5t46.5 9.5h5q29 1 50 16t35.5 37.5t21.5 50.5t7 55q0 30 -12 56t-33.5 45.5t-50.5 30.5t-62 11q-46 0 -79.5 -15.5t-55.5 -43t-32 -64.5t-10 -80v-490
q0 -33 12.5 -64.5t37.5 -57t62.5 -41.5t86.5 -16h21q38 0 70 15t56 39t37.5 55t13.5 64q0 38 -13.5 67t-36 49.5t-51 31t-58.5 10.5h-22q-25 0 -46.5 9.5t-37.5 26t-25.5 38t-9.5 46.5z" />
    <glyph glyph-name="braceleft" unicode="{" horiz-adv-x="778" 
d="M782 -212q0 -46 -30 -76t-77 -30q-11 -1 -21 -1.5t-21 -0.5q-92 0 -173.5 34.5t-142 94t-95 140t-34.5 173.5v255h-42q-25 0 -46.5 9.5t-37.5 26t-25 39t-9 47.5q0 24 9 45.5t25 37.5t37.5 25t46.5 9h42v231q2 90 37.5 169t95.5 137.5t140.5 92.5t172.5 34q10 0 20 -0.5
t21 -1.5q47 0 77 -30.5t30 -77.5q0 -22 -8 -41.5t-22 -34t-34 -23t-43 -8.5h-66q-43 0 -80.5 -18.5t-65 -49.5t-43.5 -71t-16 -84v-720q0 -43 16 -83t43.5 -71t65 -50t80.5 -19h66q47 0 77 -31.5t30 -77.5z" />
    <glyph glyph-name="braceright" unicode="}" horiz-adv-x="779" 
d="M-40 1170q0 47 30 77.5t77 30.5q11 1 21 1.5t21 0.5q93 0 174 -34.5t141 -94.5t95 -140t36 -171v-224h42q24 0 45.5 -9t37.5 -25t25 -37.5t9 -45.5q0 -25 -9 -47.5t-25 -39t-37.5 -26t-45.5 -9.5h-42v-264q-1 -91 -37 -170t-96.5 -137.5t-141 -92t-172.5 -33.5
q-10 0 -20 0.5t-21 1.5q-47 0 -77 30t-30 76t30 77.5t77 31.5h66q42 0 79 18.5t65 49t44 69.5t17 81v723q1 44 -15 84.5t-44 72t-65.5 50t-80.5 18.5h-66q-23 0 -42.5 8.5t-34 23t-22.5 34t-8 41.5z" />
    <glyph glyph-name="bracketleft" unicode="[" horiz-adv-x="578" 
d="M225 -321q-23 0 -43 9t-35 24t-23.5 35.5t-8.5 43.5v1377q0 23 8.5 43.5t23.5 35.5t35 24t43 9h235q23 0 43.5 -9t35.5 -24.5t23.5 -36t8.5 -43.5q0 -48 -32 -76t-79 -28h-128v-1167h130q47 0 78.5 -29.5t31.5 -75.5q0 -23 -8.5 -43.5t-23.5 -35.5t-35 -24t-43 -9h-237z
" />
    <glyph glyph-name="bracketright" unicode="]" horiz-adv-x="578" 
d="M74 -321q-23 0 -43 9t-35 24t-23.5 35.5t-8.5 43.5q0 46 32 75.5t78 29.5h130v1167h-128q-47 0 -78.5 28t-31.5 75q0 23 8.5 44t23.5 36.5t35 24.5t43 9h235q23 0 43 -9t35 -24t23.5 -35.5t8.5 -43.5v-1380q-1 -23 -9.5 -43t-23.5 -34.5t-34.5 -23t-42.5 -8.5h-237z" />
    <glyph glyph-name="breve" unicode="&#x2d8;" horiz-adv-x="517" 
d="M328 1306q0 32 21 54t53 22t53 -22t21 -54q0 -47 -18 -89t-49.5 -73t-73 -49t-89.5 -18t-90 18t-73.5 49t-49.5 73t-18 89q0 32 22 54t52 22q32 0 54 -22t22 -54v-3q1 -32 24 -55.5t57 -23.5q17 0 31.5 6.5t25.5 17t17.5 24.5t7.5 30v4z" />
    <glyph glyph-name="brokenbar" unicode="&#xa6;" horiz-adv-x="449" 
d="M115 1171q0 23 8.5 43.5t23.5 35.5t35 23.5t42 8.5q23 0 43 -8.5t35 -23.5t23.5 -35.5t8.5 -43.5v-501q0 -23 -8.5 -43t-23.5 -35t-35 -23.5t-43 -8.5q-22 0 -42 8.5t-35 23.5t-23.5 35t-8.5 43v501zM115 301q0 23 8.5 42.5t23.5 34.5t35 23.5t42 8.5q23 0 43 -8.5
t35 -23.5t23.5 -34.5t8.5 -42.5v-500q0 -23 -8.5 -43t-23.5 -34.5t-35 -23t-43 -8.5q-22 0 -42 8.5t-35 23t-23.5 34.5t-8.5 43v500z" />
    <glyph glyph-name="bullet" unicode="&#x2022;" horiz-adv-x="449" 
d="M220 299q-38 0 -72 14.5t-59 39.5t-39.5 59t-14.5 72q0 40 16 74t42 59t59 39t68 14q43 0 77.5 -17t59 -44t38 -60t13.5 -65q0 -38 -15 -72t-41 -59t-60 -39.5t-72 -14.5z" />
    <glyph glyph-name="cacute" unicode="&#x107;" horiz-adv-x="948" 
d="M260 465q0 -47 19.5 -93t53 -82.5t78.5 -59.5t97 -24q54 0 95.5 13.5t83.5 48.5q20 17 44.5 31.5t53.5 14.5q17 0 36 -7.5t39 -24.5q17 -15 25.5 -35.5t8 -43t-10 -44.5t-28.5 -42q-62 -63 -147.5 -96t-179.5 -33q-100 0 -188 36.5t-154 100.5t-104 150.5t-38 186.5
q1 1 1 2h-1q0 100 38 187.5t104 152t154 101.5t188 37q94 0 179.5 -31.5t147.5 -94.5q19 -19 29 -41.5t10.5 -45t-8.5 -43t-27 -36.5q-20 -17 -38 -24t-35 -7q-29 0 -53.5 14.5t-45.5 31.5q-42 32 -83 46t-86 14q-51 0 -98 -21t-82 -57t-56 -83t-21 -98zM645 1104
q-17 -17 -37.5 -25t-40.5 -8q-44 0 -76 32q-16 16 -24.5 36t-8.5 41t8.5 41.5t24.5 36.5l126 127q16 17 36 24.5t41 7.5t41.5 -8t36.5 -24q17 -16 25 -36t8 -40.5t-8.5 -40.5t-24.5 -36z" />
    <glyph glyph-name="caron" unicode="&#x2c7;" horiz-adv-x="699" 
d="M475 1482q14 14 29.5 20t30.5 6q26 0 47.5 -14.5t33 -37t9 -48.5t-25.5 -50l-208 -209l-2 -2q-28 -26 -62 -26q-37 0 -64 27l-208 210q-24 24 -26.5 50t9 48.5t33.5 37t47 14.5q15 0 30.5 -6t29.5 -20l148 -148z" />
    <glyph glyph-name="ccaron" unicode="&#x10d;" horiz-adv-x="948" 
d="M260 465q0 -47 19.5 -93t53 -82.5t78.5 -59.5t97 -24q54 0 95.5 13.5t83.5 48.5q20 17 44.5 31.5t53.5 14.5q17 0 36 -7.5t39 -24.5q17 -15 25.5 -35.5t8 -43t-10 -44.5t-28.5 -42q-62 -63 -147.5 -96t-179.5 -33q-100 0 -188 36.5t-154 100.5t-104 150.5t-38 186.5
q1 1 1 2h-1q0 100 38 187.5t104 152t154 101.5t188 37q94 0 179.5 -31.5t147.5 -94.5q19 -19 29 -41.5t10.5 -45t-8.5 -43t-27 -36.5q-20 -17 -38 -24t-35 -7q-29 0 -53.5 14.5t-45.5 31.5q-42 32 -83 46t-86 14q-51 0 -98 -21t-82 -57t-56 -83t-21 -98zM673 1421
q14 14 29.5 20t30.5 6q26 0 47.5 -14.5t33 -37t9 -48.5t-25.5 -50l-208 -209l-2 -2q-28 -26 -62 -26q-37 0 -64 27l-208 210q-24 24 -26.5 50t9 48.5t33.5 37t47 14.5q15 0 30.5 -6t29.5 -20l148 -148z" />
    <glyph glyph-name="ccedilla" unicode="&#xe7;" horiz-adv-x="948" 
d="M260 465q0 -47 19.5 -93t53 -82.5t78.5 -59.5t97 -24q54 0 95.5 13.5t83.5 48.5q20 17 44.5 31.5t53.5 14.5q17 0 36 -7.5t39 -24.5q17 -15 25.5 -35.5t8 -43t-10 -44.5t-28.5 -42q-62 -63 -147.5 -96t-179.5 -33q-100 0 -188 36.5t-154 100.5t-104 150.5t-38 186.5
q1 1 1 2h-1q0 100 38 187.5t104 152t154 101.5t188 37q94 0 179.5 -31.5t147.5 -94.5q19 -19 29 -41.5t10.5 -45t-8.5 -43t-27 -36.5q-20 -17 -38 -24t-35 -7q-29 0 -53.5 14.5t-45.5 31.5q-42 32 -83 46t-86 14q-51 0 -98 -21t-82 -57t-56 -83t-21 -98zM603 -82
q38 -7 70 -26.5t55 -48.5t36 -65.5t13 -77.5q0 -45 -17.5 -85t-47.5 -70t-70 -47t-85 -17q-46 0 -86 17t-70 47t-47.5 70t-17.5 85q0 30 20.5 50.5t50.5 20.5q28 0 48 -20.5t20 -50.5v-1q2 -34 25.5 -57.5t57.5 -23.5q18 0 33 6.5t26.5 18t18 27t6.5 32.5q0 37 -24.5 60
t-72.5 24h-5q-42 0 -59.5 16.5t-17.5 40.5v197q0 12 6.5 22.5t16 18.5t22 12.5t24.5 4.5t24.5 -4.5t23 -12.5t17 -18.5t6.5 -22.5v-122z" />
    <glyph glyph-name="ccircumflex" unicode="&#x109;" horiz-adv-x="948" 
d="M260 465q0 -47 19.5 -93t53 -82.5t78.5 -59.5t97 -24q54 0 95.5 13.5t83.5 48.5q20 17 44.5 31.5t53.5 14.5q17 0 36 -7.5t39 -24.5q17 -15 25.5 -35.5t8 -43t-10 -44.5t-28.5 -42q-62 -63 -147.5 -96t-179.5 -33q-100 0 -188 36.5t-154 100.5t-104 150.5t-38 186.5
q1 1 1 2h-1q0 100 38 187.5t104 152t154 101.5t188 37q94 0 179.5 -31.5t147.5 -94.5q19 -19 29 -41.5t10.5 -45t-8.5 -43t-27 -36.5q-20 -17 -38 -24t-35 -7q-29 0 -53.5 14.5t-45.5 31.5q-42 32 -83 46t-86 14q-51 0 -98 -21t-82 -57t-56 -83t-21 -98zM669 1085.09
q14 -13.999 29.5 -19.999t30.5 -6q26 0 47.5 14.499t33 36.998t9 48.4971t-25.5 49.9971l-208 208.987l-2 2q-28 25.998 -62 25.998q-37 0 -64 -26.998l-208 -209.987q-24 -23.999 -26.5 -49.9971t9 -48.4971t33.5 -36.998t47 -14.499q15 0 30.5 6t29.5 19.999l148 147.99z
" />
    <glyph glyph-name="cdotaccent" unicode="&#x10b;" horiz-adv-x="948" 
d="M260 465q0 -47 19.5 -93t53 -82.5t78.5 -59.5t97 -24q54 0 95.5 13.5t83.5 48.5q20 17 44.5 31.5t53.5 14.5q17 0 36 -7.5t39 -24.5q17 -15 25.5 -35.5t8 -43t-10 -44.5t-28.5 -42q-62 -63 -147.5 -96t-179.5 -33q-100 0 -188 36.5t-154 100.5t-104 150.5t-38 186.5
q1 1 1 2h-1q0 100 38 187.5t104 152t154 101.5t188 37q94 0 179.5 -31.5t147.5 -94.5q19 -19 29 -41.5t10.5 -45t-8.5 -43t-27 -36.5q-20 -17 -38 -24t-35 -7q-29 0 -53.5 14.5t-45.5 31.5q-42 32 -83 46t-86 14q-51 0 -98 -21t-82 -57t-56 -83t-21 -98zM393 1193
q0 26 10 49.5t27.5 41t41 27.5t49.5 10t49.5 -10t41 -27.5t27.5 -41t10 -49.5t-10 -49.5t-27.5 -41t-41 -27.5t-49.5 -10t-49.5 10t-41 27.5t-27.5 41t-10 49.5z" />
    <glyph glyph-name="cedilla" unicode="&#xb8;" horiz-adv-x="441" 
d="M315 -87q38 -7 70 -26.5t55 -48.5t36 -65.5t13 -77.5q0 -45 -17.5 -85t-47.5 -70t-70 -47t-85 -17q-46 0 -86 17t-70 47t-47.5 70t-17.5 85q0 30 20.5 50.5t50.5 20.5q28 0 48 -20.5t20 -50.5v-1q2 -34 25.5 -57.5t57.5 -23.5q18 0 33 6.5t26.5 18t18 27t6.5 32.5
q0 37 -24.5 60t-72.5 24h-5q-42 0 -59.5 16.5t-17.5 40.5v197q0 12 6.5 22.5t16 18.5t22 12.5t24.5 4.5t24.5 -4.5t23 -12.5t17 -18.5t6.5 -22.5v-122z" />
    <glyph glyph-name="cent" unicode="&#xa2;" horiz-adv-x="907" 
d="M504 -260q-22 0 -42 8.5t-34.5 23.5t-23 35.5t-8.5 43.5v150q-79 19 -146.5 61.5t-116.5 103t-77 136t-28 160.5q1 1 1 2h-1q0 85 28 161t77 137t116.5 104t146.5 62v182q0 23 8.5 43t23 35t34.5 23.5t42 8.5q23 0 43.5 -8.5t35.5 -23.5t23.5 -35t8.5 -43v-178
q65 -13 122 -42t102 -74q19 -19 29 -41.5t10.5 -45t-8.5 -43t-27 -36.5q-20 -17 -38 -24t-35 -7q-29 0 -53.5 14.5t-45.5 31.5q-42 32 -83 46t-86 14q-51 0 -98 -21t-82 -57t-56 -83t-21 -98l-1 -1q0 -47 19.5 -93t53 -82.5t78.5 -59.5t97 -24q54 0 95.5 13.5t83.5 48.5
q20 17 44.5 31.5t53.5 14.5q17 0 36 -7.5t39 -24.5q17 -15 25.5 -35.5t8 -43t-10 -44.5t-28.5 -42q-45 -45 -102 -74.5t-122 -43.5v-148q0 -23 -9 -43.5t-24 -35.5t-35 -23.5t-43 -8.5z" />
    <glyph glyph-name="chi" unicode="&#x3c7;" horiz-adv-x="1005" 
d="M509 140l-277 -391q-16 -24 -39.5 -36t-49.5 -12q-34 0 -62 19q-18 13 -30 31t-16 39t-0.5 42.5t16.5 40.5l324 456l-305 430q-26 38 -18 81.5t46 69.5q29 20 63 20q26 0 50 -12t41 -35l257 -364l258 364q16 23 40 35t50 12q35 0 64 -20q18 -13 29.5 -31t15.5 -38t0 -41
t-17 -40l-305 -431l323 -456q13 -19 17 -40.5t0 -42.5t-16 -39t-31 -31q-28 -19 -61 -19q-26 0 -49.5 12.5t-39.5 35.5z" />
    <glyph glyph-name="circumflex" unicode="&#x2c6;" horiz-adv-x="701" 
d="M478 1149.09q14 -13.999 29.5 -19.999t30.5 -6q26 0 47.5 14.499t33 36.998t9 48.4971t-25.5 49.9971l-208 208.987l-2 2q-28 25.998 -62 25.998q-37 0 -64 -26.998l-208 -209.987q-24 -23.999 -26.5 -49.9971t9 -48.4971t33.5 -36.998t47 -14.499q15 0 30.5 6
t29.5 19.999l148 147.99z" />
    <glyph glyph-name="colon" unicode=":" horiz-adv-x="454" 
d="M80 812q0 27 10 50.5t27.5 41t41 28t50.5 10.5t50.5 -10.5t41.5 -28t28 -41t10 -50.5t-10 -50.5t-28 -41t-41.5 -27.5t-50.5 -10t-50.5 10t-41 27.5t-27.5 41t-10 50.5zM80 118q0 27 10 50.5t27.5 41.5t41 28t50.5 10t50.5 -10t41.5 -28t28 -41.5t10 -50.5
q0 -26 -10 -49.5t-28 -41t-41.5 -28t-50.5 -10.5t-50.5 10.5t-41 28t-27.5 41t-10 49.5z" />
    <glyph glyph-name="comma" unicode="," horiz-adv-x="412" 
d="M80 131q0 24 8.5 44.5t23.5 35.5t35 24t43 9q48 0 77.5 -32.5t29.5 -80.5v-269q0 -48 -29.5 -80.5t-77.5 -32.5q-23 0 -43 9t-35 24t-23.5 35.5t-8.5 44.5v269z" />
    <glyph glyph-name="copyright" unicode="&#xa9;" horiz-adv-x="1384" 
d="M697 1262q93 0 178.5 -24t160 -67.5t136 -104.5t105.5 -135.5t68 -160.5t24 -178t-24 -178t-68 -160.5t-105.5 -135.5t-136 -104.5t-160 -67.5t-178.5 -24t-178.5 24t-160 67.5t-135 104.5t-104 135.5t-67 160.5t-23.5 178q0 93 23.5 178.5t67 160t104 135.5t135 104.5
t160 67.5t178.5 24zM698 1036q-93 0 -174 -34.5t-141.5 -94.5t-95 -141t-34.5 -174q0 -94 34.5 -175.5t95 -141.5t141.5 -94.5t174 -34.5t174.5 34.5t141.5 94.5t95 141.5t35 175.5q0 93 -35 174t-95 141t-141.5 94.5t-174.5 34.5zM690 745q-29 0 -56.5 -13t-48.5 -34.5
t-33.5 -49t-12.5 -56.5q0 -26 11.5 -52.5t31 -48.5t45.5 -36.5t56 -15.5q33 0 57.5 7t50.5 28q19 14 41 27t48 13q15 0 31.5 -6.5t33.5 -21.5q16 -13 23.5 -31.5t7 -38t-9 -39.5t-25.5 -38q-45 -46 -108 -70t-132 -24q-73 0 -137.5 26.5t-112.5 72.5t-76.5 109t-28.5 136v1
q0 74 28 137.5t76.5 110.5t113 74t137.5 27q70 0 132.5 -23t107.5 -70q34 -35 35 -77t-31 -70q-17 -15 -33.5 -21.5t-31.5 -6.5q-26 0 -48 13t-41 27q-26 20 -50.5 27t-50.5 7z" />
    <glyph glyph-name="currency" unicode="&#xa4;" horiz-adv-x="978" 
d="M97 647q0 67 22 127t60 109l-105 152q-1 0 -1 1q-12 19 -16 40t0.5 41t16.5 38t31 31q27 18 59 18q26 0 49 -12.5t39 -35.5l102 -148q29 10 60.5 15.5t64.5 5.5q63 0 123 -20l99 146q16 23 40 35t50 12q33 0 61 -19q18 -12 29.5 -30.5t15 -38.5t-1 -41.5t-17.5 -39.5
l-100 -148q39 -49 61.5 -109.5t22.5 -128.5q0 -71 -24 -133t-66 -112l102 -147q13 -19 17 -40t0 -41t-15.5 -38t-29.5 -30q-28 -19 -62 -19q-26 0 -49.5 12t-39.5 35l-103 149q-56 -17 -113 -17q-59 0 -113 17l-110 -157q-16 -23 -39.5 -35.5t-49.5 -12.5q-32 0 -60 19
q-18 13 -30 31t-16 38.5t0 41t17 38.5l108 156q-42 50 -65.5 112t-23.5 133zM302 647q0 -37 13.5 -69.5t37.5 -56.5t56.5 -38t69.5 -14q38 0 70.5 14t56.5 38t37.5 56.5t13.5 69.5t-13.5 69.5t-37.5 56.5t-56.5 38t-70.5 14q-37 0 -69.5 -14t-56.5 -38t-37.5 -56.5
t-13.5 -69.5z" />
    <glyph glyph-name="dagger" unicode="&#x2020;" horiz-adv-x="780" 
d="M276 628h-158q-25 0 -46 9.5t-36 25.5t-23.5 37.5t-8.5 45.5t8.5 44.5t23.5 35.5t36 23.5t46 8.5h158v320q0 23 8.5 43.5t23 35.5t34.5 23.5t43 8.5t43 -8.5t35 -23.5t23.5 -35.5t8.5 -43.5v-320h164q24 0 45 -9t36.5 -24.5t24.5 -35.5t9 -43q0 -24 -9 -45.5t-24.5 -37.5
t-36.5 -25.5t-45 -9.5h-164v-788q0 -23 -8.5 -43.5t-23.5 -35.5t-35 -23.5t-43 -8.5t-43 8.5t-34.5 23.5t-23 35.5t-8.5 43.5v788z" />
    <glyph glyph-name="daggerdbl" unicode="&#x2021;" horiz-adv-x="781" 
d="M289 342h-164q-24 0 -45 9.5t-36.5 25.5t-24 37.5t-8.5 46.5q0 24 8.5 44t24 35t36.5 23.5t45 8.5h164v184h-164q-24 0 -45 9.5t-36.5 25.5t-24 38t-8.5 46t8.5 44.5t24 35.5t36.5 23.5t45 8.5h164v191q0 23 8.5 43.5t23 35.5t34.5 23.5t42 8.5q23 0 43.5 -8.5
t35.5 -23.5t23.5 -35.5t8.5 -43.5v-191h163q25 0 46 -9t36.5 -24.5t24.5 -35.5t9 -43q0 -24 -9 -46t-24.5 -38t-36.5 -25.5t-46 -9.5h-163v-184h163q25 0 46 -9t36.5 -24t24.5 -35t9 -43q0 -25 -9 -46.5t-24.5 -37.5t-36.5 -25.5t-46 -9.5h-163v-502q0 -23 -9 -43.5
t-24 -35.5t-35 -23.5t-43 -8.5q-22 0 -42 8.5t-34.5 23.5t-23 35.5t-8.5 43.5v502z" />
    <glyph glyph-name="dcaron" unicode="&#x10f;" horiz-adv-x="1106" 
d="M997 461q-1 -97 -39 -183.5t-102.5 -150.5t-151 -101.5t-184.5 -37.5q-99 0 -185.5 37.5t-151 102.5t-102 152t-37.5 185q0 99 37.5 186t102 151.5t151 102t185.5 37.5q72 0 137.5 -20.5t122.5 -57.5v312q0 24 8 44.5t22.5 36t34 24t43.5 8.5q23 0 43 -8.5t34.5 -24
t23 -36t8.5 -44.5v-715zM780 465q0 54 -20.5 101.5t-56 82.5t-82.5 55.5t-101 20.5t-101 -20.5t-82.5 -55.5t-55.5 -82.5t-20 -101.5q0 -53 20 -100.5t55 -83t82.5 -56t101.5 -20.5t101 20.5t82.5 56t56 83t20.5 100.5zM1080 1167q0 24 8.5 44.5t23.5 35.5t35 24t43 9
q48 0 77.5 -32.5t29.5 -80.5v-269q0 -48 -29.5 -80.5t-77.5 -32.5q-23 0 -43 9t-35 24t-23.5 35.5t-8.5 44.5v269z" />
    <glyph glyph-name="dcroat" unicode="&#x111;" horiz-adv-x="1106" 
d="M598 1051q0 32 21 53t53 21h108v51q0 24 8 44.5t22.5 36t34 24t43.5 8.5q23 0 43 -8.5t34.5 -24t23 -36t8.5 -44.5v-51h109q32 0 54 -22t22 -52q0 -32 -22 -52t-54 -20h-109v-518q-1 -97 -39 -183.5t-102.5 -150.5t-151 -101.5t-184.5 -37.5q-99 0 -185.5 37.5
t-151 102.5t-102 152t-37.5 185q0 99 37.5 186t102 151.5t151 102t185.5 37.5q72 0 137.5 -20.5t122.5 -57.5v115h-108q-32 0 -53 20t-21 52zM520 205q54 0 101 20.5t82.5 56t56 83t20.5 100.5q0 54 -20.5 101.5t-56 82.5t-82.5 55.5t-101 20.5t-101 -20.5t-82.5 -55.5
t-55.5 -82.5t-20 -101.5q0 -53 20 -100.5t55 -83t82.5 -56t101.5 -20.5z" />
    <glyph glyph-name="de.alt" horiz-adv-x="1151" 
d="M969 219h37q22 0 41 -8t33.5 -22.5t23.5 -33.5t10 -41v-185q0 -23 -8.5 -43t-23 -34.5t-34 -23t-42.5 -8.5t-43.5 8.5t-35.5 23t-23.5 34.5t-8.5 43v71h-638v-71q0 -23 -8.5 -43t-23 -34.5t-34 -23t-42.5 -8.5t-43 8.5t-35 23t-24 34.5t-9 43v183q0 45 31 75t76 32h16
l230 635q7 38 38.5 62.5t69.5 24.5h362q23 0 42.5 -8.5t34 -23.5t23 -35t8.5 -44v-611zM390 219h360v503h-175z" />
    <glyph glyph-name="degree" unicode="&#xb0;" horiz-adv-x="741" 
d="M245 892q0 -31 12 -58.5t32 -48t48 -32.5t59 -12q32 0 59 12t47.5 32.5t32 48t11.5 58.5t-11.5 58.5t-32 47.5t-47.5 32t-59 12q-31 0 -59 -12t-48 -32t-32 -47.5t-12 -58.5zM66 892q0 69 26 129t71 104.5t105 70.5t127 26q69 0 129.5 -26t105.5 -70.5t70.5 -104.5
t25.5 -129q0 -68 -25.5 -128.5t-70.5 -106.5t-105.5 -72.5t-129.5 -26.5q-67 0 -127 26.5t-105 72.5t-71 106.5t-26 128.5z" />
    <glyph glyph-name="delta" unicode="&#x3b4;" horiz-adv-x="1042" 
d="M44 465q0 90 31.5 170t86.5 143t129.5 104.5t160.5 54.5l-134 150q-10 8 -18 20l-5 6q-11 13 -16 30t-4 35v5q0 44 29.5 70.5t73.5 26.5h506q22 0 41 -8t33.5 -22t22.5 -32t8 -39q0 -22 -8 -43t-22.5 -37t-33.5 -26t-41 -10h-269l250 -268q62 -65 97 -149t35 -181
q0 -98 -37 -185t-101.5 -152t-151.5 -102.5t-186 -37.5q-98 0 -184.5 37.5t-151.5 102.5t-103 152t-38 185zM261 465q0 -53 20.5 -100.5t56 -83t82.5 -56t101 -20.5t101.5 20.5t82.5 56t55 83t20 100.5q0 54 -20 101.5t-55 82.5t-82.5 55.5t-101.5 20.5q-53 0 -100.5 -20.5
t-83 -55.5t-56 -82.5t-20.5 -101.5z" />
    <glyph glyph-name="dieresis" unicode="&#xa8;" horiz-adv-x="751" 
d="M455 1213q0 24 9.5 46t26 38.5t38.5 26t46 9.5q25 0 47 -9.5t38 -26t25.5 -38.5t9.5 -46q0 -25 -9.5 -47t-25.5 -38t-38 -25.5t-47 -9.5q-24 0 -46 9.5t-38.5 25.5t-26 38t-9.5 47zM77 1213q0 24 9.5 46t25.5 38.5t38 26t47 9.5q24 0 46 -9.5t38.5 -26t26 -38.5t9.5 -46
q0 -25 -9.5 -47t-26 -38t-38.5 -25.5t-46 -9.5q-25 0 -47 9.5t-38 25.5t-25.5 38t-9.5 47z" />
    <glyph glyph-name="dieresistonos" unicode="&#x385;" horiz-adv-x="983" 
d="M641 1205q0 26 10 49.5t27.5 41t40.5 27.5t49 10q27 0 50.5 -10t41 -27.5t27.5 -41t10 -49.5t-10 -49.5t-27.5 -41t-41 -27.5t-50.5 -10q-26 0 -49 10t-40.5 27.5t-27.5 41t-10 49.5zM54 1205q0 26 10 49.5t27.5 41t41 27.5t49.5 10q27 0 50 -10t40.5 -27.5t27.5 -41
t10 -49.5t-10 -49.5t-27.5 -41t-40.5 -27.5t-50 -10q-26 0 -49.5 10t-41 27.5t-27.5 41t-10 49.5zM580 1285q0 -22 -8.5 -42t-23 -34t-34 -22.5t-41.5 -8.5t-42 8.5t-35 22.5t-23.5 34t-8.5 42v197q0 23 8.5 43t23 34.5t34.5 23t43 8.5t42.5 -8.5t33.5 -23t22.5 -34.5
t8.5 -43v-197z" />
    <glyph glyph-name="divide" unicode="&#xf7;" horiz-adv-x="778" 
d="M128 474q-22 0 -41 8t-33 22t-22 32.5t-8 39.5t8 40t22 32.5t33 21.5t41 8h520q22 0 40.5 -8t32.5 -22t22 -32.5t8 -39.5q0 -43 -29.5 -72.5t-73.5 -29.5h-520zM274 939q0 26 10 49.5t27.5 41t41 27.5t49.5 10t49.5 -10t41 -27.5t27.5 -41t10 -49.5t-10 -49.5t-27.5 -41
t-41 -27.5t-49.5 -10t-49.5 10t-41 27.5t-27.5 41t-10 49.5zM271 228q0 27 10 50t27.5 40.5t40.5 27.5t49 10q27 0 50.5 -10t41 -27.5t27.5 -40.5t10 -50q0 -26 -10 -49.5t-27.5 -41t-41 -27.5t-50.5 -10q-26 0 -49 10t-40.5 27.5t-27.5 41t-10 49.5z" />
    <glyph glyph-name="dollar" unicode="$" horiz-adv-x="974" 
d="M496 1446q19 0 35.5 -7t28.5 -19.5t19 -29.5t7 -36v-73q92 -16 169.5 -60.5t121.5 -119.5q9 -15 10.5 -31t-2 -31t-11 -28.5t-17.5 -22.5q-27 -27 -71 -27q-16 0 -32.5 4.5t-31.5 15.5q-27 23 -51 40.5t-50 28.5t-56 16.5t-71 5.5q-45 0 -84 -11t-67.5 -32t-45 -50
t-16.5 -65q0 -42 22 -69t61 -45.5t91.5 -31t113.5 -25.5q70 -18 136.5 -44.5t118.5 -68.5t83.5 -102.5t31.5 -144.5q0 -73 -26.5 -137t-73.5 -115t-111.5 -85.5t-141.5 -48.5v-84q0 -39 -26.5 -65.5t-64.5 -26.5q-39 0 -66 26.5t-27 65.5v82q-61 10 -116.5 32.5t-101 54
t-80.5 71t-55 83.5q-13 26 -14.5 49t5.5 42t20.5 33.5t30.5 23.5q26 14 49 14q49 0 100 -65q42 -61 106 -94.5t150 -33.5q42 0 82.5 11t72.5 32.5t51.5 52.5t19.5 71q0 44 -20 71.5t-51.5 44.5t-71 27t-78.5 19q-96 18 -176 48t-138 76t-90.5 109t-32.5 145q0 72 26.5 134
t72.5 110t107.5 80t131.5 45v73q0 19 7.5 36t20 29.5t30 19.5t36.5 7z" />
    <glyph glyph-name="dotaccent" unicode="&#x2d9;" horiz-adv-x="353" 
d="M35 1212q0 26 10 49.5t27.5 41t41 27.5t49.5 10t49.5 -10t41 -27.5t27.5 -41t10 -49.5t-10 -49.5t-27.5 -41t-41 -27.5t-49.5 -10t-49.5 10t-41 27.5t-27.5 41t-10 49.5z" />
    <glyph glyph-name="dotlessi" unicode="&#x131;" horiz-adv-x="451" 
d="M334 109q0 -23 -8.5 -43t-22.5 -34.5t-33.5 -23t-42.5 -8.5q-22 0 -42 8.5t-35 23t-24 34.5t-9 43v712q0 23 9 42.5t24 34.5t35.5 23.5t43.5 8.5t42 -8.5t33 -23.5t22 -34.5t8 -42.5v-712z" />
    <glyph glyph-name="eacute" unicode="&#xe9;" horiz-adv-x="1043" 
d="M286 368q13 -37 36.5 -67.5t54.5 -52t68 -33t78 -11.5q103 0 162 54q20 14 39 20.5t36 6.5q28 0 50 -14.5t36 -37.5q10 -16 14.5 -34.5t2 -37.5t-12 -37.5t-28.5 -33.5q-22 -20 -50 -38.5t-64.5 -32.5t-82 -22.5t-102.5 -8.5q-99 0 -186 37.5t-152 102.5t-103 151.5
t-38 185.5t38 186t103 151.5t152 102t186 37.5q98 0 184.5 -37t152 -100.5t104 -149.5t39.5 -184q0 -46 -29.5 -74.5t-77.5 -28.5h-610zM780 548q-11 41 -34.5 74t-56.5 56t-74 35t-87 12t-86.5 -12.5t-73 -36t-55.5 -56t-34 -72.5h501zM669 1097q-17 -17 -37.5 -25
t-40.5 -8q-44 0 -76 32q-16 16 -24.5 36t-8.5 41t8.5 41.5t24.5 36.5l126 127q16 17 36 24.5t41 7.5t41.5 -8t36.5 -24q17 -16 25 -36t8 -40.5t-8.5 -40.5t-24.5 -36z" />
    <glyph glyph-name="ebreve" unicode="&#x115;" horiz-adv-x="1043" 
d="M286 368q13 -37 36.5 -67.5t54.5 -52t68 -33t78 -11.5q103 0 162 54q20 14 39 20.5t36 6.5q28 0 50 -14.5t36 -37.5q10 -16 14.5 -34.5t2 -37.5t-12 -37.5t-28.5 -33.5q-22 -20 -50 -38.5t-64.5 -32.5t-82 -22.5t-102.5 -8.5q-99 0 -186 37.5t-152 102.5t-103 151.5
t-38 185.5t38 186t103 151.5t152 102t186 37.5q98 0 184.5 -37t152 -100.5t104 -149.5t39.5 -184q0 -46 -29.5 -74.5t-77.5 -28.5h-610zM780 548q-11 41 -34.5 74t-56.5 56t-74 35t-87 12t-86.5 -12.5t-73 -36t-55.5 -56t-34 -72.5h501zM641 1291q0 32 21 54t53 22t53 -22
t21 -54q0 -47 -18 -89t-49.5 -73t-73 -49t-89.5 -18t-90 18t-73.5 49t-49.5 73t-18 89q0 32 22 54t52 22q32 0 54 -22t22 -54v-3q1 -32 24 -55.5t57 -23.5q17 0 31.5 6.5t25.5 17t17.5 24.5t7.5 30v4z" />
    <glyph glyph-name="ecaron" unicode="&#x11b;" horiz-adv-x="1043" 
d="M286 368q13 -37 36.5 -67.5t54.5 -52t68 -33t78 -11.5q103 0 162 54q20 14 39 20.5t36 6.5q28 0 50 -14.5t36 -37.5q10 -16 14.5 -34.5t2 -37.5t-12 -37.5t-28.5 -33.5q-22 -20 -50 -38.5t-64.5 -32.5t-82 -22.5t-102.5 -8.5q-99 0 -186 37.5t-152 102.5t-103 151.5
t-38 185.5t38 186t103 151.5t152 102t186 37.5q98 0 184.5 -37t152 -100.5t104 -149.5t39.5 -184q0 -46 -29.5 -74.5t-77.5 -28.5h-610zM780 548q-11 41 -34.5 74t-56.5 56t-74 35t-87 12t-86.5 -12.5t-73 -36t-55.5 -56t-34 -72.5h501zM694 1435q14 14 29.5 20t30.5 6
q26 0 47.5 -14.5t33 -37t9 -48.5t-25.5 -50l-208 -209l-2 -2q-28 -26 -62 -26q-37 0 -64 27l-208 210q-24 24 -26.5 50t9 48.5t33.5 37t47 14.5q15 0 30.5 -6t29.5 -20l148 -148z" />
    <glyph glyph-name="ecircumflex" unicode="&#xea;" horiz-adv-x="1043" 
d="M286 368q13 -37 36.5 -67.5t54.5 -52t68 -33t78 -11.5q103 0 162 54q20 14 39 20.5t36 6.5q28 0 50 -14.5t36 -37.5q10 -16 14.5 -34.5t2 -37.5t-12 -37.5t-28.5 -33.5q-22 -20 -50 -38.5t-64.5 -32.5t-82 -22.5t-102.5 -8.5q-99 0 -186 37.5t-152 102.5t-103 151.5
t-38 185.5t38 186t103 151.5t152 102t186 37.5q98 0 184.5 -37t152 -100.5t104 -149.5t39.5 -184q0 -46 -29.5 -74.5t-77.5 -28.5h-610zM780 548q-11 41 -34.5 74t-56.5 56t-74 35t-87 12t-86.5 -12.5t-73 -36t-55.5 -56t-34 -72.5h501zM699 1091.09
q14 -13.999 29.5 -19.999t30.5 -6q26 0 47.5 14.499t33 36.998t9 48.4971t-25.5 49.9971l-208 208.987l-2 2q-28 25.998 -62 25.998q-37 0 -64 -26.998l-208 -209.987q-24 -23.999 -26.5 -49.9971t9 -48.4971t33.5 -36.998t47 -14.499q15 0 30.5 6t29.5 19.999l148 147.99z
" />
    <glyph glyph-name="edieresis" unicode="&#xeb;" horiz-adv-x="1043" 
d="M286 368q13 -37 36.5 -67.5t54.5 -52t68 -33t78 -11.5q103 0 162 54q20 14 39 20.5t36 6.5q28 0 50 -14.5t36 -37.5q10 -16 14.5 -34.5t2 -37.5t-12 -37.5t-28.5 -33.5q-22 -20 -50 -38.5t-64.5 -32.5t-82 -22.5t-102.5 -8.5q-99 0 -186 37.5t-152 102.5t-103 151.5
t-38 185.5t38 186t103 151.5t152 102t186 37.5q98 0 184.5 -37t152 -100.5t104 -149.5t39.5 -184q0 -46 -29.5 -74.5t-77.5 -28.5h-610zM780 548q-11 41 -34.5 74t-56.5 56t-74 35t-87 12t-86.5 -12.5t-73 -36t-55.5 -56t-34 -72.5h501zM617 1190q0 24 9.5 46t26 38.5
t38.5 26t46 9.5q25 0 47 -9.5t38 -26t25.5 -38.5t9.5 -46q0 -25 -9.5 -47t-25.5 -38t-38 -25.5t-47 -9.5q-24 0 -46 9.5t-38.5 25.5t-26 38t-9.5 47zM239 1190q0 24 9.5 46t25.5 38.5t38 26t47 9.5q24 0 46 -9.5t38.5 -26t26 -38.5t9.5 -46q0 -25 -9.5 -47t-26 -38
t-38.5 -25.5t-46 -9.5q-25 0 -47 9.5t-38 25.5t-25.5 38t-9.5 47z" />
    <glyph glyph-name="edotaccent" unicode="&#x117;" horiz-adv-x="1043" 
d="M286 368q13 -37 36.5 -67.5t54.5 -52t68 -33t78 -11.5q103 0 162 54q20 14 39 20.5t36 6.5q28 0 50 -14.5t36 -37.5q10 -16 14.5 -34.5t2 -37.5t-12 -37.5t-28.5 -33.5q-22 -20 -50 -38.5t-64.5 -32.5t-82 -22.5t-102.5 -8.5q-99 0 -186 37.5t-152 102.5t-103 151.5
t-38 185.5t38 186t103 151.5t152 102t186 37.5q98 0 184.5 -37t152 -100.5t104 -149.5t39.5 -184q0 -46 -29.5 -74.5t-77.5 -28.5h-610zM780 548q-11 41 -34.5 74t-56.5 56t-74 35t-87 12t-86.5 -12.5t-73 -36t-55.5 -56t-34 -72.5h501zM408 1196q0 26 10 49.5t27.5 41
t41 27.5t49.5 10t49.5 -10t41 -27.5t27.5 -41t10 -49.5t-10 -49.5t-27.5 -41t-41 -27.5t-49.5 -10t-49.5 10t-41 27.5t-27.5 41t-10 49.5z" />
    <glyph glyph-name="egrave" unicode="&#xe8;" horiz-adv-x="1043" 
d="M286 368q13 -37 36.5 -67.5t54.5 -52t68 -33t78 -11.5q103 0 162 54q20 14 39 20.5t36 6.5q28 0 50 -14.5t36 -37.5q10 -16 14.5 -34.5t2 -37.5t-12 -37.5t-28.5 -33.5q-22 -20 -50 -38.5t-64.5 -32.5t-82 -22.5t-102.5 -8.5q-99 0 -186 37.5t-152 102.5t-103 151.5
t-38 185.5t38 186t103 151.5t152 102t186 37.5q98 0 184.5 -37t152 -100.5t104 -149.5t39.5 -184q0 -46 -29.5 -74.5t-77.5 -28.5h-610zM780 548q-11 41 -34.5 74t-56.5 56t-74 35t-87 12t-86.5 -12.5t-73 -36t-55.5 -56t-34 -72.5h501zM470.015 1107
q16.999 -17 37.4971 -25q20.499 -8 40.498 -8q43.9971 0 75.9951 32q15.999 16 24.499 36q8.49902 20 8.49902 41t-8.49902 41.5q-8.5 20.5 -24.499 36.5l-125.992 127q-15.999 17 -35.998 24.5q-19.998 7.5 -40.9971 7.5t-41.498 -8q-20.498 -8 -36.4971 -24
q-16.999 -16 -24.999 -36q-7.99902 -20 -7.99902 -40.5t8.49902 -40.5q8.5 -20 24.499 -36z" />
    </font>
</defs>
</svg>
