<svg xmlns="http://www.w3.org/2000/svg" viewBox="0 0 64 64"><path fill="#0F2A25" d="M54.03 22.92c-2.71-2.7-5.84-3.22-8.17-1.34-.81.65-1.64 1.72-1.89 3.47-1.46.21-2.63.85-3.48 1.9-3.46 4.3 1.68 10.69 7.44 10.69a8.6 8.6 0 0 0 6.1-2.52c1.63-1.63 2.53-3.8 2.53-6.1s-.9-4.47-2.53-6.1ZM42.7 33.11c-.9-1.09-2.09-3.11-.65-4.9.46-.58 1.08-.95 1.88-1.12.05.54.15 1.13.29 1.77.4 1.34.33 2.47-.19 3.27-.31.47-.77.81-1.33.98Zm9.92.6a6.656 6.656 0 0 1-8.32.86c.56-.34 1.04-.79 1.41-1.34.6-.91 1.16-2.51.45-4.88-.44-1.86-.53-4.01.96-5.2 2.21-1.78 4.77.47 5.5 1.19 1.25 1.25 1.94 2.92 1.94 4.69s-.69 3.43-1.94 4.69Z"/><path d="M60 29.02c0-3.22-1.26-6.25-3.54-8.53a12.035 12.035 0 0 0-12.54-2.85l-8.58-8.57c.26-.49.45-1.03.45-1.6 0-.92-.36-1.79-1.02-2.45-1.31-1.31-3.58-1.31-4.89 0l-5.96 5.96c-.66.66-1.02 1.52-1.02 2.45s.36 1.79 1.02 2.45 1.52 1.02 2.45 1.02c.58 0 1.11-.18 1.6-.45l8.58 8.57c-1.54 4.37-.46 9.23 2.85 12.54 2.35 2.35 5.44 3.53 8.54 3.53 3.09 0 6.18-1.18 8.53-3.53 2.28-2.28 3.53-5.31 3.53-8.53zM25.34 14.46c-.28-.28-.43-.64-.43-1.03s.15-.75.43-1.03l5.96-5.96c.55-.55 1.51-.55 2.06 0 .28.28.43.64.43 1.03s-.15.75-.43 1.03l-5.96 5.96c-.55.56-1.51.56-2.06 0zm15.47 21.68a10.053 10.053 0 0 1-2.18-10.99c.16-.37.07-.8-.22-1.09l-8.9-8.89 4.55-4.55 1.75 1.75-1.46 1.46a.996.996 0 0 0 .71 1.7c.26 0 .51-.1.71-.29l1.46-1.46 1.9 1.9-1.46 1.45a.996.996 0 0 0 .71 1.7c.26 0 .51-.1.71-.29l1.46-1.46 2.42 2.42c.29.29.72.37 1.09.22 3.78-1.57 8.1-.72 10.99 2.18 1.9 1.9 2.95 4.43 2.95 7.12 0 2.69-1.05 5.22-2.95 7.12-3.93 3.92-10.31 3.92-14.24 0zM7.17 39.3l-1.9 16.78c-.13 1.11.18 2.13.85 2.89.59.66 1.4 1.03 2.23 1.03h11.84c3.58 0 7.16 0 10.74-.03.84 0 1.65-.38 2.24-1.03.67-.75.98-1.78.85-2.88l-1.91-16.83c1.62-.6 2.8-2.13 2.8-3.96 0-2.35-1.91-4.26-4.26-4.26H8.26C5.91 31.01 4 32.92 4 35.27c0 1.96 1.36 3.55 3.17 4.04zm22.96.22.08.72h-2.1c-.55 0-1 .46-1 1.01s.45 1 1 1h2.32l.26 2.29h-2.1c-.55 0-1 .46-1 1.01s.45 1 1 1h2.32l.26 2.29h-2.1c-.55 0-1 .46-1 1.01s.45 1 1 1h2.32l.26 2.29h-2.1c-2.51 0-4.04-1.52-7.2-5.26-3.56-4.21-8.11-5.07-13.85-2.68l.64-5.66h20.99zm1.54 18.09c-.21.23-.48.36-.75.36-5.55.04-11.1.03-16.65.02H8.35c-.27 0-.54-.14-.74-.37-.29-.32-.42-.8-.36-1.33l1-8.82c5.41-2.58 9.43-2.07 12.59 1.67 3.13 3.7 5.22 5.97 8.73 5.97h2.32l.13 1.16c.06.53-.07 1-.36 1.33zM8.26 33h22.38c1.25 0 2.26 1.01 2.26 2.26s-1.01 2.26-2.26 2.26H8.26C7.01 37.52 6 36.51 6 35.26S7.01 33 8.26 33zm11.19-4.03c2.68 0 4.85-2.18 4.85-4.85 0-2.28-1.83-7.46-4.85-7.46s-4.85 5.18-4.85 7.46c0 2.68 2.18 4.85 4.85 4.85zm0-10.31c1.2 0 2.85 3.48 2.85 5.46 0 1.57-1.28 2.85-2.85 2.85s-2.85-1.28-2.85-2.85c0-1.98 1.65-5.46 2.85-5.46zm-12.6-1.17c0 1.69 1.38 3.07 3.07 3.07s3.07-1.38 3.07-3.07-1.38-3.07-3.07-3.07-3.07 1.38-3.07 3.07zm4.13 0a1.071 1.071 0 0 1-2.14 0 1.071 1.071 0 0 1 2.14 0zm7.11-3.41c2.14 0 3.88-1.74 3.88-3.88s-1.74-3.88-3.88-3.88-3.88 1.74-3.88 3.88 1.74 3.88 3.88 3.88zm0-5.76c1.04 0 1.88.84 1.88 1.88s-.84 1.88-1.88 1.88-1.88-.84-1.88-1.88.84-1.88 1.88-1.88z"/><path d="M23.78 44.41a1.25 1.25 0 1 0 0-2.5 1.25 1.25 0 0 0 0 2.5zm-9.84 7.34a1.25 1.25 0 1 0 0 2.5 1.25 1.25 0 0 0 0-2.5z"/><circle cx="49.7" cy="25.3" r="1.25"/><circle cx="50.72" cy="30.99" r="1.25"/></svg>