<svg xmlns="http://www.w3.org/2000/svg" viewBox="0 0 431.38 393.21"><defs><style>.cls-1{fill:#dde0d0;}.cls-2{fill:#2a4d41;}</style></defs><g id="Camada_2" data-name="Camada 2"><g id="Camada_1-2" data-name="Camada 1"><path class="cls-1" d="M84.51,361.65A53.52,53.52,0,0,1,76,359.19a27.52,27.52,0,0,1-7.11-3.89A17.69,17.69,0,0,1,64,349.74a15.31,15.31,0,0,1-1.78-7.54,16.94,16.94,0,0,1,1.86-7.95,19.59,19.59,0,0,1,4.93-6.1,22.35,22.35,0,0,1,7-3.92,24.89,24.89,0,0,1,8.19-1.38,29.72,29.72,0,0,1,6.17.65,24.83,24.83,0,0,1,5.68,1.92,21.34,21.34,0,0,1,4.82,3.16,17.21,17.21,0,0,1,3.64,4.38,3.53,3.53,0,0,1,.37,2.73,4.54,4.54,0,0,1-1.24,2.18,4.44,4.44,0,0,1-2.61,1.14,4.36,4.36,0,0,1-3.2-.92,29.61,29.61,0,0,0-3-2.7,14.28,14.28,0,0,0-3.07-1.84,15.49,15.49,0,0,0-3.43-1,23.63,23.63,0,0,0-4.06-.32,16.82,16.82,0,0,0-4.74.68,13.62,13.62,0,0,0-4.12,1.94,10,10,0,0,0-2.91,3.11,8,8,0,0,0-1.11,4.21,6.6,6.6,0,0,0,1.38,4.3,11.11,11.11,0,0,0,3.61,2.86,24.09,24.09,0,0,0,5.09,1.92c1.9.51,3.82,1,5.76,1.46a67.53,67.53,0,0,1,7.57,2.6,26.47,26.47,0,0,1,6.54,3.78,17.81,17.81,0,0,1,4.61,5.46,15.66,15.66,0,0,1,1.75,7.62,19.37,19.37,0,0,1-1.86,8.51,20.56,20.56,0,0,1-5.06,6.65,23.86,23.86,0,0,1-7.52,4.35,26.83,26.83,0,0,1-9.21,1.56,27.94,27.94,0,0,1-7.57-1,28.88,28.88,0,0,1-6.67-2.81,24,24,0,0,1-5.34-4.22A18.77,18.77,0,0,1,61,380a4.81,4.81,0,0,1-.38-4,4.53,4.53,0,0,1,2.21-2.4,4,4,0,0,1,3.28-.38,7.17,7.17,0,0,1,3.13,2.59,15.58,15.58,0,0,0,6.22,5.95,18.82,18.82,0,0,0,9.07,2.16,17.81,17.81,0,0,0,5-.73A14.49,14.49,0,0,0,94.07,381a11.65,11.65,0,0,0,3.2-3.54,9.41,9.41,0,0,0,1.24-4.87,7.64,7.64,0,0,0-1.24-4.48,10.15,10.15,0,0,0-3.23-3,20.94,20.94,0,0,0-4.49-2Z"/><path class="cls-1" d="M114.24,367.44a25.18,25.18,0,0,1,2-10.06,25.89,25.89,0,0,1,5.52-8.18,26.16,26.16,0,0,1,8.19-5.52,25.56,25.56,0,0,1,19.87,0,25.82,25.82,0,0,1,13.63,13.56,24.84,24.84,0,0,1,2.1,9.94v20.6a4.71,4.71,0,0,1-1.37,3.4,4.59,4.59,0,0,1-3.42,1.4,4.17,4.17,0,0,1-3.26-1.4,4.93,4.93,0,0,1-1.27-3.4l-.05-1.14a28.09,28.09,0,0,1-7.46,4.78,21.61,21.61,0,0,1-8.81,1.81,24.81,24.81,0,0,1-10-2,26,26,0,0,1-13.71-13.73A25,25,0,0,1,114.24,367.44Zm9.27,0a15.92,15.92,0,0,0,1.29,6.35,17.13,17.13,0,0,0,3.5,5.24,16.61,16.61,0,0,0,5.22,3.56,15.66,15.66,0,0,0,6.41,1.33,15.39,15.39,0,0,0,6.41-1.33,16.57,16.57,0,0,0,8.65-8.8,16.48,16.48,0,0,0-3.48-18,16.63,16.63,0,0,0-5.17-3.52,16.5,16.5,0,0,0-12.79,0,17,17,0,0,0-5.22,3.52A16.27,16.27,0,0,0,124.8,361,16.06,16.06,0,0,0,123.51,367.44Z"/><path class="cls-1" d="M189.86,340v7.57h5.28a4.53,4.53,0,0,1,3.34,1.35,4.48,4.48,0,0,1,1.35,3.29,4.61,4.61,0,0,1-4.69,4.71h-5.28v30.91a4.72,4.72,0,0,1-.37,1.89,5.1,5.1,0,0,1-1,1.51,4.15,4.15,0,0,1-1.45,1,4.53,4.53,0,0,1-1.81.35,4.48,4.48,0,0,1-1.8-.35,4.36,4.36,0,0,1-1.48-1,4.82,4.82,0,0,1-1-1.51,4.72,4.72,0,0,1-.37-1.89V356.9h-3.94a4.41,4.41,0,0,1-3.28-1.38,4.59,4.59,0,0,1-1.35-3.33,4.61,4.61,0,0,1,4.63-4.64h3.94v-7.73a4.38,4.38,0,0,1,1.4-3.3,4.69,4.69,0,0,1,3.39-1.35,4.19,4.19,0,0,1,3.15,1.3,4.8,4.8,0,0,1,1.37,3.19V340l-9.31.06a17.06,17.06,0,0,1,1.29-6.62,17.39,17.39,0,0,1,3.55-5.46,16.55,16.55,0,0,1,5.34-3.7,15.94,15.94,0,0,1,6.57-1.36s0,.08,0,.22a.23.23,0,0,1,0,.16l.11,8.76v.11c0,.07,0,.1-.11.1h-.22a4.6,4.6,0,0,1-3.15-1.4,4.41,4.41,0,0,1-1.26-3.19,4.65,4.65,0,0,1,1.34-3.38,4.43,4.43,0,0,1,3.29-1.38,4.68,4.68,0,0,1,4.74,4.76,4.38,4.38,0,0,1-.38,1.81,4.57,4.57,0,0,1-1,1.46,4.82,4.82,0,0,1-3.34,1.32h-.22a7.23,7.23,0,0,0-5.06,2.27,7.88,7.88,0,0,0-2.16,5.14V340Z"/><path class="cls-1" d="M221.8,340v7.57h5.28a4.53,4.53,0,0,1,3.34,1.35,4.48,4.48,0,0,1,1.35,3.29,4.61,4.61,0,0,1-4.69,4.71H221.8v30.91a4.72,4.72,0,0,1-.37,1.89,5.1,5.1,0,0,1-1,1.51,4.15,4.15,0,0,1-1.45,1,4.53,4.53,0,0,1-1.81.35,4.48,4.48,0,0,1-1.8-.35,4.36,4.36,0,0,1-1.48-1,4.82,4.82,0,0,1-1-1.51,4.72,4.72,0,0,1-.37-1.89V356.9h-3.94a4.41,4.41,0,0,1-3.28-1.38,4.59,4.59,0,0,1-1.35-3.33,4.61,4.61,0,0,1,4.63-4.64h3.94v-7.73a4.38,4.38,0,0,1,1.4-3.3,4.69,4.69,0,0,1,3.39-1.35,4.19,4.19,0,0,1,3.15,1.3,4.8,4.8,0,0,1,1.37,3.19V340l-9.31.06a17.06,17.06,0,0,1,1.29-6.62,17.39,17.39,0,0,1,3.55-5.46,16.55,16.55,0,0,1,5.34-3.7,15.94,15.94,0,0,1,6.57-1.36s0,.08,0,.22a.23.23,0,0,1,0,.16l.1,8.76v.11c0,.07,0,.1-.1.1H229a4.6,4.6,0,0,1-3.15-1.4,4.42,4.42,0,0,1-1.27-3.19,4.65,4.65,0,0,1,1.35-3.38,4.42,4.42,0,0,1,3.29-1.38,4.68,4.68,0,0,1,4.74,4.76,4.38,4.38,0,0,1-.38,1.81,4.57,4.57,0,0,1-1,1.46,4.82,4.82,0,0,1-3.34,1.32H229a7.46,7.46,0,0,0-2.8.65,7.31,7.31,0,0,0-2.26,1.62,7.88,7.88,0,0,0-2.16,5.14V340Z"/><path class="cls-1" d="M267.05,351.65H267a16.71,16.71,0,0,0-6.73,1.38,17.63,17.63,0,0,0-5.55,3.76,18.12,18.12,0,0,0-3.77,5.59,17.15,17.15,0,0,0-1.4,6.89v18.65a4.56,4.56,0,0,1-1.29,3.32,4.27,4.27,0,0,1-3.18,1.32,4.75,4.75,0,0,1-3.39-1.32,4.35,4.35,0,0,1-1.4-3.32V369.27a26.19,26.19,0,0,1,2.1-10.45,27.53,27.53,0,0,1,5.73-8.57,27.13,27.13,0,0,1,8.52-5.81A25.55,25.55,0,0,1,267,342.31h.27a4.71,4.71,0,0,1,3.58,1.32,4.59,4.59,0,0,1,1.27,3.32,4.47,4.47,0,0,1-1.4,3.35,4.77,4.77,0,0,1-3.45,1.35Z"/><path class="cls-1" d="M274.27,367.44a25.18,25.18,0,0,1,2-10.06,25.56,25.56,0,0,1,5.52-8.18,26.11,26.11,0,0,1,8.18-5.52,25.66,25.66,0,0,1,20,0,25.9,25.9,0,0,1,13.63,13.7,26,26,0,0,1,0,20.08,26.39,26.39,0,0,1-5.5,8.19,25.78,25.78,0,0,1-8.13,5.54,25.66,25.66,0,0,1-20,0,26,26,0,0,1-13.7-13.73A25,25,0,0,1,274.27,367.44Zm9.26,0a15.92,15.92,0,0,0,1.29,6.35,17.13,17.13,0,0,0,3.5,5.24,16.77,16.77,0,0,0,5.23,3.56,15.66,15.66,0,0,0,6.41,1.33,15.43,15.43,0,0,0,6.41-1.33,16.51,16.51,0,0,0,8.64-8.8,16.51,16.51,0,0,0-3.47-18,16.74,16.74,0,0,0-5.17-3.52,16.5,16.5,0,0,0-12.79,0,16.9,16.9,0,0,0-5.23,3.52,16.27,16.27,0,0,0-3.53,5.21A16.06,16.06,0,0,0,283.53,367.44Z"/><path class="cls-1" d="M381,366.79V388a4.48,4.48,0,0,1-1.3,3.3,4.36,4.36,0,0,1-3.23,1.3,4.73,4.73,0,0,1-3.34-1.3,4.3,4.3,0,0,1-1.4-3.3v-21.4a17,17,0,0,0-1.08-6.08,15.41,15.41,0,0,0-3-4.94,14.16,14.16,0,0,0-4.57-3.35,13.67,13.67,0,0,0-5.85-1.24,14.52,14.52,0,0,0-5.92,1.18,14.52,14.52,0,0,0-7.79,8.19,16.74,16.74,0,0,0-1.1,6.08V388a4.47,4.47,0,0,1-1.29,3.3,4.36,4.36,0,0,1-3.23,1.3,4.94,4.94,0,0,1-1.84-.35,5,5,0,0,1-1.5-.95,4.07,4.07,0,0,1-1-1.46,4.55,4.55,0,0,1-.37-1.84V366.41a25.46,25.46,0,0,1,1.83-9.65A24.41,24.41,0,0,1,340,348.9a23.89,23.89,0,0,1,7.65-5.3,23.47,23.47,0,0,1,9.53-1.94,23.13,23.13,0,0,1,9.48,1.94,23.53,23.53,0,0,1,7.54,5.3,24.16,24.16,0,0,1,5,7.86,26.22,26.22,0,0,1,1.78,9.65v.38Z"/><path class="cls-1" d="M355.5,96.41a54.92,54.92,0,0,0,1.82-7.8c-.54,1.67-2.11,4.56-6.79,8.24-7.2,5.68-21.79,13.27-51.24,21.19A96.47,96.47,0,0,0,270,131.21a129.63,129.63,0,0,0-36.79,51.7s0,0,0,.05a120.39,120.39,0,0,0-6.77,25.82c-.22,1.51-.42,3-.57,4.55,3.58-77.93,7.82-94.17,76.52-121.08C378.74,62.32,363.44,0,363.44,0c55.53,106.51-46.25,148.73-68.3,156.42-.57.08-1.14.16-1.71.22,0,0,49.26-21.72,61.69-59.09C355.25,97.17,355.38,96.8,355.5,96.41Z"/><path class="cls-2" d="M80.85,96.85c7.2,5.68,21.79,13.27,51.25,21.19a96.52,96.52,0,0,1,29.32,13.17,129.75,129.75,0,0,1,36.8,51.7s0,0,0,.05a119.92,119.92,0,0,1,7.05,27.85c.1.71.18,1.43.26,2.14q.65,5.72.71,11.57c0,.59,0,1.19,0,1.79a121,121,0,0,1-12.59,53.76c-7.58-16.64-19.34-34.16-37.47-46-45-29.47-28.94-18.88-77-51.19-28.74-19.3-56.9-41.77-70.59-76.35C-.64,83.21-3.28,54.42,4.9,17.38c0,0-4.36,43.92,23.63,82.82,18.56,25.76,51.29,49.29,108.9,56.38l.52.06S87.69,134.48,75.88,96.41c-.16-.56-.33-1.12-.49-1.69a49.48,49.48,0,0,1-1.31-6.11C74.6,90.28,76.17,93.17,80.85,96.85Z"/><path class="cls-2" d="M350.53,96.85c4.68-3.68,6.25-6.57,6.79-8.24a54.92,54.92,0,0,1-1.82,7.8c-.12.39-.25.76-.38,1.14-12.43,37.37-61.69,59.09-61.69,59.09.57-.06,1.14-.14,1.71-.22,56.87-7.25,89.29-30.64,107.71-56.22,28-38.9,23.64-82.82,23.64-82.82,8.17,37,5.53,65.83-3.67,89.12-13.69,34.58-41.87,57.05-70.61,76.35-48.1,32.31-32.08,21.72-77,51.19-18.12,11.87-29.89,29.39-37.47,46a121,121,0,0,1-12.59-53.76c0-.6,0-1.2,0-1.79.05-3.77.27-7.51.68-11.19.15-1.52.35-3,.57-4.55A120.39,120.39,0,0,1,233.15,183s0,0,0-.05A129.63,129.63,0,0,1,270,131.21,96.47,96.47,0,0,1,299.29,118C328.74,110.12,343.33,102.53,350.53,96.85Z"/><path class="cls-1" d="M75.88,96.41C87.69,134.48,138,156.64,138,156.64l-.52-.06C116.32,149.28,12.81,107.22,68.72,0c0,0-15.3,62.32,61.1,92.25,68.6,26.87,72.21,43.1,75.72,120.7-.08-.71-.16-1.43-.26-2.14A119.92,119.92,0,0,0,198.23,183s0,0,0-.05a129.75,129.75,0,0,0-36.8-51.7A96.52,96.52,0,0,0,132.1,118c-29.46-7.92-44-15.51-51.25-21.19-4.68-3.68-6.25-6.57-6.77-8.24a49.48,49.48,0,0,0,1.31,6.11C75.55,95.29,75.72,95.85,75.88,96.41Z"/></g></g></svg>