<svg xmlns="http://www.w3.org/2000/svg" viewBox="0 0 301.03 228.63"><defs><style>.cls-1{fill:#0f2a25;}.cls-2{fill:#2a4d41;}.cls-3{fill:#dde0d0;}</style></defs><g id="Camada_2" data-name="Camada 2"><g id="Camada_1-2" data-name="Camada 1"><path class="cls-1" d="M297.61,12.13c5.71,25.85,3.87,45.94-2.56,62.19-9.55,24.13-29.21,39.81-49.27,53.28-33.56,22.55-22.38,15.15-53.77,35.72-12.64,8.28-20.86,20.5-26.14,32.12a84.39,84.39,0,0,1-8.79-37.52c0-.42,0-.83,0-1.24,0-2.63.19-5.25.47-7.81.11-1.06.25-2.13.4-3.18a84.45,84.45,0,0,1,4.73-18s0,0,0,0a90.43,90.43,0,0,1,25.67-36.08,67.49,67.49,0,0,1,20.47-9.19c20.55-5.52,30.73-10.82,35.76-14.79C247.87,65,249,63,249.34,61.83a36.47,36.47,0,0,1-1.27,5.44c-.08.28-.17.54-.26.8-8.67,26.08-43.05,41.24-43.05,41.24l1.2-.15c39.68-5.07,62.3-21.39,75.16-39.24C300.66,42.78,297.61,12.13,297.61,12.13Z"/><path class="cls-2" d="M253.62,0C292.37,74.32,221.35,103.78,206,109.16l-1.2.15s34.38-15.16,43.05-41.24c.09-.26.18-.52.26-.8a36.47,36.47,0,0,0,1.27-5.44C249,63,247.87,65,244.61,67.58c-5,4-15.21,9.27-35.76,14.79a67.49,67.49,0,0,0-20.47,9.19,90.43,90.43,0,0,0-25.67,36.08s0,0,0,0a84.45,84.45,0,0,0-4.73,18c-.15,1.05-.29,2.12-.4,3.18C160.08,94.48,163,83.15,211,64.37,264.3,43.49,253.62,0,253.62,0Z"/><path class="cls-3" d="M157.08,157.92a84.39,84.39,0,0,0,8.79,37.52,114,114,0,0,0-9.3,33.19V166.39c0-3.27.21-6.55.53-9.71C157.08,157.09,157.08,157.5,157.08,157.92Z"/><path class="cls-3" d="M144.46,166.39v62.24a114,114,0,0,0-9.3-33.19A84.39,84.39,0,0,0,144,157.92c0-.42,0-.83,0-1.24C144.24,159.84,144.44,163.12,144.46,166.39Z"/><path class="cls-1" d="M143.93,156.68c0,.41,0,.82,0,1.24a84.39,84.39,0,0,1-8.79,37.52c-5.29-11.62-13.5-23.84-26.15-32.12-31.38-20.57-20.19-13.17-53.76-35.72C35.19,114.13,15.54,98.45,6,74.32-.45,58.07-2.29,38,3.42,12.13c0,0-3,30.65,16.49,57.79,13,18,35.79,34.4,76,39.34l.37,0S61.19,93.84,53,67.27c-.11-.39-.23-.78-.34-1.17a35.6,35.6,0,0,1-.92-4.27c.37,1.17,1.46,3.19,4.73,5.75,5,4,15.21,9.27,35.76,14.79a67.31,67.31,0,0,1,20.46,9.19,90.55,90.55,0,0,1,25.68,36.08s0,0,0,0a83.76,83.76,0,0,1,4.92,19.44c.07.5.12,1,.18,1.49C143.73,151.26,143.89,154,143.93,156.68Z"/><path class="cls-2" d="M143.43,148.6c-.06-.5-.11-1-.18-1.49a83.76,83.76,0,0,0-4.92-19.44s0,0,0,0a90.55,90.55,0,0,0-25.68-36.08,67.31,67.31,0,0,0-20.46-9.19C71.63,76.85,61.45,71.55,56.42,67.58,53.15,65,52.06,63,51.69,61.83a35.6,35.6,0,0,0,.92,4.27c.11.39.23.78.34,1.17,8.24,26.57,43.32,42,43.32,42l-.37,0C81.17,104.17,8.94,74.82,48,0c0,0-10.67,43.49,42.64,64.37C138.47,83.13,141,94.45,143.43,148.6Z"/></g></g></svg>