<svg xmlns="http://www.w3.org/2000/svg" viewBox="0 0 335.15 403.62"><defs><style>.cls-1{fill:#0f2a25;}</style></defs><g id="Camada_2" data-name="Camada 2"><g id="Camada_1-2" data-name="Camada 1"><path class="cls-1" d="M192.79,354.51V305.2L185.2,311c13.6,2.57,28.7-.08,41.56-4.56,33.86-11.81,58.76-39.75,75.36-70.65s26.36-65.24,32.89-99.59a6.11,6.11,0,0,0-5.78-7.6c-14.7-1-30.19,1.72-44.33,5.38a164.74,164.74,0,0,0-83.3,51.36c-17.33,20.11-29.5,43.85-37.81,69-2.43,7.35,9.15,10.5,11.57,3.19,12.62-38.14,35.52-72.76,70.22-94a155.47,155.47,0,0,1,39.25-17.06,169.29,169.29,0,0,1,17.08-3.86A121.87,121.87,0,0,1,314.78,141a101,101,0,0,1,14.45-.36L323.44,133c-9.29,48.85-25.06,102.29-62,137.85-9.8,9.45-22.64,18.09-34.24,22.65a95.75,95.75,0,0,1-15.56,4.67q-1.65.34-3.33.63c-.89.15-3.56.52-2.17.35-1.95.24-3.9.43-5.85.54a73,73,0,0,1-9.81-.05c-.81-.07-4.24-.52-1.18-.08l-.93-.14c-3.78-.72-7.6,1.63-7.6,5.78v49.31c0,7.72,12,7.73,12,0Z"/><path class="cls-1" d="M281.94,158.52c-9.95,8.46-19.51,17.42-28.82,26.57C237,201,220.87,217.83,209,237.22c-4,6.6,6.34,12.64,10.36,6.05,11.56-18.88,27.4-35.17,43.15-50.59,9-8.83,18.29-17.49,27.92-25.67,5.89-5-2.63-13.46-8.49-8.49Z"/><path class="cls-1" d="M198.05,249.74c-5.56,8-11.55,16.18-15.66,25-3.22,7,7.12,13.07,10.37,6.06,4.1-8.87,10.09-17,15.65-25,4.41-6.35-6-12.36-10.36-6Z"/><path class="cls-1" d="M154.36,354.51V305.2c0-4.15-3.82-6.5-7.6-5.78l-.74.11c1.83-.26.75-.07-.62,0a71.52,71.52,0,0,1-7.88.23c-1.81,0-3.61-.15-5.4-.31-1-.09-2-.2-2.93-.32s1.21.2-.45-.06l-1.7-.27a95,95,0,0,1-15-3.81,86.41,86.41,0,0,1-16.15-7.37,108.24,108.24,0,0,1-17.57-12.5c-14.68-12.83-26.1-28.81-35.25-45.94C27.16,199.33,18,166.14,11.71,133l-5.79,7.59c14-.91,26.37,1.26,39.72,4.59a153.74,153.74,0,0,1,78.29,47.33c16.51,18.76,28,41.37,35.86,65,2.41,7.3,14,4.17,11.57-3.19-13.41-40.53-37.53-77.14-74.1-100.16a170.67,170.67,0,0,0-75.68-25.08,102.35,102.35,0,0,0-15.66-.47,6.11,6.11,0,0,0-5.78,7.6C9.86,187.29,27,243,65.79,279.9c18.74,17.83,42.81,30.21,68.88,31.78A62.55,62.55,0,0,0,150,311l-7.59-5.79v49.31c0,7.72,12,7.73,12,0Z"/><path class="cls-1" d="M44.72,167c9.64,8.18,18.89,16.84,27.92,25.67,15.75,15.42,31.59,31.71,43.15,50.59,4,6.58,14.4.56,10.36-6.05C114.28,217.83,98.17,201,82,185.09c-9.31-9.15-18.88-18.11-28.83-26.57-5.85-5-14.38,3.48-8.49,8.49Z"/><path class="cls-1" d="M126.74,255.79c5.56,8,11.55,16.19,15.66,25,3.23,7,13.58.91,10.36-6.06-4.1-8.86-10.1-17-15.66-25-4.37-6.3-14.78-.31-10.36,6Z"/><path class="cls-1" d="M56.78,401.16C69.87,392,85.06,385.22,100,379.81c33.24-12,69.44-16.56,104.35-9.85,26.25,5,50.59,16.07,72.53,31.2,6.38,4.4,12.38-6,6.06-10.36-37.74-26-82.79-39.14-128.63-35.24a232.66,232.66,0,0,0-87.63,25.87,145,145,0,0,0-16,9.37c-6.28,4.4-.29,14.8,6.06,10.36Z"/><path class="cls-1" d="M91.33,402.06,117,374.48c4.37-4.71-2.68-11.8-7.07-7.08L84.26,395c-4.38,4.71,2.68,11.8,7.07,7.07Z"/><path class="cls-1" d="M117,400.8,147.47,368c4.38-4.71-2.68-11.79-7.07-7.07l-30.51,32.85c-4.38,4.71,2.68,11.8,7.07,7.07Z"/><path class="cls-1" d="M142.59,400.8l32-34.41c4.37-4.71-2.68-11.8-7.07-7.07l-32,34.41c-4.38,4.71,2.68,11.8,7.07,7.07Z"/><path class="cls-1" d="M167.28,400.8,197.79,368c4.38-4.71-2.68-11.79-7.07-7.07l-30.51,32.85c-4.38,4.71,2.67,11.8,7.07,7.07Z"/><path class="cls-1" d="M192.06,400.8l25.63-27.59c4.38-4.71-2.67-11.8-7.07-7.07L185,393.73c-4.37,4.71,2.68,11.8,7.07,7.07Z"/><path class="cls-1" d="M217.69,400.8l22.18-23.87c4.38-4.71-2.68-11.8-7.07-7.07l-22.18,23.87c-4.37,4.71,2.68,11.8,7.07,7.07Z"/><path class="cls-1" d="M243.32,400.8l14.37-15.46c4.37-4.71-2.68-11.8-7.08-7.07l-14.36,15.46c-4.37,4.71,2.68,11.8,7.07,7.07Z"/><path class="cls-1" d="M230.62,91.44c-.2,29.15-12.66,61.65-40.38,75-25.87,12.44-53.51-1.69-67.8-24.43-16.78-26.71-18.57-63.11-5.19-91.6C128.6,26.25,153,6.1,181.06,13.18c33.69,8.51,49.34,46.59,49.56,78.26,0,7.72,12,7.74,12,0-.24-33.67-15.48-71.51-48-86.1-30.94-13.91-63.62.77-81.51,27.82-20.24,30.6-21.73,72.51-6.27,105.38,13.73,29.18,44.2,51.11,77.36,42.73,38.94-9.84,58.11-52.84,58.37-89.83C242.67,83.72,230.67,83.71,230.62,91.44Z"/><path class="cls-1" d="M163.58,46.16V87.37c0,7.73,12,7.74,12,0V46.16c0-7.72-12-7.74-12,0Z"/><path class="cls-1" d="M163.58,109.29V147.9c0,7.72,12,7.73,12,0V109.29c0-7.72-12-7.74-12,0Z"/></g></g></svg>